<?xml version="1.0" standalone="no"?>
<!DOCTYPE svg PUBLIC "-//W3C//DTD SVG 1.1//EN" "http://www.w3.org/Graphics/SVG/1.1/DTD/svg11.dtd" >
<svg xmlns="http://www.w3.org/2000/svg" xmlns:xlink="http://www.w3.org/1999/xlink" version="1.1">
<metadata>
Created by FontForge 20170731 at Tue Mar 16 14:49:43 2021
 By Aleksey,,,
Copyright (c) 1995 ParaGraph Intl., (c) 1998 ParaType Inc., ParaType Ltd. All rights reserved.
</metadata>
<defs>
<font id="FuturaPT-Book" horiz-adv-x="1024" >
  <font-face 
    font-family="Futura PT Book"
    font-weight="400"
    font-stretch="normal"
    units-per-em="2048"
    panose-1="2 11 5 2 2 2 4 2 3 3"
    ascent="1563"
    descent="-485"
    x-height="850"
    cap-height="1366"
    bbox="-741 -512 2103 1896"
    underline-thickness="102"
    underline-position="-307"
    unicode-range="U+0020-FB02"
  />
<missing-glyph horiz-adv-x="477" 
 />
    <glyph glyph-name="afii10017.var.accented" unicode="&#x410;`" horiz-adv-x="1273" 
d="M1090 0l-160 385h-582l-164 -385h-168l629 1432l612 -1432h-167zM408 528h462l-229 547zM805 1806l143 -92l-313 -239l-88 65z" />
    <glyph glyph-name="afii10022.var.accented" unicode="&#x415;`" horiz-adv-x="987" 
d="M885 1366v-143h-557v-406h540v-143h-540v-531h557v-143h-709v1366h709zM662 1806l143 -92l-313 -239l-89 65z" />
    <glyph glyph-name="afii10026.var.accented" unicode="&#x418;`" horiz-adv-x="1454" 
d="M1126 0v1042l-950 -1103v1427h152v-1047l950 1104v-1423h-152zM895 1806l143 -92l-313 -239l-88 65z" />
    <glyph glyph-name="afii10032.var.accented" unicode="&#x41e;`" horiz-adv-x="1626" 
d="M813 -25q-146 0 -277.5 54t-226.5 147t-151 225t-56 281q0 150 56 282t151.5 225t226.5 146.5t277 53.5t277 -53.5t226.5 -146.5t151.5 -225t56 -282q0 -149 -56 -281t-151 -225t-226.5 -147t-277.5 -54zM813 1245q-151 0 -279 -75t-202 -204.5t-74 -283.5t74 -283.5
t202 -204.5t279 -75t279 75t202 204.5t74 283.5t-74 283.5t-202 204.5t-279 75zM981 1806l143 -92l-313 -239l-88 65z" />
    <glyph glyph-name="afii10037.var.accented" unicode="&#x423;`" horiz-adv-x="1163" 
d="M16 1366h185l426 -805l356 805h164l-617 -1366h-163l174 381zM750 1806l143 -92l-313 -239l-88 65z" />
    <glyph glyph-name="afii10045.var.accented" unicode="&#x42b;`" horiz-adv-x="1454" 
d="M176 0v1366h152v-567h184q42 0 79.5 -3t87 -12.5t90 -25.5t81.5 -45.5t69.5 -69t46 -98.5t17.5 -131q0 -193 -119.5 -303.5t-322.5 -110.5h-365zM328 655v-512h176q34 0 56.5 1.5t61 7.5t73 23t61.5 44q71 67 71 195q0 147 -110 207q-29 16 -72.5 24t-71 9t-86.5 1h-159z
M1126 1366h152v-1366h-152v1366zM895 1806l143 -92l-313 -239l-88 65z" />
    <glyph glyph-name="afii10047.var.accented" unicode="&#x42d;`" horiz-adv-x="1320" 
d="M102 1065v188q197 136 445 136q152 0 279 -54t212.5 -148.5t133 -225.5t47.5 -283q0 -149 -46.5 -278t-130.5 -223t-210 -148t-277 -54q-246 0 -453 134v188q60 -63 158 -111q140 -67 295 -67q134 0 249.5 63.5t187.5 183t71 269.5h-797v143h791q-15 198 -154.5 332.5
t-345.5 134.5q-147 0 -276 -57q-103 -47 -179 -123zM692 1806l144 -92l-314 -239l-88 65z" />
    <glyph glyph-name="afii10048.var.accented" unicode="&#x42e;`" horiz-adv-x="2027" 
d="M328 797h209q24 168 117.5 302t243 212t329.5 78q149 0 278 -52.5t221.5 -145t145.5 -224.5t53 -285q0 -200 -90.5 -362t-250 -253.5t-357.5 -91.5q-149 0 -278.5 55t-218.5 148t-142 216.5t-58 258.5h-202v-653h-152v1366h152v-569zM1227 1245q-149 0 -273 -73
t-196 -202.5t-72 -287.5t72 -287.5t196 -202.5t273 -73t273 73t196.5 202.5t72.5 287.5t-72.5 287.5t-196.5 202.5t-273 73zM1182 1806l143 -92l-313 -239l-88 65z" />
    <glyph glyph-name="afii10049.var.accented" unicode="&#x42f;`" horiz-adv-x="1044" 
d="M61 0l402 606q-139 14 -230 86q-118 96 -118 279q0 168 94 272q37 42 84 69t97.5 37.5t83.5 13.5t75 3h319v-1366h-151v598h-82l-389 -598h-185zM717 1223h-148q-47 0 -79.5 -3t-77.5 -20t-76 -49q-66 -70 -66 -176q0 -121 78 -184q73 -58 209 -58h160v490zM690 1806
l144 -92l-314 -239l-88 65z" />
    <glyph glyph-name="afii10023.var.accented" unicode="&#x401;`" horiz-adv-x="987" 
d="M885 1366v-143h-557v-406h540v-143h-540v-531h557v-143h-709v1366h709zM596 1806l113 -75l-254 -242l-70 51zM176 1624q0 43 27.5 70.5t70.5 27.5q47 0 74 -30t27 -68q0 -41 -30 -70.5t-71 -29.5q-38 0 -68 26.5t-30 73.5zM686 1624q0 38 26.5 68t73.5 30q43 0 71 -27.5
t28 -70.5q0 -47 -30.5 -73.5t-68.5 -26.5q-41 0 -70.5 29.5t-29.5 70.5z" />
    <glyph glyph-name="afii10065.var.accented" unicode="&#x430;`" horiz-adv-x="1077" 
d="M791 729v121h147v-850h-147v119q-112 -144 -291 -144q-82 0 -155.5 29t-132 83.5t-92.5 142t-34 196.5q0 106 34 192t92 140.5t131.5 83t156.5 28.5q183 0 291 -141zM516 739q-116 0 -197 -82.5t-81 -230.5q0 -140 74.5 -230t203.5 -90q130 0 206.5 93t76.5 225
q0 79 -25.5 141t-67 99t-90.5 56t-100 19zM666 1364l151 -70l-274 -276l-92 49z" />
    <glyph glyph-name="afii10070.var.accented" unicode="&#x435;`" horiz-adv-x="985" 
d="M770 285l123 -68q-43 -81 -105 -137q-117 -105 -282 -105q-80 0 -152.5 26t-133.5 77.5t-97.5 140t-36.5 201.5q0 195 112 322.5t300 127.5q114 0 195 -45t126 -110q39 -56 61 -145t19 -175h-661q1 -129 79 -209t191 -80q100 0 174 62q58 49 88 117zM248 518h500
q-19 100 -87.5 160.5t-162.5 60.5q-93 0 -163 -62.5t-87 -158.5zM618 1364l152 -70l-274 -276l-93 49z" />
    <glyph glyph-name="afii10074.var.accented" unicode="&#x438;`" horiz-adv-x="1007" 
d="M139 850h148v-561l581 626v-915h-147v567l-582 -626v909zM631 1364l151 -70l-274 -276l-92 49z" />
    <glyph glyph-name="afii10080.var.accented" unicode="&#x43e;`" horiz-adv-x="1073" 
d="M537 -25q-194 0 -322.5 127t-128.5 320q0 194 128 321t323 127t322.5 -127t127.5 -321q0 -193 -128 -320t-322 -127zM537 739q-124 0 -211.5 -84.5t-87.5 -232.5q0 -100 43.5 -173.5t110.5 -108t145 -34.5q123 0 211 84t88 232q0 149 -87 233t-212 84zM664 1364l151 -70
l-274 -276l-92 49z" />
    <glyph glyph-name="afii10085.var.accented" unicode="&#x443;`" horiz-adv-x="942" 
d="M137 -471l271 551l-392 770h168l301 -608l277 608h164l-625 -1321h-164zM598 1364l152 -70l-275 -276l-92 49z" />
    <glyph glyph-name="afii10093.var.accented" unicode="&#x44b;`" horiz-adv-x="1150" 
d="M139 0v850h148v-326h151q77 0 142 -16t116 -68q66 -66 66 -178q0 -118 -76 -190q-34 -33 -81 -49.5t-80.5 -19.5t-88.5 -3h-297zM287 131h137q91 0 131 23q55 37 55 108q0 74 -53 107q-17 12 -42 17.5t-40 6t-49 0.5h-139v-262zM864 0v850h148v-850h-148zM702 1364
l152 -70l-274 -276l-93 49z" />
    <glyph glyph-name="afii10095.var.accented" unicode="&#x44d;`" horiz-adv-x="866" 
d="M86 684v143q106 43 231 43q216 0 339.5 -124.5t123.5 -325.5q0 -194 -125.5 -319.5t-326.5 -125.5q-122 0 -242 48v143q114 -60 240 -60q118 0 204.5 72.5t98.5 190.5h-449v131h449q-24 114 -108 176.5t-197 62.5q-119 0 -238 -55zM457 1364l151 -70l-274 -276l-92 49z
" />
    <glyph glyph-name="afii10096.var.accented" unicode="&#x44e;`" horiz-adv-x="1413" 
d="M287 502h153q19 142 115 241q57 60 140 93.5t182 33.5q196 0 323 -127t127 -321t-127.5 -320.5t-322.5 -126.5q-225 0 -351 160q-81 101 -94 232h-145v-367h-148v850h148v-348zM877 739q-124 0 -208.5 -85t-84.5 -232q0 -149 86 -232.5t207 -83.5q123 0 211 84t88 232
t-87.5 232.5t-211.5 84.5zM834 1364l151 -70l-274 -276l-93 49z" />
    <glyph glyph-name="afii10097.var.accented" unicode="&#x44f;`" horiz-adv-x="835" 
d="M41 0l264 350q-11 0 -33.5 4t-63 21t-67.5 43q-67 63 -67 170q0 120 76 190q35 33 81.5 49.5t79.5 19.5t88 3h297v-850h-147v342h-90l-242 -342h-176zM549 465v254h-137q-93 0 -133 -23q-54 -35 -54 -104t54 -103q8 -5 17 -9t16.5 -6.5t18 -4t16.5 -2.5t18 -1.5
t15.5 -0.5h16h13.5h139zM545 1364l151 -70l-274 -276l-92 49z" />
    <glyph glyph-name="afii10071.var.accented" unicode="&#x451;`" horiz-adv-x="985" 
d="M770 285l123 -68q-43 -81 -105 -137q-117 -105 -282 -105q-184 0 -295 111q-125 123 -125 334q0 219 135 346q110 104 277 104q115 0 196 -44.5t125 -110.5q39 -56 61 -145t19 -175h-661q-2 -127 86 -215q74 -74 184 -74q103 0 174 62q58 49 88 117zM248 518h500
q-14 84 -76 150q-71 71 -174 71q-104 0 -174 -75q-58 -58 -76 -146zM160 1126q0 41 30.5 72t71.5 31t72 -31t31 -72t-31 -71.5t-72 -30.5t-71.5 30.5t-30.5 71.5zM631 1126q0 41 30.5 72t71.5 31t72 -31t31 -72t-31 -71.5t-72 -30.5t-71.5 30.5t-30.5 71.5zM596 1364
l125 -55l-275 -277l-65 35z" />
    <glyph glyph-name="fi" unicode="fi" horiz-adv-x="942" 
d="M500 715h-209v-715h-148v715h-82v135h82v319q0 78 10 130t40 94q86 125 280 125q201 0 281 -125q49 -79 49 -224v-34h-148v34q0 91 -28 134q-44 65 -154 65t-154 -65q-28 -40 -28 -134v-319h209v-135zM655 850h148v-850h-148v850z" />
    <glyph glyph-name="fl" unicode="fl" horiz-adv-x="942" 
d="M500 715h-209v-715h-148v715h-82v135h82v319q0 78 10 130t40 94q86 125 280 125q201 0 281 -125q49 -79 49 -224v-1169h-148v1169q0 91 -28 134q-44 65 -154 65t-154 -65q-28 -40 -28 -134v-319h209v-135z" />
    <glyph glyph-name=".notdef" horiz-adv-x="477" 
 />
    <glyph glyph-name=".null" horiz-adv-x="0" 
 />
    <glyph glyph-name="nonmarkingreturn" horiz-adv-x="682" 
 />
    <glyph glyph-name="space" unicode=" " horiz-adv-x="477" 
 />
    <glyph glyph-name="exclam" unicode="!" horiz-adv-x="573" 
d="M360 276h-147v1090h147v-1090zM184 82q0 41 31 71.5t72 30.5t71.5 -30.5t30.5 -71.5t-30.5 -71.5t-71.5 -30.5t-72 30.5t-31 71.5z" />
    <glyph glyph-name="quotedbl" unicode="&#x22;" horiz-adv-x="675" 
d="M274 1366l-26 -549h-111l-26 549h163zM565 1366l-26 -549h-111l-27 549h164z" />
    <glyph glyph-name="numbersign" unicode="#" horiz-adv-x="1228" 
d="M807 0h-150l66 424h-279l-65 -424h-150l66 424h-225l20 135h225l41 272h-225l21 136h225l61 399h150l-62 -399h279l61 399h150l-62 -399h226l-21 -136h-225l-41 -272h225l-20 -135h-226zM743 559l41 272h-278l-41 -272h278z" />
    <glyph glyph-name="dollar" unicode="$" horiz-adv-x="1163" 
d="M956 1176l-120 -80q-29 60 -78 102q-39 34 -88 43v-455q162 -63 239 -143q97 -100 97 -248q0 -94 -37.5 -180t-115.5 -150t-183 -81v-191h-123v182q-153 5 -262 111q-46 46 -79.5 111.5t-47.5 130.5l147 41q15 -107 82 -174q69 -72 160 -76v561q-151 63 -225 133
q-52 49 -73.5 102t-21.5 121q0 143 92 239.5t228 108.5v179h123v-179q87 -9 155 -57q82 -57 131 -151zM670 623v-496q83 22 131.5 98t48.5 164q0 96 -66 162q-45 45 -114 72zM547 842v399q-80 -13 -124 -70t-44 -133q0 -72 51 -123q45 -45 117 -73z" />
    <glyph glyph-name="percent" unicode="%" horiz-adv-x="1454" 
d="M365 1378q125 0 211 -86t86 -211t-86 -211t-211 -86t-211 86t-86 211t86 211t211 86zM365 897q74 0 124 54t50 130t-50 130.5t-124 54.5q-72 0 -123.5 -54.5t-51.5 -130.5t51.5 -130t123.5 -54zM289 20l796 1373l80 -45l-796 -1375zM1090 580q124 0 210 -86t86 -211
t-86 -211t-210 -86t-210.5 86t-86.5 211t86.5 211t210.5 86zM1090 98q74 0 124 54.5t50 130.5t-50 130t-124 54q-72 0 -123.5 -54t-51.5 -130t51.5 -130.5t123.5 -54.5z" />
    <glyph glyph-name="ampersand" unicode="&#x26;" horiz-adv-x="1302" 
d="M1116 592l111 -92q-70 -97 -174 -203l229 -297h-188l-148 190q-95 -95 -211.5 -155t-228.5 -60q-168 0 -281.5 108.5t-113.5 270.5q0 161 122 283q72 72 230 170q-72 93 -103.5 159.5t-31.5 133.5q0 116 79 202.5t218 86.5q135 0 211.5 -82t76.5 -193q0 -138 -127 -248
q-14 -12 -37.5 -29.5t-72.5 -58.5l285 -366q100 106 155 180zM854 303l-303 391q-112 -68 -193 -141q-26 -24 -43.5 -44t-35 -62t-17.5 -91q0 -102 68.5 -171.5t173.5 -69.5q154 0 350 188zM526 973l62 -84l90 69q92 72 92 158q0 68 -44 104.5t-103 36.5q-64 0 -108 -42.5
t-44 -106.5q0 -28 9 -54.5t18.5 -41.5t27.5 -39z" />
    <glyph glyph-name="quotesingle" unicode="'" horiz-adv-x="385" 
d="M274 1366l-26 -549h-111l-26 549h163z" />
    <glyph glyph-name="parenleft" unicode="(" horiz-adv-x="602" 
d="M342 1516l129 -60q-66 -171 -104 -354q-52 -250 -52 -516q0 -264 50 -500q38 -186 106 -375l-129 -59q-97 255 -135 463q-43 225 -43 475q0 283 57 532q46 195 121 394z" />
    <glyph glyph-name="parenright" unicode=")" horiz-adv-x="602" 
d="M131 1456l129 60q75 -199 121 -394q57 -249 57 -532q0 -250 -43 -475q-38 -208 -135 -463l-129 59q70 195 107 375q49 231 49 500q0 271 -51 516q-37 178 -105 354z" />
    <glyph glyph-name="asterisk" unicode="*" horiz-adv-x="1163" 
d="M285 1327l237 -88l-10 254h139l-10 -254l238 88l43 -129l-246 -70l158 -198l-111 -80l-141 211l-142 -211l-110 80l157 198l-245 70z" />
    <glyph glyph-name="plus" unicode="+" 
d="M68 614v136h370v352h148v-352h370v-136h-370v-352h-148v352h-370z" />
    <glyph glyph-name="comma" unicode="," horiz-adv-x="561" 
d="M49 -272l168 473l135 -49l-207 -463z" />
    <glyph glyph-name="hyphen" unicode="-" horiz-adv-x="655" 
d="M102 360v152h451v-152h-451z" />
    <glyph glyph-name="period" unicode="." horiz-adv-x="466" 
d="M131 82q0 41 30.5 71.5t71.5 30.5t72 -30.5t31 -71.5t-31 -71.5t-72 -30.5t-71.5 30.5t-30.5 71.5z" />
    <glyph glyph-name="slash" unicode="/" horiz-adv-x="1212" 
d="M0 -348l1053 1902l118 -61l-1052 -1899z" />
    <glyph glyph-name="zero" unicode="0" horiz-adv-x="1163" 
d="M582 -25q-91 0 -184.5 49.5t-166.5 155.5q-137 199 -137 502t137 502q73 106 166.5 155.5t184.5 49.5t184 -49.5t166 -155.5q137 -199 137 -502t-137 -502q-73 -106 -166 -155.5t-184 -49.5zM582 1249q-60 0 -123 -35.5t-113 -115.5q-100 -158 -100 -416t100 -416
q50 -80 113 -115.5t123 -35.5t122.5 35.5t112.5 115.5q101 160 101 416t-101 416q-50 80 -112.5 115.5t-122.5 35.5z" />
    <glyph glyph-name="one" unicode="1" horiz-adv-x="1163" 
d="M545 0v1223h-230l80 143h301v-1366h-151z" />
    <glyph glyph-name="two" unicode="2" horiz-adv-x="1163" 
d="M985 0h-883l498 575q123 144 160 199q76 110 76 209q0 116 -76 191t-197 75q-148 0 -227 -121q-42 -64 -45 -161h-152q8 172 103 282q121 140 323 140q182 0 302 -115.5t120 -292.5q0 -72 -24 -140t-84 -153q-50 -70 -187 -227l-284 -322h577v-139z" />
    <glyph glyph-name="three" unicode="3" horiz-adv-x="1163" 
d="M328 1028h-152q6 109 64 201q102 160 317 160q93 0 168 -31t121.5 -83.5t71 -117.5t24.5 -137q0 -88 -40.5 -171.5t-135.5 -131.5q19 -7 39 -18t50 -38t52.5 -61t39 -90t16.5 -123q0 -187 -120 -299.5t-300 -112.5q-76 0 -145.5 21t-135 76.5t-100.5 138.5
q-28 69 -31 143h152q10 -84 49 -137q33 -49 89 -75.5t122 -26.5q113 0 190.5 80.5t77.5 195.5q0 69 -32 133.5t-103 96.5q-67 31 -156 28v135q89 -7 156 29q115 62 115 203q0 100 -58 166.5t-176 66.5q-115 0 -176 -78q-47 -61 -53 -143z" />
    <glyph glyph-name="four" unicode="4" horiz-adv-x="1163" 
d="M893 1442v-1045h168v-139h-168v-258h-152v258h-700zM309 397h432v604z" />
    <glyph glyph-name="five" unicode="5" horiz-adv-x="1163" 
d="M981 1366v-139h-438l-88 -295q36 8 86 8q202 0 326 -135t124 -338q0 -148 -68.5 -261.5t-181 -172t-247.5 -58.5q-176 0 -306 107q-72 62 -118 139l120 86q31 -60 93 -110q99 -82 221 -82q143 0 239.5 102t96.5 248q0 147 -94.5 241.5t-241.5 94.5q-130 0 -264 -94
l198 659h543z" />
    <glyph glyph-name="six" unicode="6" horiz-adv-x="1163" 
d="M688 1399l115 -86l-314 -436q58 18 121 18q194 0 318.5 -129t124.5 -322q0 -204 -132.5 -336.5t-336.5 -132.5q-116 0 -209 42t-149 110.5t-85.5 149t-29.5 163.5q0 157 112 314zM582 115q140 0 229.5 93t89.5 232q0 137 -91 226.5t-230 89.5q-138 0 -228 -90.5
t-90 -225.5q0 -138 89.5 -231.5t230.5 -93.5z" />
    <glyph glyph-name="seven" unicode="7" horiz-adv-x="1163" 
d="M106 47l777 1180h-748v139h1004l-914 -1399z" />
    <glyph glyph-name="eight" unicode="8" horiz-adv-x="1163" 
d="M793 711q102 -45 154 -132.5t52 -201.5q0 -81 -26.5 -153t-77 -128t-131.5 -88.5t-182 -32.5q-199 0 -308.5 116t-109.5 286q0 113 52.5 201t154.5 133q-81 47 -123.5 125t-42.5 174q0 74 25 141.5t71 121t119 85t162 31.5q118 0 205.5 -55t129 -139.5t41.5 -184.5
q0 -97 -42 -174.5t-123 -124.5zM582 772q100 0 166.5 67.5t66.5 168.5q0 109 -68 175t-165 66t-165.5 -66t-68.5 -175q0 -101 67 -168.5t167 -67.5zM582 115q118 0 192 74.5t74 191.5q0 115 -74.5 187.5t-191.5 72.5t-192 -72.5t-75 -187.5q0 -117 74.5 -191.5t192.5 -74.5z
" />
    <glyph glyph-name="nine" unicode="9" horiz-adv-x="1163" 
d="M475 -33l-115 84l314 436q-59 -18 -121 -18q-194 0 -318 129t-124 322q0 204 132.5 336.5t336.5 132.5q116 0 209 -42t149 -110.5t85.5 -149t29.5 -163.5q0 -158 -113 -314zM582 1249q-140 0 -230 -93t-90 -232q0 -137 91.5 -226.5t230.5 -89.5q138 0 227.5 90.5
t89.5 225.5q0 139 -89 232t-230 93z" />
    <glyph glyph-name="colon" unicode=":" horiz-adv-x="466" 
d="M131 768q0 41 30.5 71.5t71.5 30.5t72 -30.5t31 -71.5t-31 -71.5t-72 -30.5t-71.5 30.5t-30.5 71.5zM131 78q0 41 30.5 71.5t71.5 30.5t72 -30.5t31 -71.5t-31 -72t-72 -31t-71.5 31t-30.5 72z" />
    <glyph glyph-name="semicolon" unicode=";" horiz-adv-x="561" 
d="M160 768q0 41 30.5 71.5t71.5 30.5t72 -30.5t31 -71.5t-31 -71.5t-72 -30.5t-71.5 30.5t-30.5 71.5zM49 -272l168 473l135 -49l-207 -463z" />
    <glyph glyph-name="less" unicode="&#x3c;" 
d="M225 676l731 -332v-147l-888 415v127l888 416v-147z" />
    <glyph glyph-name="equal" unicode="=" 
d="M68 786v136h888v-136h-888zM68 471v135h888v-135h-888z" />
    <glyph glyph-name="greater" unicode="&#x3e;" 
d="M799 676l-731 332v147l888 -416v-127l-888 -415v147z" />
    <glyph glyph-name="question" unicode="?" horiz-adv-x="892" 
d="M592 592h147q0 -145 -84 -232q-76 -81 -211 -81q-132 0 -213 81t-81 211q0 176 172 254q42 19 103 37t69 21q131 47 131 180q0 94 -54 143q-49 43 -125 43q-83 0 -129 -43q-53 -50 -53 -137q0 -45 12 -86h-151q-8 39 -8 90q0 138 78 221q88 95 249 95q153 0 242 -89
q90 -90 90 -241q0 -122 -69 -201q-56 -63 -158 -102q-15 -5 -45.5 -14t-55.5 -18t-47 -19q-100 -45 -100 -144q0 -65 41 -106q37 -37 100 -37q64 0 101 37q23 23 36 61t13 76zM344 78q0 41 30.5 71.5t71.5 30.5t72 -30.5t31 -71.5t-31 -72t-72 -31t-71.5 31t-30.5 72z" />
    <glyph glyph-name="at" unicode="@" horiz-adv-x="1501" 
d="M983 874l27 132h106q-37 -158 -64 -310.5t-32 -199.5v-17q6 -94 76 -94q81 0 156 110.5t75 280.5q0 150 -74.5 268t-198.5 180t-274 62q-167 0 -307 -81t-220.5 -221.5t-80.5 -307.5q0 -82 19.5 -162.5t66.5 -161.5t116.5 -142t179 -99.5t245.5 -38.5q227 0 428 94
l30 -94q-205 -99 -460 -99q-210 0 -376 89t-259.5 250t-93.5 366q0 146 55.5 276.5t149.5 225t226 149.5t279 55q104 0 201 -27.5t177.5 -80.5t141 -126t94 -168.5t33.5 -203.5q0 -205 -102.5 -344t-230.5 -139q-63 0 -104 37.5t-46 99.5q-11 -17 -27 -36t-47.5 -46.5
t-79.5 -45t-102 -17.5q-129 0 -208 94.5t-79 234.5q0 110 44.5 204.5t128 153t186.5 58.5q88 0 144.5 -44.5t80.5 -113.5zM709 397q70 0 124.5 47t82.5 121t28 158q0 100 -51 149.5t-125 49.5q-105 0 -177.5 -91t-72.5 -210q0 -105 57 -164.5t134 -59.5z" />
    <glyph glyph-name="A" unicode="A" horiz-adv-x="1273" 
d="M1090 0l-160 385h-582l-164 -385h-168l629 1432l612 -1432h-167zM408 528h462l-229 547z" />
    <glyph glyph-name="B" unicode="B" horiz-adv-x="1085" 
d="M176 1366h246q206 0 313 -86q47 -36 85 -105t38 -178q0 -177 -135 -268q68 -17 120 -54.5t81.5 -86.5t44 -100t14.5 -103q0 -93 -39.5 -171t-99.5 -124q-39 -31 -82 -50.5t-89.5 -27t-79 -10t-77.5 -2.5h-340v1366zM328 1223v-457h114q31 0 59.5 3t69 16.5t69.5 36t50 67
t21 104.5q0 46 -13 83.5t-32 61t-46.5 40.5t-51 25.5t-51.5 13t-42.5 5.5t-28.5 1h-118zM328 631v-488h174q79 0 136.5 11.5t102.5 46.5q41 30 65.5 79t24.5 109q0 74 -34 124.5t-82 76.5q-72 41 -232 41h-155z" />
    <glyph glyph-name="C" unicode="C" horiz-adv-x="1323" 
d="M1221 1253v-188q-81 81 -179 127q-116 53 -235 53q-154 0 -280.5 -76t-197.5 -206.5t-71 -286.5q0 -107 33.5 -199.5t88.5 -157t127 -110.5t149 -68t153 -22q131 0 254 63q86 43 158 115v-188q-187 -134 -412 -134q-200 0 -362 93t-253.5 254t-91.5 356q0 151 54.5 283
t149 226t227.5 148t284 54q226 0 404 -136z" />
    <glyph glyph-name="D" unicode="D" horiz-adv-x="1294" 
d="M176 0v1366h279q62 0 114.5 -5t121.5 -20t137.5 -49t129.5 -86q104 -86 169 -218.5t65 -305.5q0 -318 -240 -524q-98 -83 -210 -120.5t-289 -37.5h-277zM328 1223v-1080h133q244 0 391 123q184 155 184 416q0 246 -157.5 393.5t-417.5 147.5h-133z" />
    <glyph glyph-name="E" unicode="E" horiz-adv-x="987" 
d="M885 1366v-143h-557v-406h540v-143h-540v-531h557v-143h-709v1366h709z" />
    <glyph glyph-name="F" unicode="F" horiz-adv-x="888" 
d="M799 1366v-143h-471v-404h454v-143h-454v-676h-152v1366h623z" />
    <glyph glyph-name="G" unicode="G" horiz-adv-x="1552" 
d="M881 543v143h569v-33q0 -117 -34 -231.5t-97 -200.5q-18 -25 -38.5 -47.5t-68 -62t-99.5 -67t-132.5 -48.5t-169.5 -21q-200 0 -362.5 93.5t-254.5 255.5t-92 358t92.5 358t256 255.5t364.5 93.5q241 0 418 -136q91 -70 158 -161l-113 -103q-59 84 -129 141
q-143 115 -332 115q-162 0 -290.5 -75t-198.5 -203.5t-70 -286.5q0 -108 33 -201t88 -158t127 -111.5t150 -68.5t157 -22q135 0 247 62.5t171 166.5q50 86 55 195h-405z" />
    <glyph glyph-name="H" unicode="H" horiz-adv-x="1355" 
d="M328 1366v-555h700v555h152v-1366h-152v668h-700v-668h-152v1366h152z" />
    <glyph glyph-name="I" unicode="I" horiz-adv-x="503" 
d="M176 1366h152v-1366h-152v1366z" />
    <glyph glyph-name="J" unicode="J" horiz-adv-x="626" 
d="M299 1366h152v-983q0 -73 -3 -117t-23 -104.5t-58 -100.5q-79 -86 -217 -86q-156 0 -244 101l84 119q70 -76 155 -76q64 0 103 39q24 24 36 64.5t13.5 70.5t1.5 86v987z" />
    <glyph glyph-name="K" unicode="K" horiz-adv-x="1163" 
d="M328 1366v-586l581 586h205l-639 -637l660 -729h-209l-559 627l-39 -39v-588h-152v1366h152z" />
    <glyph glyph-name="L" unicode="L" horiz-adv-x="733" 
d="M176 1366h152v-1223h377v-143h-529v1366z" />
    <glyph glyph-name="M" unicode="M" horiz-adv-x="1767" 
d="M285 0h-156l227 1442l525 -1153l534 1155l213 -1444h-155l-130 950l-464 -1007l-459 1007z" />
    <glyph glyph-name="N" unicode="N" horiz-adv-x="1568" 
d="M328 0h-152v1423l1065 -1116v1059h152v-1427l-1065 1116v-1055z" />
    <glyph glyph-name="O" unicode="O" horiz-adv-x="1626" 
d="M813 -25q-146 0 -277.5 54t-226.5 147t-151 225t-56 281q0 150 56 282t151.5 225t226.5 146.5t277 53.5t277 -53.5t226.5 -146.5t151.5 -225t56 -282q0 -149 -56 -281t-151 -225t-226.5 -147t-277.5 -54zM813 1245q-151 0 -279 -75t-202 -204.5t-74 -283.5t74 -283.5
t202 -204.5t279 -75t279 75t202 204.5t74 283.5t-74 283.5t-202 204.5t-279 75z" />
    <glyph glyph-name="P" unicode="P" horiz-adv-x="933" 
d="M176 1366h248q115 0 197.5 -20t146.5 -76q125 -108 125 -293q0 -60 -14.5 -114t-48 -104t-82.5 -86t-123 -57.5t-164 -21.5h-133v-594h-152v1366zM328 1223v-486h125q136 0 212 65t76 183q0 62 -22.5 108t-54.5 70t-76.5 38.5t-78 18t-69.5 3.5h-112z" />
    <glyph glyph-name="Q" unicode="Q" horiz-adv-x="1626" 
d="M1335 -14l-110 114q-183 -125 -412 -125q-146 0 -277 54t-226.5 147t-151.5 225t-56 281q0 150 56 282t151.5 225t226.5 146.5t277 53.5q145 0 276 -53.5t226.5 -146.5t152 -225t56.5 -282q0 -286 -193 -489l201 -207h-197zM983 549l240 -246q145 156 145 379
q0 154 -74.5 283.5t-202.5 204.5t-278 75q-151 0 -279 -75t-202 -204.5t-74 -283.5t74 -283.5t202 -204.5t279 -75q167 0 303 90l-330 340h197z" />
    <glyph glyph-name="R" unicode="R" horiz-adv-x="1028" 
d="M176 1366h219q221 0 332 -76q65 -43 107.5 -121.5t42.5 -181.5q0 -157 -95 -262t-250 -115l435 -610h-185l-415 598h-39v-598h-152v1366zM328 1223v-490h96q142 0 221.5 65.5t79.5 184.5q0 139 -109 201q-68 39 -196 39h-92z" />
    <glyph glyph-name="S" unicode="S" horiz-adv-x="1060" 
d="M907 1176l-121 -80q-31 63 -79 102q-63 47 -154 47q-102 0 -165.5 -58t-63.5 -153q0 -39 11.5 -66t39.5 -53q19 -19 46.5 -36.5t43.5 -25t53 -24.5l131 -57q146 -64 211 -129q98 -98 98 -248q0 -187 -122.5 -303.5t-309.5 -116.5q-184 0 -297 111q-94 91 -127 242l148 41
q14 -103 82 -174q76 -76 196 -76q132 0 203.5 79.5t71.5 190.5q0 98 -68 160q-18 17 -46 34.5t-49.5 28t-68.5 31.5l-122 57q-3 1 -20 9t-23 11l-22 11t-24 13t-22.5 14t-25 16.5t-23 17.5t-23.5 21q-47 45 -70.5 97.5t-23.5 125.5q0 157 108 255t275 98q125 0 219 -62
q83 -56 133 -151z" />
    <glyph glyph-name="T" unicode="T" horiz-adv-x="872" 
d="M844 1223h-332v-1223h-152v1223h-331v143h815v-143z" />
    <glyph glyph-name="U" unicode="U" horiz-adv-x="1323" 
d="M328 1366v-838q0 -59 2 -90t11 -81t32.5 -88.5t62.5 -71.5q41 -35 104.5 -56.5t121.5 -21.5t121 21.5t104 56.5q39 33 62.5 71.5t32.5 88.5t11 81t2 90v838h152v-879q0 -100 -17.5 -178.5t-68.5 -148.5q-63 -86 -167 -135.5t-232 -49.5t-232.5 49.5t-167.5 135.5
q-51 70 -68.5 148.5t-17.5 178.5v879h152z" />
    <glyph glyph-name="V" unicode="V" horiz-adv-x="1138" 
d="M16 1366h168l385 -1042l385 1042h168l-553 -1448z" />
    <glyph glyph-name="W" unicode="W" horiz-adv-x="1961" 
d="M16 1366h168l361 -1024l428 1094l405 -1094l400 1024h168l-574 -1438l-401 1094l-430 -1094z" />
    <glyph glyph-name="X" unicode="X" horiz-adv-x="1032" 
d="M29 0l403 707l-366 659h172l282 -514l291 514h172l-375 -659l396 -707h-173l-313 561l-317 -561h-172z" />
    <glyph glyph-name="Y" unicode="Y" horiz-adv-x="1085" 
d="M465 0v588l-449 778h177l348 -610l352 610h176l-453 -778v-588h-151z" />
    <glyph glyph-name="Z" unicode="Z" horiz-adv-x="1097" 
d="M1049 1366l-746 -1223h725v-143h-979l746 1223h-650v143h904z" />
    <glyph glyph-name="bracketleft" unicode="[" horiz-adv-x="593" 
d="M508 1358h-197v-1571h197v-135h-344v1841h344v-135z" />
    <glyph glyph-name="backslash" unicode="\" horiz-adv-x="1222" 
d="M1223 -348l-119 -58l-1063 1899l119 61z" />
    <glyph glyph-name="bracketright" unicode="]" horiz-adv-x="593" 
d="M86 -213h197v1571h-197v135h344v-1841h-344v135z" />
    <glyph glyph-name="asciicircum" unicode="^" 
d="M512 1253l-299 -505h-160l363 618h192l363 -618h-160z" />
    <glyph glyph-name="underscore" unicode="_" 
d="M0 -270v131h1024v-131h-1024z" />
    <glyph glyph-name="grave" unicode="`" 
d="M510 1018l-277 276l152 70l215 -297z" />
    <glyph glyph-name="a" unicode="a" horiz-adv-x="1077" 
d="M791 729v121h147v-850h-147v119q-112 -144 -291 -144q-82 0 -155.5 29t-132 83.5t-92.5 142t-34 196.5q0 106 34 192t92 140.5t131.5 83t156.5 28.5q183 0 291 -141zM516 739q-116 0 -197 -82.5t-81 -230.5q0 -140 74.5 -230t203.5 -90q130 0 206.5 93t76.5 225
q0 79 -25.5 141t-67 99t-90.5 56t-100 19z" />
    <glyph glyph-name="b" unicode="b" horiz-adv-x="1077" 
d="M287 119v-119h-148v1493h148v-762q111 139 291 139q128 0 224 -65.5t142.5 -166.5t46.5 -218q0 -118 -47 -218.5t-141.5 -163.5t-218.5 -63q-186 0 -297 144zM563 106q125 0 201 91t76 223q0 148 -84 233.5t-195 85.5t-196.5 -86t-85.5 -231q0 -134 78.5 -225t205.5 -91z
" />
    <glyph glyph-name="c" unicode="c" horiz-adv-x="897" 
d="M805 788v-176q-53 67 -126 97t-140 30q-126 0 -213.5 -84.5t-87.5 -232.5q0 -147 88.5 -231.5t210.5 -84.5q71 0 145 33.5t129 100.5v-177q-119 -88 -270 -88q-198 0 -326.5 126.5t-128.5 318.5q0 195 129 322.5t326 127.5q148 0 264 -82z" />
    <glyph glyph-name="d" unicode="d" horiz-adv-x="1077" 
d="M791 729v764h147v-1493h-147v119q-112 -144 -291 -144q-82 0 -155.5 29t-132 83.5t-92.5 142t-34 196.5q0 106 34 192t92 140.5t131.5 83t156.5 28.5q183 0 291 -141zM516 739q-116 0 -197 -82.5t-81 -230.5q0 -140 74.5 -230t203.5 -90q130 0 206.5 93t76.5 225
q0 79 -25.5 141t-67 99t-90.5 56t-100 19z" />
    <glyph glyph-name="e" unicode="e" horiz-adv-x="985" 
d="M770 285l123 -68q-43 -81 -105 -137q-117 -105 -282 -105q-80 0 -152.5 26t-133.5 77.5t-97.5 140t-36.5 201.5q0 195 112 322.5t300 127.5q114 0 195 -45t126 -110q39 -56 61 -145t19 -175h-661q1 -129 79 -209t191 -80q100 0 174 62q58 49 88 117zM248 518h500
q-19 100 -87.5 160.5t-162.5 60.5q-93 0 -163 -62.5t-87 -158.5z" />
    <glyph glyph-name="f" unicode="f" horiz-adv-x="491" 
d="M500 715h-209v-715h-148v715h-82v135h82v371q0 77 15.5 137t66.5 102q66 56 170 56q54 0 105 -19v-143q-47 18 -97 18q-66 0 -94 -45q-18 -31 -18 -123v-354h209v-135z" />
    <glyph glyph-name="g" unicode="g" horiz-adv-x="1077" 
d="M791 729v121h147v-830q0 -66 -2.5 -106.5t-22 -108t-57.5 -118.5q-51 -70 -139 -114t-201 -44q-188 0 -303 115q-111 111 -111 274h146q0 -104 65 -176q74 -82 205 -82q154 0 225 119q48 78 48 217v123q-112 -144 -291 -144q-176 0 -291 115q-123 123 -123 336
q0 207 123 330q55 54 130.5 84t160.5 30q182 0 291 -141zM516 739q-112 0 -192 -80q-86 -88 -86 -233q0 -161 96 -250q77 -70 182 -70q114 0 186 72q44 42 70.5 107.5t26.5 138.5t-24.5 137t-65.5 103q-75 75 -193 75z" />
    <glyph glyph-name="h" unicode="h" horiz-adv-x="962" 
d="M139 0v1493h148v-741q91 118 243 118q77 0 141.5 -30t102.5 -86q30 -44 39.5 -96t9.5 -132v-526h-147v522q0 106 -39 156q-48 61 -139 61q-95 0 -150 -65q-61 -73 -61 -230v-444h-148z" />
    <glyph glyph-name="i" unicode="i" horiz-adv-x="425" 
d="M139 850h148v-850h-148v850zM109 1171q0 43 30.5 74t73.5 31t73.5 -31t30.5 -74t-30.5 -73.5t-73.5 -30.5t-73.5 30.5t-30.5 73.5z" />
    <glyph glyph-name="j" unicode="j" horiz-adv-x="425" 
d="M139 850h148v-1321h-148v1321zM109 1171q0 43 30.5 74t73.5 31t73.5 -31t30.5 -74t-30.5 -73.5t-73.5 -30.5t-73.5 30.5t-30.5 73.5z" />
    <glyph glyph-name="k" unicode="k" horiz-adv-x="864" 
d="M139 1493h148v-958l311 315h193l-365 -365l430 -485h-192l-340 387l-37 -37v-350h-148v1493z" />
    <glyph glyph-name="l" unicode="l" horiz-adv-x="425" 
d="M139 1493h148v-1493h-148v1493z" />
    <glyph glyph-name="m" unicode="m" horiz-adv-x="1402" 
d="M139 0v850h148v-90q74 110 211 110q155 0 231 -137q87 137 256 137q277 0 277 -331v-539h-148v516q0 44 -4.5 76.5t-18.5 69.5t-46.5 57t-81.5 20q-189 0 -189 -266v-473h-147v504q0 21 -0.5 32.5t-3 39.5t-8 46t-16.5 42.5t-27 39t-41.5 25t-57.5 10.5q-186 0 -186 -276
v-463h-148z" />
    <glyph glyph-name="n" unicode="n" horiz-adv-x="962" 
d="M139 0v850h148v-98q91 118 243 118q77 0 141.5 -30t102.5 -86q30 -44 39.5 -96t9.5 -132v-526h-147v522q0 106 -39 156q-48 61 -139 61q-95 0 -150 -65q-61 -73 -61 -230v-444h-148z" />
    <glyph glyph-name="o" unicode="o" horiz-adv-x="1073" 
d="M537 -25q-194 0 -322.5 127t-128.5 320q0 194 128 321t323 127t322.5 -127t127.5 -321q0 -193 -128 -320t-322 -127zM537 739q-124 0 -211.5 -84.5t-87.5 -232.5q0 -100 43.5 -173.5t110.5 -108t145 -34.5q123 0 211 84t88 232q0 149 -87 233t-212 84z" />
    <glyph glyph-name="p" unicode="p" horiz-adv-x="1077" 
d="M287 119v-590h-148v1321h148v-119q111 139 291 139q128 0 224 -65.5t142.5 -166.5t46.5 -218q0 -118 -47 -218.5t-141.5 -163.5t-218.5 -63q-186 0 -297 144zM563 106q125 0 201 91t76 223q0 148 -84 233.5t-195 85.5t-196.5 -86t-85.5 -231q0 -134 78.5 -225t205.5 -91z
" />
    <glyph glyph-name="q" unicode="q" horiz-adv-x="1077" 
d="M791 729v121h147v-1321h-147v590q-112 -144 -291 -144q-82 0 -155.5 29t-132 83.5t-92.5 142t-34 196.5q0 106 34 192t92 140.5t131.5 83t156.5 28.5q183 0 291 -141zM516 739q-116 0 -197 -82.5t-81 -230.5q0 -140 74.5 -230t203.5 -90q130 0 206.5 93t76.5 225
q0 79 -25.5 141t-67 99t-90.5 56t-100 19z" />
    <glyph glyph-name="r" unicode="r" horiz-adv-x="606" 
d="M139 0v850h148v-92q8 13 20.5 28t36.5 36t59.5 34.5t75.5 13.5q61 0 131 -34l-69 -134q-42 29 -86 29q-77 0 -119 -53q-49 -65 -49 -229v-449h-148z" />
    <glyph glyph-name="s" unicode="s" horiz-adv-x="720" 
d="M610 717l-121 -64q-16 38 -47 62t-71 24q-43 0 -73 -24.5t-30 -71.5q0 -42 28 -64t110 -57q160 -66 212 -131q46 -56 46 -137q0 -130 -83 -204.5t-210 -74.5q-18 0 -38 2t-60.5 14t-74 33t-69 65t-55.5 104l127 53q7 -21 19 -41.5t32.5 -44.5t52 -39t68.5 -15
q67 0 103 41.5t36 94.5q0 29 -9 50t-31 38t-40.5 26.5t-56.5 26.5q-86 38 -133 65t-74 60q-39 48 -39 125q0 110 69 173.5t179 63.5q161 0 233 -153z" />
    <glyph glyph-name="t" unicode="t" horiz-adv-x="438" 
d="M438 715h-147v-715h-148v715h-90v135h90v307h148v-307h147v-135z" />
    <glyph glyph-name="u" unicode="u" horiz-adv-x="954" 
d="M287 850v-496q0 -41 1.5 -64t11 -58t28.5 -60q52 -66 149 -66q98 0 150 66q19 25 28.5 60t11 58t1.5 64v496h147v-512q0 -88 -15.5 -146.5t-62.5 -109.5q-102 -107 -260 -107t-260 107q-47 51 -62.5 109.5t-15.5 146.5v512h148z" />
    <glyph glyph-name="v" unicode="v" horiz-adv-x="868" 
d="M16 850h164l254 -574l254 574h164l-418 -905z" />
    <glyph glyph-name="w" unicode="w" horiz-adv-x="1396" 
d="M16 850h164l252 -578l266 643l265 -643l254 578h163l-422 -909l-262 634l-262 -634z" />
    <glyph glyph-name="x" unicode="x" horiz-adv-x="929" 
d="M16 0l363 455l-309 395h180l219 -289l223 289h180l-311 -397l352 -453h-180l-268 346l-268 -346h-181z" />
    <glyph glyph-name="y" unicode="y" horiz-adv-x="942" 
d="M137 -471l271 551l-392 770h168l301 -608l277 608h164l-625 -1321h-164z" />
    <glyph glyph-name="z" unicode="z" horiz-adv-x="942" 
d="M926 850l-615 -715h590v-135h-885l615 715h-496v135h791z" />
    <glyph glyph-name="braceleft" unicode="{" horiz-adv-x="1026" 
d="M563 1190v-385q0 -98 -26 -146q-31 -55 -99 -86q68 -31 99 -86q26 -48 26 -145v-387q0 -32 1.5 -51t10.5 -46t27 -44q39 -37 127 -37h31v-125h-55q-130 0 -191 41q-60 39 -79 99.5t-19 137.5v402q0 78 -27 125q-33 53 -90 57v119q57 4 90 57q27 46 27 125v399
q0 77 19 138t79 100q61 41 191 41h55v-125h-31q-88 0 -127 -37q-18 -17 -27 -44t-10.5 -46t-1.5 -51z" />
    <glyph glyph-name="bar" unicode="|" 
d="M438 -512v2048h148v-2048h-148z" />
    <glyph glyph-name="braceright" unicode="}" horiz-adv-x="1026" 
d="M463 805v385q0 32 -1.5 51t-10.5 46t-27 44q-39 37 -127 37h-31v125h56q129 0 190 -41q60 -39 79 -100t19 -138v-399q0 -79 27 -125q33 -53 90 -57v-119q-57 -4 -90 -57q-27 -47 -27 -125v-402q0 -77 -19 -137.5t-79 -99.5q-61 -41 -190 -41h-56v125h31q88 0 127 37
q18 17 27 44t10.5 46t1.5 51v387q0 97 26 145q31 55 99 86q-68 31 -99 86q-26 48 -26 146z" />
    <glyph glyph-name="asciitilde" unicode="~" 
d="M913 739l91 -53q-40 -89 -103 -149q-80 -80 -196 -80q-15 0 -30.5 2t-27 4t-29.5 7.5t-26 8t-29 11.5t-25.5 11t-28 13t-26.5 12q-57 27 -82 37.5t-56 19.5t-56 9q-60 0 -107 -41q-39 -34 -71 -107l-91 54q48 101 99 159q69 78 178 78q53 0 105 -17t126 -52
q2 -1 22.5 -11t25.5 -12t23.5 -10.5t26 -11t23.5 -8t26 -7.5t23.5 -4t24.5 -2q76 0 125 49q39 36 65 90z" />
    <glyph glyph-name="uni00A0" unicode="&#xa0;" horiz-adv-x="477" 
 />
    <glyph glyph-name="exclamdown" unicode="&#xa1;" horiz-adv-x="573" 
d="M213 618h147v-1089h-147v1089zM389 813q0 -41 -30.5 -71.5t-71.5 -30.5t-72 30.5t-31 71.5t31 71.5t72 30.5t71.5 -30.5t30.5 -71.5z" />
    <glyph glyph-name="cent" unicode="&#xa2;" horiz-adv-x="1163" 
d="M705 1341v-198q118 -15 215 -80v-176q-93 111 -215 125v-627q125 15 221 129v-176q-97 -72 -221 -86v-223h-123v227q-154 23 -260 125q-121 117 -121 313q0 197 127 324q101 101 254 121v202h123zM582 387v619q-82 -10 -142 -70q-88 -88 -88 -240q0 -145 90 -235
q57 -57 140 -74z" />
    <glyph glyph-name="sterling" unicode="&#xa3;" horiz-adv-x="1163" 
d="M1020 938h-150v20q0 145 -73 218q-65 65 -174 65q-107 0 -170 -63q-34 -32 -55 -80t-21 -101q0 -29 4.5 -56.5t19 -64t21 -52t32.5 -65.5t31 -61l29 -57h258v-115h-207q23 -62 23 -125q0 -98 -60 -192l121 -45q108 -43 144 -43q60 0 108 45q43 43 64 96l125 -74
q-36 -85 -101 -139q-84 -72 -182 -72q-84 0 -176 37l-80 31q-102 39 -154 39q-61 0 -108 -37q-23 -18 -40.5 -40.5t-21.5 -33.5l-116 80q50 76 96 113q73 61 168 61q57 85 57 176q0 64 -26 123h-230v115h176l-41 76q-46 84 -68 147t-22 137q0 76 27.5 148.5t81.5 126.5
q108 108 295 108q170 0 272 -102q54 -53 88.5 -138.5t34.5 -187.5v-18z" />
    <glyph glyph-name="currency" unicode="&#xa4;" horiz-adv-x="1200" 
d="M109 1303l194 -193q121 104 297 104t297 -104l195 193l82 -82l-195 -195q104 -121 104 -291t-104 -291l192 -192l-81 -82l-193 190q-121 -104 -297 -104t-297 104l-192 -190l-82 82l192 192q-104 121 -104 291t104 291l-194 195zM600 387q148 0 246 98t98 250t-98 250
t-246 98t-246 -98t-98 -250t98 -250t246 -98z" />
    <glyph glyph-name="yen" unicode="&#xa5;" horiz-adv-x="1163" 
d="M1061 786h-289l-104 -180h393v-114h-406v-492h-151v492h-400v114h388l-105 180h-283v115h218l-269 465h178l349 -610l352 610h178l-272 -465h223v-115z" />
    <glyph glyph-name="brokenbar" unicode="&#xa6;" 
d="M438 799v737h148v-737h-148zM438 -512v737h148v-737h-148z" />
    <glyph glyph-name="section" unicode="&#xa7;" horiz-adv-x="1163" 
d="M950 1106h-147v10q0 128 -68 193q-51 49 -133 49q-92 0 -153 -58q-60 -54 -60 -135q0 -74 53 -127q49 -49 179 -98q6 -2 33.5 -12t38 -14.5t34.5 -14t38.5 -17.5t34 -19t35.5 -23.5t31 -26.5q90 -87 90 -227q0 -122 -57 -203q-24 -34 -60.5 -65.5t-55.5 -43t-33 -18.5
q85 -42 131 -113q43 -65 43 -151q0 -145 -95 -240q-100 -100 -264 -100q-167 0 -262 102q-26 28 -44 61.5t-26.5 69t-12.5 59.5t-5.5 54.5t-1.5 32.5h147q0 -50 17.5 -104t46.5 -85q48 -55 145 -55q93 0 146 53q57 54 57 146q0 73 -49 125q-25 27 -62.5 45t-123.5 51
q-75 29 -102.5 40.5t-70.5 37.5t-71 57q-86 90 -86 238q0 100 55 186q58 87 152 125q-67 37 -113 92q-59 72 -59 166q0 155 104 252q99 92 254 92q147 0 242 -90q68 -63 88 -131t20 -156v-10zM582 797q-96 0 -160 -64t-64 -160q0 -100 64 -159q30 -28 73.5 -46t86.5 -18
q98 0 159 64q64 64 64 159q0 96 -66 162q-62 62 -157 62z" />
    <glyph glyph-name="dieresis" unicode="&#xa8;" 
d="M231 1126q0 41 31 72t72 31t71.5 -31t30.5 -72t-30.5 -71.5t-71.5 -30.5t-72 30.5t-31 71.5zM588 1126q0 41 30.5 72t71.5 31t72 -31t31 -72t-31 -71.5t-72 -30.5t-71.5 30.5t-30.5 71.5z" />
    <glyph glyph-name="copyright" unicode="&#xa9;" horiz-adv-x="1515" 
d="M51 682q0 193 96 356t258.5 257t352.5 94q142 0 272.5 -55.5t225.5 -150t151.5 -225.5t56.5 -276q0 -143 -56.5 -273.5t-151 -225t-225 -150.5t-273.5 -56q-190 0 -353 94.5t-258.5 257t-95.5 353.5zM1350 682q0 161 -79 297.5t-215.5 215.5t-297.5 79t-297.5 -79
t-215.5 -215.5t-79 -297.5q0 -160 79 -296t215.5 -215t297.5 -79t297.5 79t215.5 215t79 296zM1053 1018v-164q-50 61 -119 90t-131 29q-117 0 -200 -80.5t-83 -218.5q0 -139 84 -217t197 -78q76 0 143.5 34t114.5 91v-166q-112 -82 -254 -82q-185 0 -305.5 117t-120.5 299
q0 181 122 302.5t304 121.5q140 0 248 -78z" />
    <glyph glyph-name="ordfeminine" unicode="&#xaa;" horiz-adv-x="763" 
d="M541 1284v70h104v-545h-104v65q-29 -36 -72 -57q-50 -24 -111 -24q-121 0 -198 77q-78 78 -78 209q0 135 80 215q72 72 200 72q55 0 105 -23q50 -24 74 -59zM367 1276q-77 0 -127 -53q-26 -27 -41 -67t-15 -79q0 -85 58 -143q54 -51 127 -51q72 0 125 53t53 143
q0 88 -55 146q-51 51 -125 51zM102 682h543v-86h-543v86z" />
    <glyph glyph-name="guillemotleft" unicode="&#xab;" horiz-adv-x="880" 
d="M229 434l246 -299l-94 -74l-307 373l307 385l94 -76zM532 434l246 -299l-94 -74l-307 373l307 385l94 -76z" />
    <glyph glyph-name="logicalnot" unicode="&#xac;" 
d="M956 0h-143v416h-745v131h888v-547z" />
    <glyph glyph-name="uni00AD" unicode="&#xad;" horiz-adv-x="655" 
d="M102 360v152h451v-152h-451z" />
    <glyph glyph-name="registered" unicode="&#xae;" horiz-adv-x="1515" 
d="M55 680q0 148 54 278.5t147 223.5t223.5 146.5t278.5 53.5q198 0 358.5 -91.5t252 -252t91.5 -358.5q0 -148 -53.5 -278.5t-146.5 -223.5t-223.5 -147t-278.5 -54t-278.5 54t-223.5 147t-147 223.5t-54 278.5zM1346 680q0 166 -76.5 300.5t-211 211t-300.5 76.5
t-300.5 -76.5t-211 -211t-76.5 -300.5t76.5 -300.5t211 -211t300.5 -76.5t300.5 76.5t211 211t76.5 300.5zM1042 297h-139l-250 324v-324h-110v766h139q20 0 36 -0.5t48.5 -5t57.5 -12t55.5 -24t50.5 -39t33.5 -58t13.5 -80.5q0 -87 -55.5 -145.5t-143.5 -67.5zM653 965
v-246h45q32 0 56 3.5t52.5 15t44 37.5t15.5 65q0 35 -12 59.5t-28 37t-42 19.5t-44.5 8t-45.5 1h-41z" />
    <glyph glyph-name="macron" unicode="&#xaf;" 
d="M203 1051v123h618v-123h-618z" />
    <glyph glyph-name="degree" unicode="&#xb0;" horiz-adv-x="1009" 
d="M221 1087q0 121 80.5 202t202.5 81q121 0 201.5 -80.5t80.5 -202.5q0 -121 -80 -201.5t-202 -80.5t-202.5 80.5t-80.5 201.5zM324 1087q0 -88 56 -138t124 -50t124 50t56 138t-56 138.5t-124 50.5t-124 -50.5t-56 -138.5z" />
    <glyph glyph-name="plusminus" unicode="&#xb1;" 
d="M68 707v135h370v350h148v-350h370v-135h-370v-351h-148v351h-370zM68 137v135h888v-135h-888z" />
    <glyph glyph-name="twosuperior" unicode="&#xb2;" horiz-adv-x="716" 
d="M608 547h-542l299 346q67 79 94 119q45 68 45 125q0 62 -42.5 104.5t-113.5 42.5q-90 0 -133 -70q-25 -45 -25 -98h-102q6 110 62 178q72 84 196 84q116 0 190 -67.5t74 -175.5q0 -80 -65 -174q-34 -49 -113 -138l-158 -182h334v-94z" />
    <glyph glyph-name="threesuperior" unicode="&#xb3;" horiz-adv-x="716" 
d="M209 1153h-103q4 76 39 131q60 94 199 94q66 0 115 -21.5t74.5 -56.5t37 -70t11.5 -71q0 -26 -5.5 -54t-31.5 -68t-70 -60q43 -17 70.5 -50.5t38 -70t10.5 -78.5q0 -105 -70.5 -175.5t-189.5 -70.5q-93 0 -152 41t-84 101q-16 42 -20 96h102q3 -44 29 -82q45 -61 121 -61
q70 0 113.5 44t43.5 111q0 50 -22 84.5t-57 48.5q-42 18 -95 15v94q54 -4 95 16q28 15 47.5 46t19.5 71q0 53 -32.5 90t-98.5 37q-70 0 -104 -43q-27 -35 -31 -88z" />
    <glyph glyph-name="acute" unicode="&#xb4;" 
d="M639 1364l152 -70l-275 -276l-92 49z" />
    <glyph glyph-name="mu" unicode="&#xb5;" horiz-adv-x="1071" 
d="M287 -471h-148v1321h148v-424q0 -163 61 -242q60 -78 180 -78q68 0 122 35t85 86q49 80 49 217v406h148v-850h-148v176q-33 -90 -100 -145.5t-160 -55.5q-44 0 -83 13.5t-63.5 30.5t-45.5 41t-30 38t-15 27v-596z" />
    <glyph glyph-name="mu" unicode="&#x3bc;" horiz-adv-x="1071" 
d="M287 -471h-148v1321h148v-424q0 -163 61 -242q60 -78 180 -78q68 0 122 35t85 86q49 80 49 217v406h148v-850h-148v176q-33 -90 -100 -145.5t-160 -55.5q-44 0 -83 13.5t-63.5 30.5t-45.5 41t-30 38t-15 27v-596z" />
    <glyph glyph-name="paragraph" unicode="&#xb6;" horiz-adv-x="1187" 
d="M578 -195h-127v838h-31q-80 0 -158 29t-125 76q-92 92 -92 245q0 180 115 277q111 96 336 96h548v-119h-122v-1442h-127v1442h-217v-1442z" />
    <glyph glyph-name="periodcentered" unicode="&#xb7;" horiz-adv-x="409" 
d="M74 696q0 52 39 91.5t92 39.5t92 -39.5t39 -91.5t-39 -91.5t-92 -39.5t-92 39.5t-39 91.5z" />
    <glyph glyph-name="cedilla" unicode="&#xb8;" 
d="M545 -106l135 -56l-207 -262l-100 49z" />
    <glyph glyph-name="onesuperior" unicode="&#xb9;" horiz-adv-x="716" 
d="M340 547v725h-160l49 94h217v-819h-106z" />
    <glyph glyph-name="ordmasculine" unicode="&#xba;" horiz-adv-x="765" 
d="M383 1366q61 0 120 -23t101 -65q78 -81 78 -199q0 -113 -76 -194q-84 -88 -223 -88q-133 0 -215 82q-84 81 -84 202q0 112 76 193q88 92 223 92zM106 682h556v-86h-556v86zM383 1276q-88 0 -143 -55q-54 -54 -54 -142q0 -83 56 -139q53 -53 141 -53q38 0 78 15t67 42
q52 56 52 137q0 90 -58 144q-51 51 -139 51z" />
    <glyph glyph-name="guillemotright" unicode="&#xbb;" horiz-adv-x="880" 
d="M348 446l-246 299l95 74l307 -373l-307 -385l-95 76zM651 446l-245 299l94 74l307 -373l-307 -385l-94 76z" />
    <glyph glyph-name="onequarter" unicode="&#xbc;" horiz-adv-x="1556" 
d="M340 547v725h-160l49 94h217v-819h-106zM383 20l795 1373l77 -45l-794 -1375zM1391 864v-614h100v-94h-100v-156h-103v156h-420zM1057 250h231v317z" />
    <glyph glyph-name="onehalf" unicode="&#xbd;" horiz-adv-x="1556" 
d="M340 547v725h-160l49 94h217v-819h-106zM301 20l795 1373l78 -45l-795 -1375zM1448 0h-543l299 346q67 79 94 119q45 67 45 125q0 62 -42 104.5t-113 42.5q-91 0 -133 -69q-25 -45 -25 -99h-102q6 112 61 179q71 83 197 83q116 0 190 -67.5t74 -175.5q0 -79 -66 -174
q-38 -55 -112 -138l-158 -182h334v-94z" />
    <glyph glyph-name="threequarters" unicode="&#xbe;" horiz-adv-x="1556" 
d="M78 770h102q5 -56 41 -96q44 -47 119 -47q65 0 104 41q43 43 43 114q0 77 -51 117q-40 31 -114 31h-9v94h9q75 0 114 37q39 35 39 96t-39 96q-36 31 -92 31q-61 0 -92 -31q-39 -34 -43 -100h-103q3 95 66 162q59 63 176 63q113 0 174 -65q60 -64 60 -154q0 -61 -25 -106
q-28 -52 -82 -76q60 -27 88 -74q31 -47 31 -125q0 -101 -68 -172q-71 -74 -190 -74q-126 0 -195 74q-60 64 -63 164zM424 20l795 1373l77 -45l-794 -1375zM1391 864v-614h100v-94h-100v-156h-103v156h-420zM1057 250h231v317z" />
    <glyph glyph-name="questiondown" unicode="&#xbf;" horiz-adv-x="892" 
d="M301 301h-147q0 144 84 231q77 82 211 82q131 0 213 -82q81 -81 81 -210q0 -176 -172 -254q-42 -19 -103 -37t-69 -21q-131 -47 -131 -180q0 -94 54 -143q49 -43 124 -43q83 0 129 43q26 25 40 63t14 74q0 42 -13 86h152q8 -39 8 -90q0 -138 -78 -221q-88 -95 -249 -95
q-154 0 -242 88q-90 90 -90 242q0 122 69 201q56 63 158 102q15 5 45.5 14t55.5 18t47 19q100 45 100 144q0 65 -41 106q-37 37 -100 37q-64 0 -101 -37q-23 -23 -36 -61t-13 -76zM549 813q0 -41 -31 -71.5t-72 -30.5t-71.5 30.5t-30.5 71.5t30.5 71.5t71.5 30.5t72 -30.5
t31 -71.5z" />
    <glyph glyph-name="Agrave" unicode="&#xc0;" horiz-adv-x="1273" 
d="M1090 0l-160 385h-582l-164 -385h-168l629 1432l612 -1432h-167zM408 528h462l-229 547zM657 1475l-313 239l143 92l258 -266z" />
    <glyph glyph-name="Aacute" unicode="&#xc1;" horiz-adv-x="1273" 
d="M1090 0l-160 385h-582l-164 -385h-168l629 1432l612 -1432h-167zM408 528h462l-229 547zM805 1806l143 -92l-313 -239l-88 65z" />
    <glyph glyph-name="Acircumflex" unicode="&#xc2;" horiz-adv-x="1273" 
d="M1090 0l-160 385h-582l-164 -385h-168l629 1432l612 -1432h-167zM408 528h462l-229 547zM643 1632l-180 -155l-107 84l287 243l287 -243l-107 -84z" />
    <glyph glyph-name="Atilde" unicode="&#xc3;" horiz-adv-x="1273" 
d="M1090 0l-160 385h-582l-164 -385h-168l629 1432l612 -1432h-167zM408 528h462l-229 547zM866 1724l88 -71q-18 -49 -53 -84q-61 -64 -143 -64q-23 0 -47 6.5t-40 14t-50 24.5q-84 41 -115 41q-36 0 -62 -26q-26 -29 -34 -64l-91 74q19 52 62 92q55 55 129 55
q51 0 139 -43q84 -43 115 -43q36 0 65 29q25 25 37 59z" />
    <glyph glyph-name="Adieresis" unicode="&#xc4;" horiz-adv-x="1273" 
d="M1090 0l-160 385h-582l-164 -385h-168l629 1432l612 -1432h-167zM408 528h462l-229 547zM344 1606q0 43 31 73.5t74 30.5t73.5 -30.5t30.5 -73.5t-30.5 -74t-73.5 -31t-74 31t-31 74zM733 1606q0 43 31 73.5t74 30.5t73.5 -30.5t30.5 -73.5t-30.5 -74t-73.5 -31t-74 31
t-31 74z" />
    <glyph glyph-name="Aring" unicode="&#xc5;" horiz-adv-x="1273" 
d="M1090 0l-160 385h-582l-164 -385h-168l629 1432l612 -1432h-167zM408 528h462l-229 547zM465 1675q0 73 53.5 126.5t126.5 53.5t126.5 -53.5t53.5 -126.5t-53.5 -126.5t-126.5 -53.5t-126.5 53.5t-53.5 126.5zM559 1677q0 -34 26 -60t60 -26t60 26t26 60t-26 60t-60 26
t-60 -26t-26 -60z" />
    <glyph glyph-name="AE" unicode="&#xc6;" horiz-adv-x="1843" 
d="M1102 0l-162 383h-582l-161 -383h-168l608 1366h600l59 -143h-551l170 -406h541l60 -143h-537l221 -531h555l60 -143h-713zM424 526h457l-226 535z" />
    <glyph glyph-name="Ccedilla" unicode="&#xc7;" horiz-adv-x="1323" 
d="M1221 1253v-188q-81 81 -179 127q-116 53 -235 53q-154 0 -280.5 -76t-197.5 -206.5t-71 -286.5q0 -107 33.5 -199.5t88.5 -157t127 -110.5t149 -68t153 -22q131 0 254 63q86 43 158 115v-188q-187 -134 -412 -134q-200 0 -362 93t-253.5 254t-91.5 356q0 151 54.5 283
t149 226t227.5 148t284 54q226 0 404 -136zM745 -106l144 -62l-213 -262l-103 53z" />
    <glyph glyph-name="Egrave" unicode="&#xc8;" horiz-adv-x="987" 
d="M885 1366v-143h-557v-406h540v-143h-540v-531h557v-143h-709v1366h709zM555 1475l-313 239l143 92l258 -266z" />
    <glyph glyph-name="Eacute" unicode="&#xc9;" horiz-adv-x="987" 
d="M885 1366v-143h-557v-406h540v-143h-540v-531h557v-143h-709v1366h709zM680 1806l143 -92l-313 -239l-88 65z" />
    <glyph glyph-name="Ecircumflex" unicode="&#xca;" horiz-adv-x="987" 
d="M885 1366v-143h-557v-406h540v-143h-540v-531h557v-143h-709v1366h709zM532 1632l-180 -155l-106 84l286 243l287 -243l-106 -84z" />
    <glyph glyph-name="Edieresis" unicode="&#xcb;" horiz-adv-x="987" 
d="M885 1366v-143h-557v-406h540v-143h-540v-531h557v-143h-709v1366h709zM233 1606q0 43 31 73.5t74 30.5t73.5 -30.5t30.5 -73.5t-30.5 -74t-73.5 -31t-74 31t-31 74zM623 1606q0 43 30.5 73.5t73.5 30.5t73.5 -30.5t30.5 -73.5t-30.5 -74t-73.5 -31t-73.5 31t-30.5 74z
" />
    <glyph glyph-name="Igrave" unicode="&#xcc;" horiz-adv-x="503" 
d="M176 1366h152v-1366h-152v1366zM256 1475l-313 239l143 92l258 -266z" />
    <glyph glyph-name="Iacute" unicode="&#xcd;" horiz-adv-x="503" 
d="M176 1366h152v-1366h-152v1366zM436 1806l144 -92l-314 -239l-88 65z" />
    <glyph glyph-name="Icircumflex" unicode="&#xce;" horiz-adv-x="503" 
d="M174 1366h152v-1366h-152v1366zM252 1632l-180 -155l-107 84l287 243l287 -243l-107 -84z" />
    <glyph glyph-name="Idieresis" unicode="&#xcf;" horiz-adv-x="503" 
d="M176 1366h152v-1366h-152v1366zM31 1606q0 43 26.5 73.5t65.5 30.5t65.5 -31t26.5 -73t-26.5 -73.5t-65.5 -31.5t-65.5 31t-26.5 74zM289 1606q0 42 26.5 73t65.5 31t65.5 -30.5t26.5 -73.5t-26.5 -74t-65.5 -31t-65.5 31.5t-26.5 73.5z" />
    <glyph glyph-name="Eth" unicode="&#xd0;" horiz-adv-x="1294" 
d="M176 0v688h-176v131h176v547h279q62 0 114.5 -5t121.5 -20t137.5 -49t129.5 -86q104 -86 169 -218.5t65 -305.5q0 -318 -240 -524q-98 -83 -210 -120.5t-289 -37.5h-277zM328 1223v-404h278v-131h-278v-545h133q244 0 391 123q184 155 184 416q0 246 -157.5 393.5
t-417.5 147.5h-133z" />
    <glyph glyph-name="Ntilde" unicode="&#xd1;" horiz-adv-x="1568" 
d="M328 0h-152v1423l1065 -1116v1059h152v-1427l-1065 1116v-1055zM1014 1724l88 -71q-18 -49 -53 -84q-61 -64 -144 -64q-23 0 -47 6.5t-40 14t-50 24.5q-84 41 -115 41q-35 0 -61 -26q-27 -31 -35 -64l-90 74q19 53 61 92q55 55 129 55q52 0 140 -43q3 -2 16.5 -8.5
t17.5 -9t15.5 -8t17.5 -7.5t15.5 -5t17 -4t14.5 -1q37 0 66 29q25 25 37 59z" />
    <glyph glyph-name="Ograve" unicode="&#xd2;" horiz-adv-x="1626" 
d="M813 -25q-146 0 -277.5 54t-226.5 147t-151 225t-56 281q0 150 56 282t151.5 225t226.5 146.5t277 53.5t277 -53.5t226.5 -146.5t151.5 -225t56 -282q0 -149 -56 -281t-151 -225t-226.5 -147t-277.5 -54zM813 1245q-151 0 -279 -75t-202 -204.5t-74 -283.5t74 -283.5
t202 -204.5t279 -75t279 75t202 204.5t74 283.5t-74 283.5t-202 204.5t-279 75zM842 1475l-314 239l144 92l258 -266z" />
    <glyph glyph-name="Oacute" unicode="&#xd3;" horiz-adv-x="1626" 
d="M813 -25q-146 0 -277.5 54t-226.5 147t-151 225t-56 281q0 150 56 282t151.5 225t226.5 146.5t277 53.5t277 -53.5t226.5 -146.5t151.5 -225t56 -282q0 -149 -56 -281t-151 -225t-226.5 -147t-277.5 -54zM813 1245q-151 0 -279 -75t-202 -204.5t-74 -283.5t74 -283.5
t202 -204.5t279 -75t279 75t202 204.5t74 283.5t-74 283.5t-202 204.5t-279 75zM946 1806l144 -92l-314 -239l-88 65z" />
    <glyph glyph-name="Ocircumflex" unicode="&#xd4;" horiz-adv-x="1626" 
d="M813 -25q-146 0 -277.5 54t-226.5 147t-151 225t-56 281q0 150 56 282t151.5 225t226.5 146.5t277 53.5t277 -53.5t226.5 -146.5t151.5 -225t56 -282q0 -149 -56 -281t-151 -225t-226.5 -147t-277.5 -54zM813 1245q-151 0 -279 -75t-202 -204.5t-74 -283.5t74 -283.5
t202 -204.5t279 -75t279 75t202 204.5t74 283.5t-74 283.5t-202 204.5t-279 75zM813 1632l-180 -155l-107 84l287 243l287 -243l-107 -84z" />
    <glyph glyph-name="Otilde" unicode="&#xd5;" horiz-adv-x="1626" 
d="M813 -25q-146 0 -277.5 54t-226.5 147t-151 225t-56 281q0 150 56 282t151.5 225t226.5 146.5t277 53.5t277 -53.5t226.5 -146.5t151.5 -225t56 -282q0 -149 -56 -281t-151 -225t-226.5 -147t-277.5 -54zM813 1245q-151 0 -279 -75t-202 -204.5t-74 -283.5t74 -283.5
t202 -204.5t279 -75t279 75t202 204.5t74 283.5t-74 283.5t-202 204.5t-279 75zM1042 1724l88 -71q-18 -49 -53 -84q-61 -64 -143 -64q-23 0 -47 6.5t-40 14t-50 24.5q-84 41 -115 41q-35 0 -61 -26q-27 -31 -35 -64l-90 74q19 53 61 92q55 55 129 55q51 0 139 -43
q84 -43 115 -43q37 0 66 29q24 24 36 59z" />
    <glyph glyph-name="Odieresis" unicode="&#xd6;" horiz-adv-x="1626" 
d="M813 -25q-146 0 -277.5 54t-226.5 147t-151 225t-56 281q0 150 56 282t151.5 225t226.5 146.5t277 53.5t277 -53.5t226.5 -146.5t151.5 -225t56 -282q0 -149 -56 -281t-151 -225t-226.5 -147t-277.5 -54zM813 1245q-151 0 -279 -75t-202 -204.5t-74 -283.5t74 -283.5
t202 -204.5t279 -75t279 75t202 204.5t74 283.5t-74 283.5t-202 204.5t-279 75zM514 1606q0 43 30.5 73.5t73.5 30.5t74 -30.5t31 -73.5t-31 -74t-74 -31t-73.5 31t-30.5 74zM903 1606q0 43 31 73.5t74 30.5t73.5 -30.5t30.5 -73.5t-30.5 -74t-73.5 -31t-74 31t-31 74z" />
    <glyph glyph-name="multiply" unicode="&#xd7;" 
d="M123 389l293 293l-305 305l96 96l305 -305l305 305l96 -96l-305 -305l293 -293l-96 -96l-293 293l-293 -293z" />
    <glyph glyph-name="Oslash" unicode="&#xd8;" horiz-adv-x="1626" 
d="M1524 1300l-162 -163q162 -193 162 -455q0 -149 -56 -281t-151.5 -225t-226.5 -147t-277 -54q-266 0 -457 160l-163 -162l-103 103l164 162q-152 194 -152 444q0 150 56.5 282t152 225t226.5 146.5t276 53.5q251 0 447 -150l161 164zM373 340l768 797q-139 108 -328 108
q-151 0 -279 -75t-202 -204.5t-74 -283.5q0 -195 115 -342zM1245 1036l-772 -800q152 -117 340 -117q150 0 278 75t202.5 204.5t74.5 283.5q0 202 -123 354z" />
    <glyph glyph-name="Ugrave" unicode="&#xd9;" horiz-adv-x="1323" 
d="M328 1366v-838q0 -59 2 -90t11 -81t32.5 -88.5t62.5 -71.5q41 -35 104.5 -56.5t121.5 -21.5t121 21.5t104 56.5q39 33 62.5 71.5t32.5 88.5t11 81t2 90v838h152v-879q0 -100 -17.5 -178.5t-68.5 -148.5q-63 -86 -167 -135.5t-232 -49.5t-232.5 49.5t-167.5 135.5
q-51 70 -68.5 148.5t-17.5 178.5v879h152zM678 1475l-313 239l143 92l258 -266z" />
    <glyph glyph-name="Uacute" unicode="&#xda;" horiz-adv-x="1323" 
d="M328 1366v-838q0 -59 2 -90t11 -81t32.5 -88.5t62.5 -71.5q41 -35 104.5 -56.5t121.5 -21.5t121 21.5t104 56.5q39 33 62.5 71.5t32.5 88.5t11 81t2 90v838h152v-879q0 -100 -17.5 -178.5t-68.5 -148.5q-63 -86 -167 -135.5t-232 -49.5t-232.5 49.5t-167.5 135.5
q-51 70 -68.5 148.5t-17.5 178.5v879h152zM815 1806l143 -92l-313 -239l-88 65z" />
    <glyph glyph-name="Ucircumflex" unicode="&#xdb;" horiz-adv-x="1323" 
d="M328 1366v-838q0 -59 2 -90t11 -81t32.5 -88.5t62.5 -71.5q41 -35 104.5 -56.5t121.5 -21.5t121 21.5t104 56.5q39 33 62.5 71.5t32.5 88.5t11 81t2 90v838h152v-879q0 -100 -17.5 -178.5t-68.5 -148.5q-63 -86 -167 -135.5t-232 -49.5t-232.5 49.5t-167.5 135.5
q-51 70 -68.5 148.5t-17.5 178.5v879h152zM662 1632l-181 -155l-106 84l287 243l286 -243l-106 -84z" />
    <glyph glyph-name="Udieresis" unicode="&#xdc;" horiz-adv-x="1323" 
d="M328 1366v-838q0 -59 2 -90t11 -81t32.5 -88.5t62.5 -71.5q41 -35 104.5 -56.5t121.5 -21.5t121 21.5t104 56.5q39 33 62.5 71.5t32.5 88.5t11 81t2 90v838h152v-879q0 -100 -17.5 -178.5t-68.5 -148.5q-63 -86 -167 -135.5t-232 -49.5t-232.5 49.5t-167.5 135.5
q-51 70 -68.5 148.5t-17.5 178.5v879h152zM362 1606q0 43 31 73.5t74 30.5t73.5 -30.5t30.5 -73.5t-30.5 -74t-73.5 -31t-74 31t-31 74zM752 1606q0 43 30.5 73.5t73.5 30.5t74 -30.5t31 -73.5t-31 -74t-74 -31t-73.5 31t-30.5 74z" />
    <glyph glyph-name="Yacute" unicode="&#xdd;" horiz-adv-x="1085" 
d="M465 0v588l-449 778h177l348 -610l352 610h176l-453 -778v-588h-151zM711 1806l143 -92l-313 -239l-88 65z" />
    <glyph glyph-name="Thorn" unicode="&#xde;" horiz-adv-x="933" 
d="M176 1366h152v-205h96q115 0 197.5 -20t146.5 -76q68 -59 96.5 -137t28.5 -156q0 -60 -14.5 -114t-48 -104t-82.5 -86t-123 -57.5t-164 -21.5h-133v-389h-152v1366zM328 1018v-486h125q136 0 212 65t76 183q0 62 -22.5 108t-54.5 70t-76.5 38.5t-78 18t-69.5 3.5h-112z
" />
    <glyph glyph-name="germandbls" unicode="&#xdf;" horiz-adv-x="1089" 
d="M303 0h-147v715h-144v135h144v274q0 193 100 295q95 99 258 99q162 0 262 -103q92 -94 92 -241q0 -113 -45 -185q-43 -69 -112 -102q112 -39 180 -113q113 -117 113 -295q0 -201 -136 -340q-62 -64 -159.5 -112t-223.5 -52v144q82 6 154 39.5t119 81.5q90 94 90 231
q0 146 -98 240q-101 96 -265 100v131q48 0 98.5 18.5t82.5 51.5q51 56 51 151q0 118 -62 176q-51 47 -141 47q-110 0 -164 -77q-21 -29 -32 -74t-13 -79.5t-2 -88.5v-1067z" />
    <glyph glyph-name="agrave" unicode="&#xe0;" horiz-adv-x="1077" 
d="M791 729v121h147v-850h-147v119q-112 -144 -291 -144q-82 0 -155.5 29t-132 83.5t-92.5 142t-34 196.5q0 106 34 192t92 140.5t131.5 83t156.5 28.5q183 0 291 -141zM516 739q-116 0 -197 -82.5t-81 -230.5q0 -140 74.5 -230t203.5 -90q130 0 206.5 93t76.5 225
q0 79 -25.5 141t-67 99t-90.5 56t-100 19zM510 1018l-277 276l152 70l215 -297z" />
    <glyph glyph-name="aacute" unicode="&#xe1;" horiz-adv-x="1077" 
d="M791 729v121h147v-850h-147v119q-112 -144 -291 -144q-82 0 -155.5 29t-132 83.5t-92.5 142t-34 196.5q0 106 34 192t92 140.5t131.5 83t156.5 28.5q183 0 291 -141zM516 739q-116 0 -197 -82.5t-81 -230.5q0 -140 74.5 -230t203.5 -90q130 0 206.5 93t76.5 225
q0 79 -25.5 141t-67 99t-90.5 56t-100 19zM639 1364l152 -70l-275 -276l-92 49z" />
    <glyph glyph-name="acircumflex" unicode="&#xe2;" horiz-adv-x="1077" 
d="M791 729v121h147v-850h-147v119q-112 -144 -291 -144q-82 0 -155.5 29t-132 83.5t-92.5 142t-34 196.5q0 106 34 192t92 140.5t131.5 83t156.5 28.5q183 0 291 -141zM516 739q-116 0 -197 -82.5t-81 -230.5q0 -140 74.5 -230t203.5 -90q130 0 206.5 93t76.5 225
q0 79 -25.5 141t-67 99t-90.5 56t-100 19zM524 1184l-188 -166l-94 74l282 247l283 -247l-94 -74z" />
    <glyph glyph-name="atilde" unicode="&#xe3;" horiz-adv-x="1077" 
d="M791 729v121h147v-850h-147v119q-112 -144 -291 -144q-82 0 -155.5 29t-132 83.5t-92.5 142t-34 196.5q0 106 34 192t92 140.5t131.5 83t156.5 28.5q183 0 291 -141zM516 739q-116 0 -197 -82.5t-81 -230.5q0 -140 74.5 -230t203.5 -90q130 0 206.5 93t76.5 225
q0 79 -25.5 141t-67 99t-90.5 56t-100 19zM336 1018l-86 69q33 57 69 93q52 49 117 49q64 0 144 -41q32 -17 44 -23t32 -12t38 -6q38 0 60 24q26 29 43 64l84 -70q-15 -41 -54 -80q-59 -61 -135 -61q-48 0 -141 43q-83 39 -113 39t-59 -29q-23 -23 -43 -59z" />
    <glyph glyph-name="adieresis" unicode="&#xe4;" horiz-adv-x="1077" 
d="M791 729v121h147v-850h-147v119q-112 -144 -291 -144q-82 0 -155.5 29t-132 83.5t-92.5 142t-34 196.5q0 106 34 192t92 140.5t131.5 83t156.5 28.5q183 0 291 -141zM516 739q-116 0 -197 -82.5t-81 -230.5q0 -140 74.5 -230t203.5 -90q130 0 206.5 93t76.5 225
q0 79 -25.5 141t-67 99t-90.5 56t-100 19zM266 1126q0 41 31 72t72 31t71.5 -31t30.5 -72t-30.5 -71.5t-71.5 -30.5t-72 30.5t-31 71.5zM623 1126q0 41 30.5 72t71.5 31t71.5 -31t30.5 -72t-30.5 -71.5t-71.5 -30.5t-71.5 30.5t-30.5 71.5z" />
    <glyph glyph-name="aring" unicode="&#xe5;" horiz-adv-x="1077" 
d="M791 729v121h147v-850h-147v119q-112 -144 -291 -144q-82 0 -155.5 29t-132 83.5t-92.5 142t-34 196.5q0 106 34 192t92 140.5t131.5 83t156.5 28.5q183 0 291 -141zM516 739q-116 0 -197 -82.5t-81 -230.5q0 -140 74.5 -230t203.5 -90q130 0 206.5 93t76.5 225
q0 79 -25.5 141t-67 99t-90.5 56t-100 19zM373 1194q0 72 52 124t124 52t124 -52t52 -124t-52 -124t-124 -52t-124 52t-52 124zM463 1194q0 -34 26 -60t60 -26t60 26t26 60t-26 60t-60 26t-60 -26t-26 -60z" />
    <glyph glyph-name="ae" unicode="&#xe6;" horiz-adv-x="1585" 
d="M1366 287l123 -74q-24 -45 -55 -83.5t-77 -75.5t-110.5 -58t-140.5 -21q-218 0 -334 170q-96 -170 -319 -170q-158 0 -262.5 72t-104.5 205q0 132 100 206t254 74q144 0 244 -71q4 110 -39 180q-57 98 -203 98q-112 0 -262 -53v139q137 45 264 45q240 0 322 -172
q52 84 138 128t190 44q186 0 295.5 -125t109.5 -335v-15h-663q4 -125 81 -207t187 -82q85 0 154 51t108 130zM846 518h502q-13 102 -83.5 161.5t-168.5 59.5q-95 0 -164 -59t-86 -162zM453 401q-105 0 -162.5 -42t-57.5 -107q0 -25 10.5 -49t33.5 -46.5t67.5 -36.5
t104.5 -14q116 0 171.5 46.5t55.5 105.5q0 54 -54.5 98.5t-168.5 44.5z" />
    <glyph glyph-name="ccedilla" unicode="&#xe7;" horiz-adv-x="897" 
d="M805 788v-176q-53 67 -126 97t-140 30q-126 0 -213.5 -84.5t-87.5 -232.5q0 -147 88.5 -231.5t210.5 -84.5q71 0 145 33.5t129 100.5v-177q-119 -88 -270 -88q-198 0 -326.5 126.5t-128.5 318.5q0 195 129 322.5t326 127.5q148 0 264 -82zM504 -106l135 -56l-207 -262
l-100 49z" />
    <glyph glyph-name="egrave" unicode="&#xe8;" horiz-adv-x="985" 
d="M770 285l123 -68q-43 -81 -105 -137q-117 -105 -282 -105q-80 0 -152.5 26t-133.5 77.5t-97.5 140t-36.5 201.5q0 195 112 322.5t300 127.5q114 0 195 -45t126 -110q39 -56 61 -145t19 -175h-661q1 -129 79 -209t191 -80q100 0 174 62q58 49 88 117zM248 518h500
q-19 100 -87.5 160.5t-162.5 60.5q-93 0 -163 -62.5t-87 -158.5zM510 1018l-277 276l152 70l215 -297z" />
    <glyph glyph-name="eacute" unicode="&#xe9;" horiz-adv-x="985" 
d="M770 285l123 -68q-43 -81 -105 -137q-117 -105 -282 -105q-80 0 -152.5 26t-133.5 77.5t-97.5 140t-36.5 201.5q0 195 112 322.5t300 127.5q114 0 195 -45t126 -110q39 -56 61 -145t19 -175h-661q1 -129 79 -209t191 -80q100 0 174 62q58 49 88 117zM248 518h500
q-19 100 -87.5 160.5t-162.5 60.5q-93 0 -163 -62.5t-87 -158.5zM598 1364l152 -70l-275 -276l-92 49z" />
    <glyph glyph-name="ecircumflex" unicode="&#xea;" horiz-adv-x="985" 
d="M770 285l123 -68q-43 -81 -105 -137q-117 -105 -282 -105q-80 0 -152.5 26t-133.5 77.5t-97.5 140t-36.5 201.5q0 195 112 322.5t300 127.5q114 0 195 -45t126 -110q39 -56 61 -145t19 -175h-661q1 -129 79 -209t191 -80q100 0 174 62q58 49 88 117zM248 518h500
q-19 100 -87.5 160.5t-162.5 60.5q-93 0 -163 -62.5t-87 -158.5zM496 1184l-189 -166l-94 74l283 247l282 -247l-94 -74z" />
    <glyph glyph-name="edieresis" unicode="&#xeb;" horiz-adv-x="985" 
d="M770 285l123 -68q-43 -81 -105 -137q-117 -105 -282 -105q-80 0 -152.5 26t-133.5 77.5t-97.5 140t-36.5 201.5q0 195 112 322.5t300 127.5q114 0 195 -45t126 -110q39 -56 61 -145t19 -175h-661q1 -129 79 -209t191 -80q100 0 174 62q58 49 88 117zM248 518h500
q-19 100 -87.5 160.5t-162.5 60.5q-93 0 -163 -62.5t-87 -158.5zM215 1126q0 41 30.5 72t71.5 31t72 -31t31 -72t-31 -71.5t-72 -30.5t-71.5 30.5t-30.5 71.5zM571 1126q0 41 31 72t72 31t71.5 -31t30.5 -72t-30.5 -71.5t-71.5 -30.5t-72 30.5t-31 71.5z" />
    <glyph glyph-name="igrave" unicode="&#xec;" horiz-adv-x="425" 
d="M139 850h148v-850h-148v850zM223 1010l-252 301l158 55l186 -313z" />
    <glyph glyph-name="iacute" unicode="&#xed;" horiz-adv-x="425" 
d="M139 850h148v-850h-148v850zM297 1366l158 -55l-252 -301l-97 43z" />
    <glyph glyph-name="icircumflex" unicode="&#xee;" horiz-adv-x="425" 
d="M139 850h148v-850h-148v850zM213 1171l-154 -137l-88 72l242 217l242 -217l-88 -72z" />
    <glyph glyph-name="idieresis" unicode="&#xef;" horiz-adv-x="425" 
d="M139 850h148v-850h-148v850zM-68 1126q0 41 31 72t72 31t71.5 -31t30.5 -72t-30.5 -71.5t-71.5 -30.5t-72 30.5t-31 71.5zM289 1126q0 41 30.5 72t71.5 31t72 -31t31 -72t-31 -71.5t-72 -30.5t-71.5 30.5t-30.5 71.5z" />
    <glyph glyph-name="eth" unicode="&#xf0;" horiz-adv-x="1073" 
d="M170 1253l35 125q235 -20 432 -145l264 86l37 -111l-195 -63q93 -80 152 -199q92 -184 92 -430q0 -196 -72 -323q-55 -97 -149 -157.5t-229 -60.5q-195 0 -326 131q-125 129 -125 328q0 209 133 342q119 119 305 119q165 0 277 -100q-21 81 -76 161q-57 81 -131 140
l-367 -121l-37 110l275 91q-126 59 -295 77zM836 446q0 76 -27.5 140.5t-71.5 105.5q-75 72 -194 72q-121 0 -207 -82q-98 -91 -98 -252q0 -148 94 -240q87 -84 205 -84t198 80q50 48 75.5 117t25.5 143z" />
    <glyph glyph-name="ntilde" unicode="&#xf1;" horiz-adv-x="962" 
d="M139 0v850h148v-98q91 118 243 118q77 0 141.5 -30t102.5 -86q30 -44 39.5 -96t9.5 -132v-526h-147v522q0 106 -39 156q-48 61 -139 61q-95 0 -150 -65q-61 -73 -61 -230v-444h-148zM242 1018l-86 69q33 57 69 93q52 49 117 49q63 0 143 -41q31 -16 44 -22.5t32.5 -12.5
t38.5 -6q37 0 59 24q26 29 43 64l84 -70q-16 -43 -53 -80q-59 -61 -135 -61q-48 0 -141 43q-83 39 -113 39t-59 -29q-23 -23 -43 -59z" />
    <glyph glyph-name="ograve" unicode="&#xf2;" horiz-adv-x="1073" 
d="M537 -25q-194 0 -322.5 127t-128.5 320q0 194 128 321t323 127t322.5 -127t127.5 -321q0 -193 -128 -320t-322 -127zM537 739q-124 0 -211.5 -84.5t-87.5 -232.5q0 -100 43.5 -173.5t110.5 -108t145 -34.5q123 0 211 84t88 232q0 149 -87 233t-212 84zM535 1018l-277 276
l152 70l215 -297z" />
    <glyph glyph-name="oacute" unicode="&#xf3;" horiz-adv-x="1073" 
d="M537 -25q-194 0 -322.5 127t-128.5 320q0 194 128 321t323 127t322.5 -127t127.5 -321q0 -193 -128 -320t-322 -127zM537 739q-124 0 -211.5 -84.5t-87.5 -232.5q0 -100 43.5 -173.5t110.5 -108t145 -34.5q123 0 211 84t88 232q0 149 -87 233t-212 84zM664 1364l151 -70
l-274 -276l-92 49z" />
    <glyph glyph-name="ocircumflex" unicode="&#xf4;" horiz-adv-x="1073" 
d="M537 -25q-194 0 -322.5 127t-128.5 320q0 194 128 321t323 127t322.5 -127t127.5 -321q0 -193 -128 -320t-322 -127zM537 739q-124 0 -211.5 -84.5t-87.5 -232.5q0 -100 43.5 -173.5t110.5 -108t145 -34.5q123 0 211 84t88 232q0 149 -87 233t-212 84zM537 1184
l-189 -166l-94 74l283 247l282 -247l-94 -74z" />
    <glyph glyph-name="otilde" unicode="&#xf5;" horiz-adv-x="1073" 
d="M537 -25q-194 0 -322.5 127t-128.5 320q0 194 128 321t323 127t322.5 -127t127.5 -321q0 -193 -128 -320t-322 -127zM537 739q-124 0 -211.5 -84.5t-87.5 -232.5q0 -100 43.5 -173.5t110.5 -108t145 -34.5q123 0 211 84t88 232q0 149 -87 233t-212 84zM307 1018l-86 69
q32 55 70 93q52 49 117 49q63 0 143 -41q31 -16 44 -22.5t32.5 -12.5t38.5 -6q37 0 59 24q26 29 43 64l84 -70q-16 -43 -53 -80q-59 -61 -135 -61q-49 0 -142 43q-83 39 -112 39q-31 0 -60 -29q-23 -23 -43 -59z" />
    <glyph glyph-name="odieresis" unicode="&#xf6;" horiz-adv-x="1073" 
d="M537 -25q-194 0 -322.5 127t-128.5 320q0 194 128 321t323 127t322.5 -127t127.5 -321q0 -193 -128 -320t-322 -127zM537 739q-124 0 -211.5 -84.5t-87.5 -232.5q0 -100 43.5 -173.5t110.5 -108t145 -34.5q123 0 211 84t88 232q0 149 -87 233t-212 84zM256 1126
q0 41 30.5 72t71.5 31t72 -31t31 -72t-31 -71.5t-72 -30.5t-71.5 30.5t-30.5 71.5zM612 1126q0 41 31 72t72 31t71.5 -31t30.5 -72t-30.5 -71.5t-71.5 -30.5t-72 30.5t-31 71.5z" />
    <glyph glyph-name="divide" unicode="&#xf7;" 
d="M412 1055q0 41 29.5 70.5t70.5 29.5t70.5 -29.5t29.5 -70.5t-29.5 -71t-70.5 -30t-70.5 30t-29.5 71zM412 309q0 41 29.5 71t70.5 30t70.5 -30t29.5 -71t-29.5 -70.5t-70.5 -29.5t-70.5 29.5t-29.5 70.5zM68 614v136h888v-136h-888z" />
    <glyph glyph-name="oslash" unicode="&#xf8;" horiz-adv-x="1073" 
d="M1018 819l-121 -121q90 -112 90 -276q0 -194 -128 -320.5t-322 -126.5q-160 0 -275 86l-125 -122l-94 92l125 123q-82 114 -82 268q0 194 128.5 321t322.5 127q158 0 266 -82l125 123zM276 254l424 438q-71 47 -163 47q-125 0 -212 -84t-87 -233q0 -94 38 -168zM791 598
l-424 -438q75 -54 170 -54q124 0 211.5 83.5t87.5 232.5q0 97 -45 176z" />
    <glyph glyph-name="ugrave" unicode="&#xf9;" horiz-adv-x="954" 
d="M287 850v-496q0 -41 1.5 -64t11 -58t28.5 -60q52 -66 149 -66q98 0 150 66q19 25 28.5 60t11 58t1.5 64v496h147v-512q0 -88 -15.5 -146.5t-62.5 -109.5q-102 -107 -260 -107t-260 107q-47 51 -62.5 109.5t-15.5 146.5v512h148zM489 1018l-276 276l152 70l215 -297z" />
    <glyph glyph-name="uacute" unicode="&#xfa;" horiz-adv-x="954" 
d="M287 850v-496q0 -41 1.5 -64t11 -58t28.5 -60q52 -66 149 -66q98 0 150 66q19 25 28.5 60t11 58t1.5 64v496h147v-512q0 -88 -15.5 -146.5t-62.5 -109.5q-102 -107 -260 -107t-260 107q-47 51 -62.5 109.5t-15.5 146.5v512h148zM586 1364l151 -70l-274 -276l-92 49z" />
    <glyph glyph-name="ucircumflex" unicode="&#xfb;" horiz-adv-x="954" 
d="M287 850v-496q0 -41 1.5 -64t11 -58t28.5 -60q52 -66 149 -66q98 0 150 66q19 25 28.5 60t11 58t1.5 64v496h147v-512q0 -88 -15.5 -146.5t-62.5 -109.5q-102 -107 -260 -107t-260 107q-47 51 -62.5 109.5t-15.5 146.5v512h148zM477 1184l-188 -166l-94 74l282 247
l283 -247l-94 -74z" />
    <glyph glyph-name="udieresis" unicode="&#xfc;" horiz-adv-x="954" 
d="M287 850v-496q0 -41 1.5 -64t11 -58t28.5 -60q52 -66 149 -66q98 0 150 66q19 25 28.5 60t11 58t1.5 64v496h147v-512q0 -88 -15.5 -146.5t-62.5 -109.5q-102 -107 -260 -107t-260 107q-47 51 -62.5 109.5t-15.5 146.5v512h148zM197 1126q0 41 30.5 72t71.5 31t71.5 -31
t30.5 -72t-30.5 -71.5t-71.5 -30.5t-71.5 30.5t-30.5 71.5zM553 1126q0 41 30.5 72t71.5 31t72 -31t31 -72t-31 -71.5t-72 -30.5t-71.5 30.5t-30.5 71.5z" />
    <glyph glyph-name="yacute" unicode="&#xfd;" horiz-adv-x="942" 
d="M137 -471l271 551l-392 770h168l301 -608l277 608h164l-625 -1321h-164zM598 1364l152 -70l-275 -276l-92 49z" />
    <glyph glyph-name="thorn" unicode="&#xfe;" horiz-adv-x="1077" 
d="M287 119v-590h-148v1964h148v-762q111 139 291 139q128 0 224 -65.5t142.5 -166.5t46.5 -218q0 -118 -47 -218.5t-141.5 -163.5t-218.5 -63q-186 0 -297 144zM563 106q125 0 201 91t76 223q0 148 -84 233.5t-195 85.5t-196.5 -86t-85.5 -231q0 -134 78.5 -225t205.5 -91z
" />
    <glyph glyph-name="ydieresis" unicode="&#xff;" horiz-adv-x="942" 
d="M137 -471l271 551l-392 770h168l301 -608l277 608h164l-625 -1321h-164zM211 1126q0 41 30.5 72t71.5 31t72 -31t31 -72t-31 -71.5t-72 -30.5t-71.5 30.5t-30.5 71.5zM567 1126q0 41 31 72t72 31t71.5 -31t30.5 -72t-30.5 -71.5t-71.5 -30.5t-72 30.5t-31 71.5z" />
    <glyph glyph-name="Amacron" unicode="&#x100;" horiz-adv-x="1273" 
d="M1090 0l-160 385h-582l-164 -385h-168l629 1432l612 -1432h-167zM408 528h462l-229 547zM317 1501v131h656v-131h-656z" />
    <glyph glyph-name="amacron" unicode="&#x101;" horiz-adv-x="1077" 
d="M791 729v121h147v-850h-147v119q-112 -144 -291 -144q-82 0 -155.5 29t-132 83.5t-92.5 142t-34 196.5q0 106 34 192t92 140.5t131.5 83t156.5 28.5q183 0 291 -141zM516 739q-116 0 -197 -82.5t-81 -230.5q0 -140 74.5 -230t203.5 -90q130 0 206.5 93t76.5 225
q0 79 -25.5 141t-67 99t-90.5 56t-100 19zM231 1051v123h619v-123h-619z" />
    <glyph glyph-name="Abreve" unicode="&#x102;" horiz-adv-x="1273" 
d="M1090 0l-160 385h-582l-164 -385h-168l629 1432l612 -1432h-167zM408 528h462l-229 547zM827 1722h136q-15 -78 -64 -137q-94 -108 -254 -108t-254 108q-48 57 -63 137h135q14 -44 51 -73q52 -41 131 -41t131 41q37 29 51 73z" />
    <glyph glyph-name="abreve" unicode="&#x103;" horiz-adv-x="1077" 
d="M791 729v121h147v-850h-147v119q-112 -144 -291 -144q-82 0 -155.5 29t-132 83.5t-92.5 142t-34 196.5q0 106 34 192t92 140.5t131.5 83t156.5 28.5q183 0 291 -141zM516 739q-116 0 -197 -82.5t-81 -230.5q0 -140 74.5 -230t203.5 -90q130 0 206.5 93t76.5 225
q0 79 -25.5 141t-67 99t-90.5 56t-100 19zM252 1264h125q13 -48 49 -80q49 -43 123 -43t123 43q36 32 49 80h125q-12 -66 -60 -138q-85 -108 -237 -108q-153 0 -238 108q-47 70 -59 138z" />
    <glyph glyph-name="Aogonek" unicode="&#x104;" horiz-adv-x="1273" 
d="M645 1432l612 -1432h-40q-63 -36 -103 -84q-41 -51 -41 -98q0 -35 25 -60q27 -24 78 -24q54 0 102 26l-16 -120q-57 -29 -113 -29q-43 0 -87.5 16.5t-72.5 42.5q-47 43 -47 117q0 69 47 129q43 53 101 84l-160 385h-582l-164 -385h-168zM408 528h462l-229 547z" />
    <glyph glyph-name="aogonek" unicode="&#x105;" horiz-adv-x="1077" 
d="M791 729v121h147v-850h-29q-46 -27 -96 -80q-47 -52 -47 -104q0 -39 25 -60q24 -22 81 -22t99 26l-17 -112q-48 -29 -114 -29q-40 0 -82 14.5t-70 42.5q-45 45 -45 115q0 64 41.5 118t106.5 91v119q-53 -62 -115 -99q-77 -45 -176 -45q-176 0 -293 117q-121 127 -121 334
q0 105 33 190t90 142q52 52 128.5 82t162.5 30q182 0 291 -141zM516 739q-115 0 -194 -82q-84 -91 -84 -239q0 -155 90 -240q79 -72 192 -72q111 0 187 76q92 96 92 242q0 142 -80 229q-79 86 -203 86z" />
    <glyph glyph-name="Cacute" unicode="&#x106;" horiz-adv-x="1323" 
d="M1221 1253v-188q-81 81 -179 127q-116 53 -235 53q-154 0 -280.5 -76t-197.5 -206.5t-71 -286.5q0 -107 33.5 -199.5t88.5 -157t127 -110.5t149 -68t153 -22q131 0 254 63q86 43 158 115v-188q-187 -134 -412 -134q-200 0 -362 93t-253.5 254t-91.5 356q0 151 54.5 283
t149 226t227.5 148t284 54q226 0 404 -136zM926 1806l143 -92l-313 -239l-88 65z" />
    <glyph glyph-name="cacute" unicode="&#x107;" horiz-adv-x="897" 
d="M805 788v-176q-53 67 -126 97t-140 30q-126 0 -213.5 -84.5t-87.5 -232.5q0 -147 88.5 -231.5t210.5 -84.5q71 0 145 33.5t129 100.5v-177q-119 -88 -270 -88q-198 0 -326.5 126.5t-128.5 318.5q0 195 129 322.5t326 127.5q148 0 264 -82zM598 1364l152 -70l-275 -276
l-92 49z" />
    <glyph glyph-name="Ccircumflex" unicode="&#x108;" horiz-adv-x="1323" 
d="M1221 1253v-188q-81 81 -179 127q-116 53 -235 53q-154 0 -280.5 -76t-197.5 -206.5t-71 -286.5q0 -107 33.5 -199.5t88.5 -157t127 -110.5t149 -68t153 -22q131 0 254 63q86 43 158 115v-188q-187 -134 -412 -134q-200 0 -362 93t-253.5 254t-91.5 356q0 151 54.5 283
t149 226t227.5 148t284 54q226 0 404 -136zM819 1632l-180 -155l-107 84l287 243l287 -243l-107 -84z" />
    <glyph glyph-name="ccircumflex" unicode="&#x109;" horiz-adv-x="897" 
d="M805 788v-176q-53 67 -126 97t-140 30q-126 0 -213.5 -84.5t-87.5 -232.5q0 -147 88.5 -231.5t210.5 -84.5q71 0 145 33.5t129 100.5v-177q-119 -88 -270 -88q-198 0 -326.5 126.5t-128.5 318.5q0 195 129 322.5t326 127.5q148 0 264 -82zM532 1184l-188 -166l-94 74
l282 247l283 -247l-94 -74z" />
    <glyph glyph-name="Cdotaccent" unicode="&#x10a;" horiz-adv-x="1323" 
d="M1221 1253v-188q-81 81 -179 127q-116 53 -235 53q-154 0 -280.5 -76t-197.5 -206.5t-71 -286.5q0 -107 33.5 -199.5t88.5 -157t127 -110.5t149 -68t153 -22q131 0 254 63q86 43 158 115v-188q-187 -134 -412 -134q-200 0 -362 93t-253.5 254t-91.5 356q0 151 54.5 283
t149 226t227.5 148t284 54q226 0 404 -136zM692 1606q0 49 31.5 80.5t81.5 31.5t81.5 -31.5t31.5 -80.5q0 -50 -32 -81.5t-81 -31.5t-81 31.5t-32 81.5z" />
    <glyph glyph-name="cdotaccent" unicode="&#x10b;" horiz-adv-x="897" 
d="M805 788v-176q-53 67 -126 97t-140 30q-126 0 -213.5 -84.5t-87.5 -232.5q0 -147 88.5 -231.5t210.5 -84.5q71 0 145 33.5t129 100.5v-177q-119 -88 -270 -88q-198 0 -326.5 126.5t-128.5 318.5q0 195 129 322.5t326 127.5q148 0 264 -82zM432 1133q0 46 31.5 77t77.5 31
t77 -31t31 -77t-31 -77.5t-77 -31.5t-77.5 31.5t-31.5 77.5z" />
    <glyph glyph-name="Ccaron" unicode="&#x10c;" horiz-adv-x="1323" 
d="M1221 1253v-188q-81 81 -179 127q-116 53 -235 53q-154 0 -280.5 -76t-197.5 -206.5t-71 -286.5q0 -107 33.5 -199.5t88.5 -157t127 -110.5t149 -68t153 -22q131 0 254 63q86 43 158 115v-188q-187 -134 -412 -134q-200 0 -362 93t-253.5 254t-91.5 356q0 151 54.5 283
t149 226t227.5 148t284 54q226 0 404 -136zM819 1649l180 155l107 -84l-287 -243l-287 243l107 84z" />
    <glyph glyph-name="ccaron" unicode="&#x10d;" horiz-adv-x="897" 
d="M805 788v-176q-53 67 -126 97t-140 30q-126 0 -213.5 -84.5t-87.5 -232.5q0 -147 88.5 -231.5t210.5 -84.5q71 0 145 33.5t129 100.5v-177q-119 -88 -270 -88q-198 0 -326.5 126.5t-128.5 318.5q0 195 129 322.5t326 127.5q148 0 264 -82zM532 1174l189 165l94 -73
l-283 -248l-282 248l94 73z" />
    <glyph glyph-name="Dcaron" unicode="&#x10e;" horiz-adv-x="1294" 
d="M176 0v1366h279q62 0 114.5 -5t121.5 -20t137.5 -49t129.5 -86q104 -86 169 -218.5t65 -305.5q0 -318 -240 -524q-98 -83 -210 -120.5t-289 -37.5h-277zM328 1223v-1080h133q244 0 391 123q184 155 184 416q0 246 -157.5 393.5t-417.5 147.5h-133zM573 1649l181 155
l106 -84l-287 -243l-286 243l106 84z" />
    <glyph glyph-name="dcaron" unicode="&#x10f;" horiz-adv-x="1220" 
d="M791 729v764h147v-1493h-147v119q-112 -144 -291 -144q-82 0 -155.5 29t-132 83.5t-92.5 142t-34 196.5q0 106 34 192t92 140.5t131.5 83t156.5 28.5q183 0 291 -141zM516 739q-116 0 -197 -82.5t-81 -230.5q0 -140 74.5 -230t203.5 -90q130 0 206.5 93t76.5 225
q0 79 -25.5 141t-67 99t-90.5 56t-100 19zM1024 1085l106 328l132 -49l-144 -320z" />
    <glyph glyph-name="Dcroat" unicode="&#x110;" horiz-adv-x="1294" 
d="M176 0v688h-176v131h176v547h279q62 0 114.5 -5t121.5 -20t137.5 -49t129.5 -86q104 -86 169 -218.5t65 -305.5q0 -318 -240 -524q-98 -83 -210 -120.5t-289 -37.5h-277zM328 1223v-404h278v-131h-278v-545h133q244 0 391 123q184 155 184 416q0 246 -157.5 393.5
t-417.5 147.5h-133z" />
    <glyph glyph-name="dcroat" unicode="&#x111;" horiz-adv-x="1077" 
d="M791 729v406h-410v122h410v236h147v-236h139v-122h-139v-1135h-147v119q-112 -144 -291 -144q-82 0 -155.5 29t-132 83.5t-92.5 142t-34 196.5q0 106 34 192t92 140.5t131.5 83t156.5 28.5q183 0 291 -141zM516 739q-116 0 -197 -82.5t-81 -230.5q0 -140 74.5 -230
t203.5 -90t206 92.5t77 225.5q0 80 -24.5 142t-66 99t-90.5 55.5t-102 18.5z" />
    <glyph glyph-name="Emacron" unicode="&#x112;" horiz-adv-x="987" 
d="M885 1366v-143h-557v-406h540v-143h-540v-531h557v-143h-709v1366h709zM205 1501v131h655v-131h-655z" />
    <glyph glyph-name="emacron" unicode="&#x113;" horiz-adv-x="985" 
d="M770 285l123 -68q-43 -81 -105 -137q-117 -105 -282 -105q-80 0 -152.5 26t-133.5 77.5t-97.5 140t-36.5 201.5q0 195 112 322.5t300 127.5q114 0 195 -45t126 -110q39 -56 61 -145t19 -175h-661q1 -129 79 -209t191 -80q100 0 174 62q58 49 88 117zM248 518h500
q-19 100 -87.5 160.5t-162.5 60.5q-93 0 -163 -62.5t-87 -158.5zM186 1051v123h619v-123h-619z" />
    <glyph glyph-name="Edotaccent" unicode="&#x116;" horiz-adv-x="987" 
d="M885 1366v-143h-557v-406h540v-143h-540v-531h557v-143h-709v1366h709zM420 1606q0 50 31 81t81 31t81.5 -31.5t31.5 -80.5q0 -50 -31.5 -81.5t-81.5 -31.5q-49 0 -80.5 31.5t-31.5 81.5z" />
    <glyph glyph-name="edotaccent" unicode="&#x117;" horiz-adv-x="985" 
d="M770 285l123 -68q-43 -81 -105 -137q-117 -105 -282 -105q-80 0 -152.5 26t-133.5 77.5t-97.5 140t-36.5 201.5q0 195 112 322.5t300 127.5q114 0 195 -45t126 -110q39 -56 61 -145t19 -175h-661q1 -129 79 -209t191 -80q100 0 174 62q58 49 88 117zM248 518h500
q-19 100 -87.5 160.5t-162.5 60.5q-93 0 -163 -62.5t-87 -158.5zM387 1133q0 46 31.5 77t77.5 31t77 -31t31 -77t-31 -77.5t-77 -31.5t-77.5 31.5t-31.5 77.5z" />
    <glyph glyph-name="Eogonek" unicode="&#x118;" horiz-adv-x="987" 
d="M885 1366v-143h-557v-406h540v-143h-540v-531h557v-143h-82q-63 -36 -103 -84q-41 -51 -41 -98q0 -35 25 -60q27 -24 78 -24q54 0 102 26l-16 -120q-57 -29 -113 -29q-43 0 -87.5 16.5t-72.5 42.5q-47 43 -47 117q0 73 47 129q32 40 93 84h-492v1366h709z" />
    <glyph glyph-name="eogonek" unicode="&#x119;" horiz-adv-x="987" 
d="M772 285l123 -68q-35 -75 -104 -135q-18 -16 -36.5 -29.5t-26 -18.5t-33.5 -20t-31 -18q-66 -39 -105 -78q-47 -49 -47 -102q0 -33 23 -56q26 -26 83 -26q50 0 99 26l-17 -112q-52 -29 -114 -29q-95 0 -150 55q-47 43 -47 117q0 61 37 111q26 39 72 73q-170 0 -287 113
q-125 121 -125 332q0 104 33.5 192t93.5 148q110 110 287 110q179 0 284 -110q117 -119 117 -365h-663q2 -58 23 -116.5t58 -96.5q73 -76 191 -76q100 0 174 62q52 44 88 117zM250 518h500q-15 93 -78 152q-72 69 -172 69q-106 0 -174 -71q-59 -62 -76 -150z" />
    <glyph glyph-name="Ecaron" unicode="&#x11a;" horiz-adv-x="987" 
d="M885 1366v-143h-557v-406h540v-143h-540v-531h557v-143h-709v1366h709zM532 1649l181 155l106 -84l-287 -243l-286 243l106 84z" />
    <glyph glyph-name="ecaron" unicode="&#x11b;" horiz-adv-x="985" 
d="M770 285l123 -68q-43 -81 -105 -137q-117 -105 -282 -105q-80 0 -152.5 26t-133.5 77.5t-97.5 140t-36.5 201.5q0 195 112 322.5t300 127.5q114 0 195 -45t126 -110q39 -56 61 -145t19 -175h-661q1 -129 79 -209t191 -80q100 0 174 62q58 49 88 117zM248 518h500
q-19 100 -87.5 160.5t-162.5 60.5q-93 0 -163 -62.5t-87 -158.5zM496 1174l188 165l94 -73l-282 -248l-283 248l94 73z" />
    <glyph glyph-name="Gcircumflex" unicode="&#x11c;" horiz-adv-x="1552" 
d="M881 543v143h569v-33q0 -117 -34 -231.5t-97 -200.5q-18 -25 -38.5 -47.5t-68 -62t-99.5 -67t-132.5 -48.5t-169.5 -21q-200 0 -362.5 93.5t-254.5 255.5t-92 358t92.5 358t256 255.5t364.5 93.5q241 0 418 -136q91 -70 158 -161l-113 -103q-59 84 -129 141
q-143 115 -332 115q-162 0 -290.5 -75t-198.5 -203.5t-70 -286.5q0 -108 33 -201t88 -158t127 -111.5t150 -68.5t157 -22q135 0 247 62.5t171 166.5q50 86 55 195h-405zM811 1632l-180 -155l-107 84l287 243l287 -243l-107 -84z" />
    <glyph glyph-name="gcircumflex" unicode="&#x11d;" horiz-adv-x="1077" 
d="M791 729v121h147v-830q0 -66 -2.5 -106.5t-22 -108t-57.5 -118.5q-51 -70 -139 -114t-201 -44q-188 0 -303 115q-111 111 -111 274h146q0 -104 65 -176q74 -82 205 -82q154 0 225 119q48 78 48 217v123q-112 -144 -291 -144q-176 0 -291 115q-123 123 -123 336
q0 207 123 330q55 54 130.5 84t160.5 30q182 0 291 -141zM516 739q-112 0 -192 -80q-86 -88 -86 -233q0 -161 96 -250q77 -70 182 -70q114 0 186 72q44 42 70.5 107.5t26.5 138.5t-24.5 137t-65.5 103q-75 75 -193 75zM539 1184l-189 -166l-94 74l283 247l282 -247l-94 -74z
" />
    <glyph glyph-name="Gbreve" unicode="&#x11e;" horiz-adv-x="1552" 
d="M881 543v143h569v-33q0 -117 -34 -231.5t-97 -200.5q-18 -25 -38.5 -47.5t-68 -62t-99.5 -67t-132.5 -48.5t-169.5 -21q-200 0 -362.5 93.5t-254.5 255.5t-92 358t92.5 358t256 255.5t364.5 93.5q241 0 418 -136q91 -70 158 -161l-113 -103q-59 84 -129 141
q-143 115 -332 115q-162 0 -290.5 -75t-198.5 -203.5t-70 -286.5q0 -108 33 -201t88 -158t127 -111.5t150 -68.5t157 -22q135 0 247 62.5t171 166.5q50 86 55 195h-405zM993 1722h135q-15 -80 -63 -137q-94 -108 -254 -108t-254 108q-48 57 -63 137h135q14 -44 51 -73
q52 -41 131 -41t131 41q37 29 51 73z" />
    <glyph glyph-name="gbreve" unicode="&#x11f;" horiz-adv-x="1077" 
d="M791 729v121h147v-830q0 -66 -2.5 -106.5t-22 -108t-57.5 -118.5q-51 -70 -139 -114t-201 -44q-188 0 -303 115q-111 111 -111 274h146q0 -104 65 -176q74 -82 205 -82q154 0 225 119q48 78 48 217v123q-112 -144 -291 -144q-176 0 -291 115q-123 123 -123 336
q0 207 123 330q55 54 130.5 84t160.5 30q182 0 291 -141zM516 739q-112 0 -192 -80q-86 -88 -86 -233q0 -161 96 -250q77 -70 182 -70q114 0 186 72q44 42 70.5 107.5t26.5 138.5t-24.5 137t-65.5 103q-75 75 -193 75zM242 1264h125q13 -48 49 -80q49 -43 123 -43t123 43
q36 32 49 80h125q-12 -66 -60 -138q-85 -108 -237 -108q-153 0 -238 108q-47 70 -59 138z" />
    <glyph glyph-name="Gdotaccent" unicode="&#x120;" horiz-adv-x="1552" 
d="M881 543v143h569v-33q0 -117 -34 -231.5t-97 -200.5q-18 -25 -38.5 -47.5t-68 -62t-99.5 -67t-132.5 -48.5t-169.5 -21q-200 0 -362.5 93.5t-254.5 255.5t-92 358t92.5 358t256 255.5t364.5 93.5q241 0 418 -136q91 -70 158 -161l-113 -103q-59 84 -129 141
q-143 115 -332 115q-162 0 -290.5 -75t-198.5 -203.5t-70 -286.5q0 -108 33 -201t88 -158t127 -111.5t150 -68.5t157 -22q135 0 247 62.5t171 166.5q50 86 55 195h-405zM705 1606q0 50 31.5 81t80.5 31q50 0 81.5 -31.5t31.5 -80.5q0 -50 -32 -81.5t-81 -31.5t-80.5 31.5
t-31.5 81.5z" />
    <glyph glyph-name="gdotaccent" unicode="&#x121;" horiz-adv-x="1077" 
d="M791 729v121h147v-830q0 -66 -2.5 -106.5t-22 -108t-57.5 -118.5q-51 -70 -139 -114t-201 -44q-188 0 -303 115q-111 111 -111 274h146q0 -104 65 -176q74 -82 205 -82q154 0 225 119q48 78 48 217v123q-112 -144 -291 -144q-176 0 -291 115q-123 123 -123 336
q0 207 123 330q55 54 130.5 84t160.5 30q182 0 291 -141zM516 739q-112 0 -192 -80q-86 -88 -86 -233q0 -161 96 -250q77 -70 182 -70q114 0 186 72q44 42 70.5 107.5t26.5 138.5t-24.5 137t-65.5 103q-75 75 -193 75zM395 1133q0 46 31.5 77t77.5 31t77 -31t31 -77
t-31 -77.5t-77 -31.5t-77.5 31.5t-31.5 77.5z" />
    <glyph glyph-name="Gcommaaccent" unicode="&#x122;" horiz-adv-x="1552" 
d="M881 543v143h569v-33q0 -117 -34 -231.5t-97 -200.5q-18 -25 -38.5 -47.5t-68 -62t-99.5 -67t-132.5 -48.5t-169.5 -21q-200 0 -362.5 93.5t-254.5 255.5t-92 358t92.5 358t256 255.5t364.5 93.5q241 0 418 -136q91 -70 158 -161l-113 -103q-59 84 -129 141
q-143 115 -332 115q-162 0 -290.5 -75t-198.5 -203.5t-70 -286.5q0 -108 33 -201t88 -158t127 -111.5t150 -68.5t157 -22q135 0 247 62.5t171 166.5q50 86 55 195h-405zM651 -430l115 328l131 -50l-143 -319z" />
    <glyph glyph-name="gcommaaccent" unicode="&#x123;" horiz-adv-x="1077" 
d="M791 729v121h147v-830q0 -66 -2.5 -106.5t-22 -108t-57.5 -118.5q-51 -70 -139 -114t-201 -44q-188 0 -303 115q-111 111 -111 274h146q0 -104 65 -176q74 -82 205 -82q154 0 225 119q48 78 48 217v123q-112 -144 -291 -144q-176 0 -291 115q-123 123 -123 336
q0 207 123 330q55 54 130.5 84t160.5 30q182 0 291 -141zM516 739q-112 0 -192 -80q-86 -88 -86 -233q0 -161 96 -250q77 -70 182 -70q114 0 186 72q44 42 70.5 107.5t26.5 138.5t-24.5 137t-65.5 103q-75 75 -193 75zM645 1331l-115 -327l-131 49l144 319z" />
    <glyph glyph-name="Hcircumflex" unicode="&#x124;" horiz-adv-x="1355" 
d="M328 1366v-555h700v555h152v-1366h-152v668h-700v-668h-152v1366h152zM678 1632l-180 -155l-107 84l287 243l287 -243l-107 -84z" />
    <glyph glyph-name="hcircumflex" unicode="&#x125;" horiz-adv-x="962" 
d="M139 0v1493h148v-741q91 118 243 118q77 0 141.5 -30t102.5 -86q30 -44 39.5 -96t9.5 -132v-526h-147v522q0 106 -39 156q-48 61 -139 61q-95 0 -150 -65q-61 -73 -61 -230v-444h-148zM217 1675l-188 -166l-95 74l283 248l283 -248l-94 -74z" />
    <glyph glyph-name="Hbar" unicode="&#x126;" horiz-adv-x="1355" 
d="M328 1366v-109h700v109h152v-109h123v-127h-123v-1130h-152v668h-700v-668h-152v1130h-123v127h123v109h152zM1028 1130h-700v-319h700v319z" />
    <glyph glyph-name="hbar" unicode="&#x127;" horiz-adv-x="962" 
d="M139 0v1135h-139v122h139v236h148v-236h409v-122h-409v-383q91 118 243 118q77 0 141.5 -30t102.5 -86q30 -44 39.5 -96t9.5 -132v-526h-147v522q0 106 -39 156q-48 61 -139 61q-95 0 -150 -65q-61 -73 -61 -230v-444h-148z" />
    <glyph glyph-name="Imacron" unicode="&#x12a;" horiz-adv-x="503" 
d="M176 1366h152v-1366h-152v1366zM0 1501v131h504v-131h-504z" />
    <glyph glyph-name="imacron" unicode="&#x12b;" horiz-adv-x="425" 
d="M139 850h148v-850h-148v850zM0 1051v123h426v-123h-426z" />
    <glyph glyph-name="Iogonek" unicode="&#x12e;" horiz-adv-x="503" 
d="M176 1366h152v-1366q-63 -41 -97 -80q-47 -56 -47 -104q0 -35 25 -58.5t82 -23.5q55 0 98 26l-16 -120q-57 -29 -121 -29q-79 0 -139 48t-60 130q0 69 49 131q38 46 99 80h-25v1366z" />
    <glyph glyph-name="iogonek" unicode="&#x12f;" horiz-adv-x="425" 
d="M139 850h148v-850q-63 -41 -97 -80q-47 -56 -47 -104q0 -35 25 -58.5t82 -23.5q55 0 98 26l-16 -112q-54 -29 -115 -29q-79 0 -138 47.5t-59 122.5q0 68 50 131q38 50 98 80h-29v850zM109 1171q0 43 30.5 74t73.5 31t73.5 -31t30.5 -74t-30.5 -73.5t-73.5 -30.5
t-73.5 30.5t-30.5 73.5z" />
    <glyph glyph-name="Idotaccent" unicode="&#x130;" horiz-adv-x="503" 
d="M176 1366h152v-1366h-152v1366zM139 1606q0 49 31.5 80.5t81.5 31.5t81.5 -31.5t31.5 -80.5q0 -50 -31.5 -81.5t-81.5 -31.5t-81.5 31.5t-31.5 81.5z" />
    <glyph glyph-name="dotlessi" unicode="&#x131;" horiz-adv-x="425" 
d="M139 850h148v-850h-148v850z" />
    <glyph glyph-name="Jcircumflex" unicode="&#x134;" horiz-adv-x="626" 
d="M299 1366h152v-983q0 -73 -3 -117t-23 -104.5t-58 -100.5q-79 -86 -217 -86q-156 0 -244 101l84 119q70 -76 155 -76q64 0 103 39q24 24 36 64.5t13.5 70.5t1.5 86v987zM369 1632l-181 -155l-106 84l287 243l286 -243l-106 -84z" />
    <glyph glyph-name="jcircumflex" unicode="&#x135;" horiz-adv-x="425" 
d="M139 850h148v-1321h-148v1321zM213 1171l-154 -137l-88 72l242 217l242 -217l-88 -72z" />
    <glyph glyph-name="Kcommaaccent" unicode="&#x136;" horiz-adv-x="1163" 
d="M328 1366v-586l581 586h205l-639 -637l660 -729h-209l-559 627l-39 -39v-588h-152v1366h152zM414 -430l114 328l131 -50l-143 -319z" />
    <glyph glyph-name="kcommaaccent" unicode="&#x137;" horiz-adv-x="864" 
d="M139 1493h148v-958l311 315h193l-365 -365l430 -485h-192l-340 387l-37 -37v-350h-148v1493zM268 -430l115 328l131 -50l-143 -319z" />
    <glyph glyph-name="Lacute" unicode="&#x139;" horiz-adv-x="733" 
d="M176 1366h152v-1223h377v-143h-529v1366zM496 1806l143 -92l-313 -239l-88 65z" />
    <glyph glyph-name="lacute" unicode="&#x13a;" horiz-adv-x="425" 
d="M139 1493h148v-1493h-148v1493zM352 1896l152 -69l-275 -277l-92 49z" />
    <glyph glyph-name="Lcommaaccent" unicode="&#x13b;" horiz-adv-x="733" 
d="M176 1366h152v-1223h377v-143h-529v1366zM283 -430l114 328l131 -50l-143 -319z" />
    <glyph glyph-name="lcommaaccent" unicode="&#x13c;" horiz-adv-x="425" 
d="M139 1493h148v-1493h-148v1493zM49 -430l115 328l131 -50l-143 -319z" />
    <glyph glyph-name="Lcaron" unicode="&#x13d;" horiz-adv-x="733" 
d="M176 1366h152v-1223h377v-143h-529v1366zM512 1065l106 328l132 -50l-144 -319z" />
    <glyph glyph-name="lcaron" unicode="&#x13e;" horiz-adv-x="569" 
d="M139 1493h148v-1493h-148v1493zM373 1085l106 328l131 -49l-143 -320z" />
    <glyph glyph-name="Ldot" unicode="&#x13f;" horiz-adv-x="731" 
d="M176 1366h152v-1223h377v-143h-529v1366zM496 684q0 50 31.5 81.5t80.5 31.5q50 0 81.5 -31.5t31.5 -81.5t-31.5 -81.5t-81.5 -31.5q-49 0 -80.5 31.5t-31.5 81.5z" />
    <glyph glyph-name="ldot" unicode="&#x140;" horiz-adv-x="643" 
d="M139 1493h148v-1493h-148v1493zM426 748q0 46 31.5 77t77.5 31t77 -31t31 -77t-31 -77.5t-77 -31.5t-77.5 31.5t-31.5 77.5z" />
    <glyph glyph-name="Lslash" unicode="&#x141;" horiz-adv-x="733" 
d="M176 1366h152v-535l204 132v-132l-204 -131v-557h377v-143h-529v625l-176 -113v131l176 113v610z" />
    <glyph glyph-name="lslash" unicode="&#x142;" horiz-adv-x="425" 
d="M139 1493h148v-471l139 108v-122l-139 -109v-899h-148v805l-139 -109v123l139 109v565z" />
    <glyph glyph-name="Nacute" unicode="&#x143;" horiz-adv-x="1568" 
d="M328 0h-152v1423l1065 -1116v1059h152v-1427l-1065 1116v-1055zM952 1806l144 -92l-314 -239l-88 65z" />
    <glyph glyph-name="nacute" unicode="&#x144;" horiz-adv-x="962" 
d="M139 0v850h148v-98q91 118 243 118q77 0 141.5 -30t102.5 -86q30 -44 39.5 -96t9.5 -132v-526h-147v522q0 106 -39 156q-48 61 -139 61q-95 0 -150 -65q-61 -73 -61 -230v-444h-148zM639 1364l152 -70l-275 -276l-92 49z" />
    <glyph glyph-name="Ncommaaccent" unicode="&#x145;" horiz-adv-x="1568" 
d="M328 0h-152v1423l1065 -1116v1059h152v-1427l-1065 1116v-1055zM631 -430l114 328l132 -50l-144 -319z" />
    <glyph glyph-name="ncommaaccent" unicode="&#x146;" horiz-adv-x="962" 
d="M139 0v850h148v-98q91 118 243 118q77 0 141.5 -30t102.5 -86q30 -44 39.5 -96t9.5 -132v-526h-147v522q0 106 -39 156q-48 61 -139 61q-95 0 -150 -65q-61 -73 -61 -230v-444h-148zM317 -430l115 328l131 -50l-143 -319z" />
    <glyph glyph-name="Ncaron" unicode="&#x147;" horiz-adv-x="1568" 
d="M328 0h-152v1423l1065 -1116v1059h152v-1427l-1065 1116v-1055zM784 1649l181 155l106 -84l-287 -243l-286 243l106 84z" />
    <glyph glyph-name="ncaron" unicode="&#x148;" horiz-adv-x="962" 
d="M139 0v850h148v-98q91 118 243 118q77 0 141.5 -30t102.5 -86q30 -44 39.5 -96t9.5 -132v-526h-147v522q0 106 -39 156q-48 61 -139 61q-95 0 -150 -65q-61 -73 -61 -230v-444h-148zM512 1174l188 165l95 -73l-283 -248l-283 248l95 73z" />
    <glyph glyph-name="Omacron" unicode="&#x14c;" horiz-adv-x="1626" 
d="M813 -25q-146 0 -277.5 54t-226.5 147t-151 225t-56 281q0 150 56 282t151.5 225t226.5 146.5t277 53.5t277 -53.5t226.5 -146.5t151.5 -225t56 -282q0 -149 -56 -281t-151 -225t-226.5 -147t-277.5 -54zM813 1245q-151 0 -279 -75t-202 -204.5t-74 -283.5t74 -283.5
t202 -204.5t279 -75t279 75t202 204.5t74 283.5t-74 283.5t-202 204.5t-279 75zM485 1501v131h656v-131h-656z" />
    <glyph glyph-name="omacron" unicode="&#x14d;" horiz-adv-x="1073" 
d="M537 -25q-194 0 -322.5 127t-128.5 320q0 194 128 321t323 127t322.5 -127t127.5 -321q0 -193 -128 -320t-322 -127zM537 739q-124 0 -211.5 -84.5t-87.5 -232.5q0 -100 43.5 -173.5t110.5 -108t145 -34.5q123 0 211 84t88 232q0 149 -87 233t-212 84zM227 1051v123h619
v-123h-619z" />
    <glyph glyph-name="Obreve" unicode="&#x14e;" horiz-adv-x="1626" 
d="M813 -25q-146 0 -277.5 54t-226.5 147t-151 225t-56 281q0 150 56 282t151.5 225t226.5 146.5t277 53.5t277 -53.5t226.5 -146.5t151.5 -225t56 -282q0 -149 -56 -281t-151 -225t-226.5 -147t-277.5 -54zM813 1245q-151 0 -279 -75t-202 -204.5t-74 -283.5t74 -283.5
t202 -204.5t279 -75t279 75t202 204.5t74 283.5t-74 283.5t-202 204.5t-279 75zM995 1722h135q-15 -80 -63 -137q-94 -108 -254 -108t-254 108q-48 57 -63 137h135q14 -44 51 -73q52 -41 131 -41t131 41q37 29 51 73z" />
    <glyph glyph-name="obreve" unicode="&#x14f;" horiz-adv-x="1073" 
d="M537 -25q-194 0 -322.5 127t-128.5 320q0 194 128 321t323 127t322.5 -127t127.5 -321q0 -193 -128 -320t-322 -127zM537 739q-124 0 -211.5 -84.5t-87.5 -232.5q0 -100 43.5 -173.5t110.5 -108t145 -34.5q123 0 211 84t88 232q0 149 -87 233t-212 84zM240 1264h125
q13 -48 49 -80q49 -43 123 -43q73 0 122 43q37 33 50 80h125q-12 -66 -60 -138q-85 -108 -237 -108q-153 0 -238 108q-47 70 -59 138z" />
    <glyph glyph-name="Ohungarumlaut" unicode="&#x150;" horiz-adv-x="1626" 
d="M813 -25q-146 0 -277.5 54t-226.5 147t-151 225t-56 281q0 150 56 282t151.5 225t226.5 146.5t277 53.5t277 -53.5t226.5 -146.5t151.5 -225t56 -282q0 -149 -56 -281t-151 -225t-226.5 -147t-277.5 -54zM813 1245q-151 0 -279 -75t-202 -204.5t-74 -283.5t74 -283.5
t202 -204.5t279 -75t279 75t202 204.5t74 283.5t-74 283.5t-202 204.5t-279 75zM821 1806l144 -82l-301 -249l-89 53zM1128 1806l144 -82l-301 -249l-88 53z" />
    <glyph glyph-name="ohungarumlaut" unicode="&#x151;" horiz-adv-x="1073" 
d="M537 -25q-194 0 -322.5 127t-128.5 320q0 194 128 321t323 127t322.5 -127t127.5 -321q0 -193 -128 -320t-322 -127zM537 739q-124 0 -211.5 -84.5t-87.5 -232.5q0 -100 43.5 -173.5t110.5 -108t145 -34.5q123 0 211 84t88 232q0 149 -87 233t-212 84zM537 1364l147 -66
l-281 -278l-84 47zM811 1364l143 -66l-276 -278l-84 47z" />
    <glyph glyph-name="OE" unicode="&#x152;" horiz-adv-x="2162" 
d="M2060 1366v-143h-547v-406h533v-143h-533v-531h547v-143h-698v262q-96 -145 -241.5 -216t-299.5 -71q-197 0 -363 96t-261 258t-95 351q0 143 56.5 274t152 226t227.5 152t277 57q163 0 307 -74.5t240 -216.5v268h698zM811 1245q-151 0 -278.5 -77t-201 -207t-73.5 -281
q0 -150 73 -279.5t200.5 -205.5t277.5 -76q113 0 215.5 45t176.5 120t117.5 178t43.5 216q0 153 -74 283.5t-201 207t-276 76.5z" />
    <glyph glyph-name="oe" unicode="&#x153;" horiz-adv-x="1744" 
d="M1659 428v-31h-670q5 -122 82.5 -206.5t196.5 -84.5q88 0 155 51.5t101 131.5l125 -72q-58 -106 -157 -174t-230 -68q-29 0 -62.5 5t-91 22.5t-112.5 62.5t-91 113q-63 -96 -159 -149.5t-214 -53.5q-190 0 -318 129t-128 318q0 192 129.5 320t323.5 128
q127 0 218.5 -55.5t147.5 -146.5q107 202 342 202q190 0 301 -120t111 -322zM1001 520h506q-15 99 -85.5 159t-168.5 60q-94 0 -163 -59t-89 -160zM535 739q-136 0 -216.5 -94t-80.5 -223q0 -130 81 -223t213 -93q56 0 108.5 20t95.5 57.5t69 98.5t26 136q0 139 -79 230
t-217 91z" />
    <glyph glyph-name="Racute" unicode="&#x154;" horiz-adv-x="1028" 
d="M176 1366h219q221 0 332 -76q65 -43 107.5 -121.5t42.5 -181.5q0 -157 -95 -262t-250 -115l435 -610h-185l-415 598h-39v-598h-152v1366zM328 1223v-490h96q142 0 221.5 65.5t79.5 184.5q0 139 -109 201q-68 39 -196 39h-92zM639 1806l143 -92l-313 -239l-88 65z" />
    <glyph glyph-name="racute" unicode="&#x155;" horiz-adv-x="606" 
d="M139 0v850h148v-92q8 13 20.5 28t36.5 36t59.5 34.5t75.5 13.5q61 0 131 -34l-69 -134q-42 29 -86 29q-77 0 -119 -53q-49 -65 -49 -229v-449h-148zM516 1364l152 -70l-275 -276l-92 49z" />
    <glyph glyph-name="Rcommaaccent" unicode="&#x156;" horiz-adv-x="1028" 
d="M176 1366h219q221 0 332 -76q65 -43 107.5 -121.5t42.5 -181.5q0 -157 -95 -262t-250 -115l435 -610h-185l-415 598h-39v-598h-152v1366zM328 1223v-490h96q142 0 221.5 65.5t79.5 184.5q0 139 -109 201q-68 39 -196 39h-92zM365 -430l114 328l131 -50l-143 -319z" />
    <glyph glyph-name="rcommaaccent" unicode="&#x157;" horiz-adv-x="606" 
d="M139 0v850h148v-92q8 13 20.5 28t36.5 36t59.5 34.5t75.5 13.5q61 0 131 -34l-69 -134q-42 29 -86 29q-77 0 -119 -53q-49 -65 -49 -229v-449h-148zM133 -430l115 328l131 -50l-143 -319z" />
    <glyph glyph-name="Rcaron" unicode="&#x158;" horiz-adv-x="1028" 
d="M176 1366h219q221 0 332 -76q65 -43 107.5 -121.5t42.5 -181.5q0 -157 -95 -262t-250 -115l435 -610h-185l-415 598h-39v-598h-152v1366zM328 1223v-490h96q142 0 221.5 65.5t79.5 184.5q0 139 -109 201q-68 39 -196 39h-92zM471 1649l180 155l107 -84l-287 -243
l-287 243l107 84z" />
    <glyph glyph-name="rcaron" unicode="&#x159;" horiz-adv-x="606" 
d="M139 0v850h148v-92q8 13 20.5 28t36.5 36t59.5 34.5t75.5 13.5q61 0 131 -34l-69 -134q-42 29 -86 29q-77 0 -119 -53q-49 -65 -49 -229v-449h-148zM410 1174l188 165l94 -73l-282 -248l-283 248l94 73z" />
    <glyph glyph-name="Sacute" unicode="&#x15a;" horiz-adv-x="1060" 
d="M907 1176l-121 -80q-31 63 -79 102q-63 47 -154 47q-102 0 -165.5 -58t-63.5 -153q0 -39 11.5 -66t39.5 -53q19 -19 46.5 -36.5t43.5 -25t53 -24.5l131 -57q146 -64 211 -129q98 -98 98 -248q0 -187 -122.5 -303.5t-309.5 -116.5q-184 0 -297 111q-94 91 -127 242l148 41
q14 -103 82 -174q76 -76 196 -76q132 0 203.5 79.5t71.5 190.5q0 98 -68 160q-18 17 -46 34.5t-49.5 28t-68.5 31.5l-122 57q-3 1 -20 9t-23 11l-22 11t-24 13t-22.5 14t-25 16.5t-23 17.5t-23.5 21q-47 45 -70.5 97.5t-23.5 125.5q0 157 108 255t275 98q125 0 219 -62
q83 -56 133 -151zM698 1806l144 -92l-314 -239l-88 65z" />
    <glyph glyph-name="sacute" unicode="&#x15b;" horiz-adv-x="720" 
d="M610 717l-121 -64q-16 38 -47 62t-71 24q-43 0 -73 -24.5t-30 -71.5q0 -42 28 -64t110 -57q160 -66 212 -131q46 -56 46 -137q0 -130 -83 -204.5t-210 -74.5q-18 0 -38 2t-60.5 14t-74 33t-69 65t-55.5 104l127 53q7 -21 19 -41.5t32.5 -44.5t52 -39t68.5 -15
q67 0 103 41.5t36 94.5q0 29 -9 50t-31 38t-40.5 26.5t-56.5 26.5q-86 38 -133 65t-74 60q-39 48 -39 125q0 110 69 173.5t179 63.5q161 0 233 -153zM487 1364l152 -70l-274 -276l-93 49z" />
    <glyph glyph-name="Scircumflex" unicode="&#x15c;" horiz-adv-x="1060" 
d="M907 1176l-121 -80q-31 63 -79 102q-63 47 -154 47q-102 0 -165.5 -58t-63.5 -153q0 -39 11.5 -66t39.5 -53q19 -19 46.5 -36.5t43.5 -25t53 -24.5l131 -57q146 -64 211 -129q98 -98 98 -248q0 -187 -122.5 -303.5t-309.5 -116.5q-184 0 -297 111q-94 91 -127 242l148 41
q14 -103 82 -174q76 -76 196 -76q132 0 203.5 79.5t71.5 190.5q0 98 -68 160q-18 17 -46 34.5t-49.5 28t-68.5 31.5l-122 57q-3 1 -20 9t-23 11l-22 11t-24 13t-22.5 14t-25 16.5t-23 17.5t-23.5 21q-47 45 -70.5 97.5t-23.5 125.5q0 157 108 255t275 98q125 0 219 -62
q83 -56 133 -151zM561 1632l-180 -155l-107 84l287 243l287 -243l-107 -84z" />
    <glyph glyph-name="scircumflex" unicode="&#x15d;" horiz-adv-x="720" 
d="M610 717l-121 -64q-16 38 -47 62t-71 24q-43 0 -73 -24.5t-30 -71.5q0 -42 28 -64t110 -57q160 -66 212 -131q46 -56 46 -137q0 -130 -83 -204.5t-210 -74.5q-18 0 -38 2t-60.5 14t-74 33t-69 65t-55.5 104l127 53q7 -21 19 -41.5t32.5 -44.5t52 -39t68.5 -15
q67 0 103 41.5t36 94.5q0 29 -9 50t-31 38t-40.5 26.5t-56.5 26.5q-86 38 -133 65t-74 60q-39 48 -39 125q0 110 69 173.5t179 63.5q161 0 233 -153zM377 1184l-189 -166l-94 74l283 247l282 -247l-94 -74z" />
    <glyph glyph-name="Scedilla" unicode="&#x15e;" horiz-adv-x="1060" 
d="M907 1176l-121 -80q-31 63 -79 102q-63 47 -154 47q-102 0 -165.5 -58t-63.5 -153q0 -39 11.5 -66t39.5 -53q19 -19 46.5 -36.5t43.5 -25t53 -24.5l131 -57q146 -64 211 -129q98 -98 98 -248q0 -187 -122.5 -303.5t-309.5 -116.5q-184 0 -297 111q-94 91 -127 242l148 41
q14 -103 82 -174q76 -76 196 -76q132 0 203.5 79.5t71.5 190.5q0 98 -68 160q-18 17 -46 34.5t-49.5 28t-68.5 31.5l-122 57q-3 1 -20 9t-23 11l-22 11t-24 13t-22.5 14t-25 16.5t-23 17.5t-23.5 21q-47 45 -70.5 97.5t-23.5 125.5q0 157 108 255t275 98q125 0 219 -62
q83 -56 133 -151zM520 -106l144 -62l-213 -262l-103 53z" />
    <glyph glyph-name="scedilla" unicode="&#x15f;" horiz-adv-x="720" 
d="M610 717l-121 -64q-16 38 -47 62t-71 24q-43 0 -73 -24.5t-30 -71.5q0 -42 28 -64t110 -57q160 -66 212 -131q46 -56 46 -137q0 -130 -83 -204.5t-210 -74.5q-18 0 -38 2t-60.5 14t-74 33t-69 65t-55.5 104l127 53q7 -21 19 -41.5t32.5 -44.5t52 -39t68.5 -15
q67 0 103 41.5t36 94.5q0 29 -9 50t-31 38t-40.5 26.5t-56.5 26.5q-86 38 -133 65t-74 60q-39 48 -39 125q0 110 69 173.5t179 63.5q161 0 233 -153zM360 -106l136 -56l-207 -262l-101 49z" />
    <glyph glyph-name="Scaron" unicode="&#x160;" horiz-adv-x="1060" 
d="M907 1176l-121 -80q-31 63 -79 102q-63 47 -154 47q-102 0 -165.5 -58t-63.5 -153q0 -39 11.5 -66t39.5 -53q19 -19 46.5 -36.5t43.5 -25t53 -24.5l131 -57q146 -64 211 -129q98 -98 98 -248q0 -187 -122.5 -303.5t-309.5 -116.5q-184 0 -297 111q-94 91 -127 242l148 41
q14 -103 82 -174q76 -76 196 -76q132 0 203.5 79.5t71.5 190.5q0 98 -68 160q-18 17 -46 34.5t-49.5 28t-68.5 31.5l-122 57q-3 1 -20 9t-23 11l-22 11t-24 13t-22.5 14t-25 16.5t-23 17.5t-23.5 21q-47 45 -70.5 97.5t-23.5 125.5q0 157 108 255t275 98q125 0 219 -62
q83 -56 133 -151zM561 1649l180 155l107 -84l-287 -243l-287 243l107 84z" />
    <glyph glyph-name="scaron" unicode="&#x161;" horiz-adv-x="720" 
d="M610 717l-121 -64q-16 38 -47 62t-71 24q-43 0 -73 -24.5t-30 -71.5q0 -42 28 -64t110 -57q160 -66 212 -131q46 -56 46 -137q0 -130 -83 -204.5t-210 -74.5q-18 0 -38 2t-60.5 14t-74 33t-69 65t-55.5 104l127 53q7 -21 19 -41.5t32.5 -44.5t52 -39t68.5 -15
q67 0 103 41.5t36 94.5q0 29 -9 50t-31 38t-40.5 26.5t-56.5 26.5q-86 38 -133 65t-74 60q-39 48 -39 125q0 110 69 173.5t179 63.5q161 0 233 -153zM377 1174l188 165l94 -73l-282 -248l-283 248l94 73z" />
    <glyph glyph-name="Tcedilla" unicode="&#x162;" horiz-adv-x="872" 
d="M844 1223h-332v-1223h-152v1223h-331v143h815v-143zM418 -106l143 -62l-213 -262l-102 53z" />
    <glyph glyph-name="tcedilla" unicode="&#x163;" horiz-adv-x="438" 
d="M438 715h-147v-715h-148v715h-90v135h90v307h148v-307h147v-135zM197 -106l135 -56l-207 -262l-100 49z" />
    <glyph glyph-name="Tcaron" unicode="&#x164;" horiz-adv-x="872" 
d="M844 1223h-332v-1223h-152v1223h-331v143h815v-143zM436 1649l180 155l107 -84l-287 -243l-286 243l106 84z" />
    <glyph glyph-name="tcaron" unicode="&#x165;" horiz-adv-x="565" 
d="M438 715h-147v-715h-148v715h-90v135h90v307h148v-307h147v-135zM369 1085l106 328l131 -49l-143 -320z" />
    <glyph glyph-name="Utilde" unicode="&#x168;" horiz-adv-x="1323" 
d="M328 1366v-838q0 -59 2 -90t11 -81t32.5 -88.5t62.5 -71.5q41 -35 104.5 -56.5t121.5 -21.5t121 21.5t104 56.5q39 33 62.5 71.5t32.5 88.5t11 81t2 90v838h152v-879q0 -100 -17.5 -178.5t-68.5 -148.5q-63 -86 -167 -135.5t-232 -49.5t-232.5 49.5t-167.5 135.5
q-51 70 -68.5 148.5t-17.5 178.5v879h152zM891 1724l88 -71q-18 -49 -53 -84q-61 -64 -144 -64q-23 0 -47 6.5t-40 14t-50 24.5q-84 41 -115 41q-35 0 -61 -26q-27 -31 -35 -64l-90 74q19 52 62 92q55 55 129 55q51 0 139 -43q3 -2 16.5 -8.5t17.5 -9t15.5 -8t17.5 -7.5
t15.5 -5t17 -4t14.5 -1q37 0 66 29q25 25 37 59z" />
    <glyph glyph-name="utilde" unicode="&#x169;" horiz-adv-x="954" 
d="M287 850v-496q0 -41 1.5 -64t11 -58t28.5 -60q52 -66 149 -66q98 0 150 66q19 25 28.5 60t11 58t1.5 64v496h147v-512q0 -88 -15.5 -146.5t-62.5 -109.5q-102 -107 -260 -107t-260 107q-47 51 -62.5 109.5t-15.5 146.5v512h148zM248 1018l-86 69q33 57 69 93
q52 49 117 49q64 0 144 -41q32 -17 44 -23t32 -12t38 -6q38 0 60 24q26 29 43 64l84 -70q-15 -41 -54 -80q-59 -61 -135 -61q-48 0 -141 43q-83 39 -113 39t-59 -29q-23 -23 -43 -59z" />
    <glyph glyph-name="Umacron" unicode="&#x16a;" horiz-adv-x="1323" 
d="M328 1366v-838q0 -59 2 -90t11 -81t32.5 -88.5t62.5 -71.5q41 -35 104.5 -56.5t121.5 -21.5t121 21.5t104 56.5q39 33 62.5 71.5t32.5 88.5t11 81t2 90v838h152v-879q0 -100 -17.5 -178.5t-68.5 -148.5q-63 -86 -167 -135.5t-232 -49.5t-232.5 49.5t-167.5 135.5
q-51 70 -68.5 148.5t-17.5 178.5v879h152zM334 1501v131h655v-131h-655z" />
    <glyph glyph-name="umacron" unicode="&#x16b;" horiz-adv-x="954" 
d="M287 850v-496q0 -41 1.5 -64t11 -58t28.5 -60q52 -66 149 -66q98 0 150 66q19 25 28.5 60t11 58t1.5 64v496h147v-512q0 -88 -15.5 -146.5t-62.5 -109.5q-102 -107 -260 -107t-260 107q-47 51 -62.5 109.5t-15.5 146.5v512h148zM168 1051v123h618v-123h-618z" />
    <glyph glyph-name="Ubreve" unicode="&#x16c;" horiz-adv-x="1323" 
d="M328 1366v-838q0 -59 2 -90t11 -81t32.5 -88.5t62.5 -71.5q41 -35 104.5 -56.5t121.5 -21.5t121 21.5t104 56.5q39 33 62.5 71.5t32.5 88.5t11 81t2 90v838h152v-879q0 -100 -17.5 -178.5t-68.5 -148.5q-63 -86 -167 -135.5t-232 -49.5t-232.5 49.5t-167.5 135.5
q-51 70 -68.5 148.5t-17.5 178.5v879h152zM844 1722h135q-15 -78 -64 -137q-94 -108 -253 -108q-160 0 -254 108q-49 59 -64 137h135q14 -44 51 -73q52 -41 132 -41q79 0 131 41q37 29 51 73z" />
    <glyph glyph-name="ubreve" unicode="&#x16d;" horiz-adv-x="954" 
d="M287 850v-496q0 -41 1.5 -64t11 -58t28.5 -60q52 -66 149 -66q98 0 150 66q19 25 28.5 60t11 58t1.5 64v496h147v-512q0 -88 -15.5 -146.5t-62.5 -109.5q-102 -107 -260 -107t-260 107q-47 51 -62.5 109.5t-15.5 146.5v512h148zM180 1264h125q13 -48 49 -80
q49 -43 123 -43t123 43q36 32 49 80h125q-12 -68 -59 -138q-85 -108 -238 -108q-152 0 -237 108q-48 72 -60 138z" />
    <glyph glyph-name="Uring" unicode="&#x16e;" horiz-adv-x="1323" 
d="M328 1366v-838q0 -59 2 -90t11 -81t32.5 -88.5t62.5 -71.5q41 -35 104.5 -56.5t121.5 -21.5t121 21.5t104 56.5q39 33 62.5 71.5t32.5 88.5t11 81t2 90v838h152v-879q0 -100 -17.5 -178.5t-68.5 -148.5q-63 -86 -167 -135.5t-232 -49.5t-232.5 49.5t-167.5 135.5
q-51 70 -68.5 148.5t-17.5 178.5v879h152zM481 1675q0 73 53.5 126.5t127.5 53.5t127 -53.5t53 -126.5t-53 -126.5t-127 -53.5t-127.5 53.5t-53.5 126.5zM575 1677q0 -34 26.5 -60t60.5 -26t60 26t26 60t-26 60t-60 26t-60.5 -26t-26.5 -60z" />
    <glyph glyph-name="uring" unicode="&#x16f;" horiz-adv-x="954" 
d="M287 850v-496q0 -41 1.5 -64t11 -58t28.5 -60q52 -66 149 -66q98 0 150 66q19 25 28.5 60t11 58t1.5 64v496h147v-512q0 -88 -15.5 -146.5t-62.5 -109.5q-102 -107 -260 -107t-260 107q-47 51 -62.5 109.5t-15.5 146.5v512h148zM301 1194q0 72 52 124t124 52t124 -52
t52 -124t-52 -124t-124 -52t-124 52t-52 124zM391 1194q0 -34 26 -60t60 -26t60 26t26 60t-26 60t-60 26t-60 -26t-26 -60z" />
    <glyph glyph-name="Uhungarumlaut" unicode="&#x170;" horiz-adv-x="1323" 
d="M328 1366v-838q0 -59 2 -90t11 -81t32.5 -88.5t62.5 -71.5q41 -35 104.5 -56.5t121.5 -21.5t121 21.5t104 56.5q39 33 62.5 71.5t32.5 88.5t11 81t2 90v838h152v-879q0 -100 -17.5 -178.5t-68.5 -148.5q-63 -86 -167 -135.5t-232 -49.5t-232.5 49.5t-167.5 135.5
q-51 70 -68.5 148.5t-17.5 178.5v879h152zM670 1806l143 -82l-301 -249l-88 53zM977 1806l143 -82l-301 -249l-88 53z" />
    <glyph glyph-name="uhungarumlaut" unicode="&#x171;" horiz-adv-x="954" 
d="M287 850v-496q0 -41 1.5 -64t11 -58t28.5 -60q52 -66 149 -66q98 0 150 66q19 25 28.5 60t11 58t1.5 64v496h147v-512q0 -88 -15.5 -146.5t-62.5 -109.5q-102 -107 -260 -107t-260 107q-47 51 -62.5 109.5t-15.5 146.5v512h148zM477 1364l148 -66l-281 -278l-84 47z
M752 1364l143 -66l-277 -278l-83 47z" />
    <glyph glyph-name="Uogonek" unicode="&#x172;" horiz-adv-x="1323" 
d="M328 1366v-864q0 -93 16.5 -160.5t71.5 -124.5q43 -43 111 -70.5t135 -27.5q58 0 121 21.5t104 56.5q38 32 62 72t33 87.5t11 75t2 74.5v860h152v-879q0 -48 -3 -85.5t-13.5 -90t-36 -101t-64.5 -89.5q-12 -12 -27.5 -24.5t-37.5 -26.5t-36.5 -23t-43 -25.5t-37.5 -21.5
q-84 -47 -112 -76q-5 -5 -9 -10q-41 -47 -41 -98q0 -36 27 -60q27 -22 80 -22q50 0 98 26l-17 -120q-59 -29 -120 -29q-95 0 -156 61q-43 46 -43 115q0 64 43 123q27 39 64 65q-115 0 -223.5 45.5t-176.5 139.5q-51 70 -68.5 148t-17.5 179v879h152z" />
    <glyph glyph-name="uogonek" unicode="&#x173;" horiz-adv-x="954" 
d="M287 850v-496q0 -41 1.5 -64t11 -58t28.5 -60q52 -66 149 -66q98 0 150 66q19 25 28.5 60t11 58t1.5 64v496h147v-512q0 -53 -3 -87t-21.5 -83.5t-53.5 -85.5q-14 -14 -30.5 -26.5t-26.5 -19t-34 -21t-32 -19.5q-68 -41 -102 -84q-41 -48 -41 -96q0 -40 27 -60
q28 -22 80 -22q51 0 98 26l-17 -112q-50 -29 -116 -29q-93 0 -150 57q-45 45 -45 113q0 60 33 107q28 41 76 79q-146 7 -240 107q-47 51 -62.5 109.5t-15.5 146.5v512h148z" />
    <glyph glyph-name="Ydieresis" unicode="&#x178;" horiz-adv-x="1085" 
d="M465 0v588l-449 778h177l348 -610l352 610h176l-453 -778v-588h-151zM244 1606q0 43 30.5 73.5t73.5 30.5t74 -30.5t31 -73.5t-31 -74t-74 -31t-73.5 31t-30.5 74zM633 1606q0 43 30.5 73.5t73.5 30.5t74 -30.5t31 -73.5t-31 -74t-74 -31t-73.5 31t-30.5 74z" />
    <glyph glyph-name="Zacute" unicode="&#x179;" horiz-adv-x="1097" 
d="M1049 1366l-746 -1223h725v-143h-979l746 1223h-650v143h904zM717 1806l143 -92l-313 -239l-88 65z" />
    <glyph glyph-name="zacute" unicode="&#x17a;" horiz-adv-x="942" 
d="M926 850l-615 -715h590v-135h-885l615 715h-496v135h791zM598 1364l152 -70l-275 -276l-92 49z" />
    <glyph glyph-name="Zdotaccent" unicode="&#x17b;" horiz-adv-x="1097" 
d="M1049 1366l-746 -1223h725v-143h-979l746 1223h-650v143h904zM461 1606q0 50 31.5 81t80.5 31q50 0 81.5 -31.5t31.5 -80.5q0 -50 -32 -81.5t-81 -31.5t-80.5 31.5t-31.5 81.5z" />
    <glyph glyph-name="zdotaccent" unicode="&#x17c;" horiz-adv-x="942" 
d="M926 850l-615 -715h590v-135h-885l615 715h-496v135h791zM403 1133q0 46 31.5 77t77.5 31t77.5 -31t31.5 -77t-31.5 -77.5t-77.5 -31.5t-77.5 31.5t-31.5 77.5z" />
    <glyph glyph-name="Zcaron" unicode="&#x17d;" horiz-adv-x="1097" 
d="M1049 1366l-746 -1223h725v-143h-979l746 1223h-650v143h904zM573 1649l181 155l106 -84l-287 -243l-286 243l106 84z" />
    <glyph glyph-name="zcaron" unicode="&#x17e;" horiz-adv-x="942" 
d="M926 850l-615 -715h590v-135h-885l615 715h-496v135h791zM512 1174l188 165l95 -73l-283 -248l-283 248l95 73z" />
    <glyph glyph-name="uni018F" unicode="&#x18f;" horiz-adv-x="1548" 
d="M270 989l-112 103q68 92 157 161q177 136 418 136q201 0 364.5 -93.5t256 -255.5t92.5 -358t-91.5 -358t-253.5 -255.5t-360 -93.5q-170 0 -300 69.5t-208 176.5q-63 86 -97 200.5t-34 231.5v33h1188q0 152 -69.5 279.5t-198.5 203.5t-291 76q-194 0 -332 -115
q-70 -57 -129 -141zM1276 543h-1018q5 -109 55 -195q59 -105 171 -167t247 -62q198 0 351 119.5t194 304.5z" />
    <glyph glyph-name="florin" unicode="&#x192;" horiz-adv-x="1163" 
d="M874 727h-221l-125 -674q-19 -107 -44.5 -178.5t-82.5 -126.5q-99 -96 -284 -96q-36 0 -86 8l28 131q28 -4 52 -4q121 0 182 59q62 62 98 263l113 618h-148l19 123h151l68 367q29 160 100 231q68 68 189 68q65 0 131 -21l-27 -137q-53 22 -94 22q-53 0 -90 -32
q-43 -43 -66 -172l-61 -326h217z" />
    <glyph glyph-name="uni01CF" unicode="&#x1cf;" horiz-adv-x="503" 
d="M174 1366h152v-1366h-152v1366zM252 1649l180 155l107 -84l-287 -243l-287 243l107 84z" />
    <glyph glyph-name="uni01D0" unicode="&#x1d0;" horiz-adv-x="425" 
d="M139 850h148v-850h-148v850zM213 1186l154 137l88 -72l-242 -217l-242 217l88 72z" />
    <glyph glyph-name="uni01DD" unicode="&#x1dd;" horiz-adv-x="987" 
d="M215 561l-123 68q43 81 105 137q114 104 282 104q63 0 122.5 -15.5t114.5 -50.5t95.5 -85.5t65 -126t24.5 -166.5q0 -195 -112.5 -323t-301.5 -128q-114 0 -195 45t-128 111q-43 61 -63.5 148.5t-14.5 171.5h664q-1 129 -79.5 208.5t-193.5 79.5q-104 0 -174 -61
q-58 -49 -88 -117zM737 328h-499q15 -99 83 -160.5t166 -61.5q93 0 163 63t87 159z" />
    <glyph glyph-name="Gcaron" unicode="&#x1e6;" horiz-adv-x="1552" 
d="M881 543v143h569v-33q0 -117 -34 -231.5t-97 -200.5q-18 -25 -38.5 -47.5t-68 -62t-99.5 -67t-132.5 -48.5t-169.5 -21q-200 0 -362.5 93.5t-254.5 255.5t-92 358t92.5 358t256 255.5t364.5 93.5q241 0 418 -136q91 -70 158 -161l-113 -103q-59 84 -129 141
q-143 115 -332 115q-162 0 -290.5 -75t-198.5 -203.5t-70 -286.5q0 -108 33 -201t88 -158t127 -111.5t150 -68.5t157 -22q135 0 247 62.5t171 166.5q50 86 55 195h-405zM776 1649l180 155l107 -84l-287 -243l-287 243l107 84z" />
    <glyph glyph-name="gcaron" unicode="&#x1e7;" horiz-adv-x="1077" 
d="M791 729v121h147v-830q0 -66 -2.5 -106.5t-22 -108t-57.5 -118.5q-51 -70 -139 -114t-201 -44q-188 0 -303 115q-111 111 -111 274h146q0 -104 65 -176q74 -82 205 -82q154 0 225 119q48 78 48 217v123q-112 -144 -291 -144q-176 0 -291 115q-123 123 -123 336
q0 207 123 330q55 54 130.5 84t160.5 30q182 0 291 -141zM516 739q-112 0 -192 -80q-86 -88 -86 -233q0 -161 96 -250q77 -70 182 -70q114 0 186 72q44 42 70.5 107.5t26.5 138.5t-24.5 137t-65.5 103q-75 75 -193 75zM539 1174l188 165l94 -73l-282 -248l-283 248l94 73z
" />
    <glyph glyph-name="AEacute" unicode="&#x1fc;" horiz-adv-x="1843" 
d="M1102 0l-162 383h-582l-161 -383h-168l608 1366h600l59 -143h-551l170 -406h541l60 -143h-537l221 -531h555l60 -143h-713zM424 526h457l-226 535zM1090 1806l143 -92l-313 -239l-89 65z" />
    <glyph glyph-name="aeacute" unicode="&#x1fd;" horiz-adv-x="1585" 
d="M1366 287l123 -74q-24 -45 -55 -83.5t-77 -75.5t-110.5 -58t-140.5 -21q-218 0 -334 170q-96 -170 -319 -170q-158 0 -262.5 72t-104.5 205q0 132 100 206t254 74q144 0 244 -71q4 110 -39 180q-57 98 -203 98q-112 0 -262 -53v139q137 45 264 45q240 0 322 -172
q52 84 138 128t190 44q186 0 295.5 -125t109.5 -335v-15h-663q4 -125 81 -207t187 -82q85 0 154 51t108 130zM846 518h502q-13 102 -83.5 161.5t-168.5 59.5q-95 0 -164 -59t-86 -162zM453 401q-105 0 -162.5 -42t-57.5 -107q0 -25 10.5 -49t33.5 -46.5t67.5 -36.5
t104.5 -14q116 0 171.5 46.5t55.5 105.5q0 54 -54.5 98.5t-168.5 44.5zM920 1364l151 -70l-274 -276l-92 49z" />
    <glyph glyph-name="Scommaaccent" unicode="&#x218;" horiz-adv-x="1060" 
d="M907 1176l-121 -80q-31 63 -79 102q-63 47 -154 47q-102 0 -165.5 -58t-63.5 -153q0 -39 11.5 -66t39.5 -53q19 -19 46.5 -36.5t43.5 -25t53 -24.5l131 -57q146 -64 211 -129q98 -98 98 -248q0 -187 -122.5 -303.5t-309.5 -116.5q-184 0 -297 111q-94 91 -127 242l148 41
q14 -103 82 -174q76 -76 196 -76q132 0 203.5 79.5t71.5 190.5q0 98 -68 160q-18 17 -46 34.5t-49.5 28t-68.5 31.5l-122 57q-3 1 -20 9t-23 11l-22 11t-24 13t-22.5 14t-25 16.5t-23 17.5t-23.5 21q-47 45 -70.5 97.5t-23.5 125.5q0 157 108 255t275 98q125 0 219 -62
q83 -56 133 -151zM385 -430l115 328l131 -50l-144 -319z" />
    <glyph glyph-name="scommaaccent" unicode="&#x219;" horiz-adv-x="720" 
d="M610 717l-121 -64q-16 38 -47 62t-71 24q-43 0 -73 -24.5t-30 -71.5q0 -42 28 -64t110 -57q160 -66 212 -131q46 -56 46 -137q0 -130 -83 -204.5t-210 -74.5q-18 0 -38 2t-60.5 14t-74 33t-69 65t-55.5 104l127 53q7 -21 19 -41.5t32.5 -44.5t52 -39t68.5 -15
q67 0 103 41.5t36 94.5q0 29 -9 50t-31 38t-40.5 26.5t-56.5 26.5q-86 38 -133 65t-74 60q-39 48 -39 125q0 110 69 173.5t179 63.5q161 0 233 -153zM225 -430l115 328l131 -50l-143 -319z" />
    <glyph glyph-name="Tcommaaccent" unicode="&#x21a;" horiz-adv-x="872" 
d="M844 1223h-332v-1223h-152v1223h-331v143h815v-143zM262 -430l115 328l131 -50l-143 -319z" />
    <glyph glyph-name="tcommaaccent" unicode="&#x21b;" horiz-adv-x="438" 
d="M438 715h-147v-715h-148v715h-90v135h90v307h148v-307h147v-135zM61 -430l115 328l131 -50l-143 -319z" />
    <glyph glyph-name="uni0228" unicode="&#x228;" horiz-adv-x="987" 
d="M885 1366v-143h-557v-406h540v-143h-540v-531h557v-143h-709v1366h709zM522 -106l144 -62l-213 -262l-103 53z" />
    <glyph glyph-name="uni0229" unicode="&#x229;" horiz-adv-x="985" 
d="M770 285l123 -68q-43 -81 -105 -137q-117 -105 -282 -105q-80 0 -152.5 26t-133.5 77.5t-97.5 140t-36.5 201.5q0 195 112 322.5t300 127.5q114 0 195 -45t126 -110q39 -56 61 -145t19 -175h-661q1 -129 79 -209t191 -80q100 0 174 62q58 49 88 117zM248 518h500
q-19 100 -87.5 160.5t-162.5 60.5q-93 0 -163 -62.5t-87 -158.5zM524 -106l135 -56l-206 -262l-101 49z" />
    <glyph glyph-name="uni0237" unicode="&#x237;" horiz-adv-x="425" 
d="M139 850h148v-1321h-148v1321z" />
    <glyph glyph-name="uni0259" unicode="&#x259;" horiz-adv-x="987" 
d="M215 561l-123 68q43 81 105 137q114 104 282 104q63 0 122.5 -15.5t114.5 -50.5t95.5 -85.5t65 -126t24.5 -166.5q0 -195 -112.5 -323t-301.5 -128q-114 0 -195 45t-128 111q-43 61 -63.5 148.5t-14.5 171.5h664q-1 129 -79.5 208.5t-193.5 79.5q-104 0 -174 -61
q-58 -49 -88 -117zM737 328h-499q15 -99 83 -160.5t166 -61.5q93 0 163 63t87 159z" />
    <glyph glyph-name="afii57929" unicode="&#x2bc;" 
d="M389 1085l107 328l131 -49l-144 -320z" />
    <glyph glyph-name="circumflex" unicode="&#x2c6;" 
d="M512 1184l-188 -166l-95 74l283 247l283 -247l-95 -74z" />
    <glyph glyph-name="caron" unicode="&#x2c7;" 
d="M512 1174l188 165l95 -73l-283 -248l-283 248l95 73z" />
    <glyph glyph-name="uni02C9" unicode="&#x2c9;" 
d="M203 1051v123h618v-123h-618z" />
    <glyph glyph-name="breve" unicode="&#x2d8;" 
d="M215 1264h125q13 -48 49 -80q49 -43 123 -43t123 43q36 32 49 80h125q-12 -68 -59 -138q-85 -108 -238 -108t-238 108q-47 70 -59 138z" />
    <glyph glyph-name="dotaccent" unicode="&#x2d9;" 
d="M403 1133q0 46 31.5 77t77.5 31t77.5 -31t31.5 -77t-31.5 -77.5t-77.5 -31.5t-77.5 31.5t-31.5 77.5z" />
    <glyph glyph-name="ring" unicode="&#x2da;" 
d="M336 1194q0 72 52 124t124 52t124 -52t52 -124t-52 -124t-124 -52t-124 52t-52 124zM426 1194q0 -34 26 -60t60 -26t60 26t26 60t-26 60t-60 26t-60 -26t-26 -60z" />
    <glyph glyph-name="ogonek" unicode="&#x2db;" 
d="M745 -240l-16 -112q-54 -29 -115 -29q-79 0 -137.5 47.5t-58.5 122.5q0 69 49 131q38 50 98 80h119q-61 -39 -96 -80q-47 -56 -47 -104q0 -35 24.5 -58.5t81.5 -23.5q55 0 98 26z" />
    <glyph glyph-name="tilde" unicode="&#x2dc;" 
d="M283 1018l-86 69q33 57 69 93q52 49 117 49q63 0 143 -41q31 -16 44 -22.5t32.5 -12.5t38.5 -6q37 0 59 24q26 29 43 64l84 -70q-16 -43 -53 -80q-59 -61 -135 -61q-48 0 -141 43q-83 39 -113 39t-59 -29q-23 -23 -43 -59z" />
    <glyph glyph-name="hungarumlaut" unicode="&#x2dd;" 
d="M512 1364l147 -66l-280 -278l-84 47zM786 1364l144 -66l-277 -278l-84 47z" />
    <glyph glyph-name="acutecomb" unicode="&#x301;" horiz-adv-x="4" 
d="M-381 1364l152 -70l-275 -276l-92 49z" />
    <glyph glyph-name="uni0394" unicode="&#x394;" horiz-adv-x="1368" 
d="M1311 0h-1254l549 1366h156zM684 1176l-410 -1033h820z" />
    <glyph glyph-name="uni0394" unicode="&#x2206;" horiz-adv-x="1368" 
d="M1311 0h-1254l549 1366h156zM684 1176l-410 -1033h820z" />
    <glyph glyph-name="uni03A9" unicode="&#x3a9;" horiz-adv-x="1368" 
d="M776 0v143q75 40 150 102.5t123 129.5q104 153 104 346q0 255 -156 403q-128 121 -313 121t-313 -121q-156 -148 -156 -403q0 -193 104 -346q48 -67 123 -129.5t150 -102.5v-143h-533v143h367q-154 80 -248 211q-119 165 -119 381q0 149 51 275t138 211q168 168 436 168
t436 -168q87 -85 138 -211t51 -275q0 -216 -119 -381q-94 -131 -248 -211h367v-143h-533z" />
    <glyph glyph-name="uni03A9" unicode="&#x2126;" horiz-adv-x="1368" 
d="M776 0v143q75 40 150 102.5t123 129.5q104 153 104 346q0 255 -156 403q-128 121 -313 121t-313 -121q-156 -148 -156 -403q0 -193 104 -346q48 -67 123 -129.5t150 -102.5v-143h-533v143h367q-154 80 -248 211q-119 165 -119 381q0 149 51 275t138 211q168 168 436 168
t436 -168q87 -85 138 -211t51 -275q0 -216 -119 -381q-94 -131 -248 -211h367v-143h-533z" />
    <glyph glyph-name="pi" unicode="&#x3c0;" horiz-adv-x="1101" 
d="M356 0h-147v715h-152v135h987v-135h-151v-715h-148v715h-389v-715z" />
    <glyph glyph-name="afii10023" unicode="&#x401;" horiz-adv-x="987" 
d="M885 1366v-143h-557v-406h540v-143h-540v-531h557v-143h-709v1366h709zM229 1606q0 43 31 73.5t74 30.5t73.5 -30.5t30.5 -73.5t-30.5 -74t-73.5 -31t-74 31t-31 74zM618 1606q0 43 31 73.5t74 30.5t73.5 -30.5t30.5 -73.5t-30.5 -74t-73.5 -31t-74 31t-31 74z" />
    <glyph glyph-name="afii10051" unicode="&#x402;" horiz-adv-x="1323" 
d="M922 1223h-414v-435q146 48 280 48q245 0 359 -138q90 -111 90 -301q0 -123 -41.5 -207t-101.5 -127q-101 -75 -275 -75q-57 0 -139 12v143q56 -12 129 -12q126 0 190 55q82 68 82 213q0 130 -57 199q-36 42 -100.5 68t-149.5 26q-133 0 -266 -47v-645h-152v1223h-327
v143h893v-143z" />
    <glyph glyph-name="afii10052" unicode="&#x403;" horiz-adv-x="827" 
d="M176 0v1366h623v-143h-471v-1223h-152zM659 1806l144 -92l-314 -239l-88 65z" />
    <glyph glyph-name="afii10053" unicode="&#x404;" horiz-adv-x="1320" 
d="M1219 1253v-188q-76 76 -179 123q-129 57 -276 57q-206 0 -345.5 -134.5t-154.5 -332.5h791v-143h-797q-1 -150 71 -269.5t187.5 -183t249.5 -63.5q155 0 295 67q98 48 158 111v-188q-207 -134 -453 -134q-151 0 -277 54t-210 148t-130.5 223t-46.5 278q0 152 47.5 283
t133 225.5t212.5 148.5t279 54q248 0 445 -136z" />
    <glyph glyph-name="afii10054" unicode="&#x405;" horiz-adv-x="1060" 
d="M907 1176l-121 -80q-31 63 -79 102q-63 47 -154 47q-102 0 -165.5 -58t-63.5 -153q0 -39 11.5 -66t39.5 -53q19 -19 46.5 -36.5t43.5 -25t53 -24.5l131 -57q146 -64 211 -129q98 -98 98 -248q0 -187 -122.5 -303.5t-309.5 -116.5q-184 0 -297 111q-94 91 -127 242l148 41
q14 -103 82 -174q76 -76 196 -76q132 0 203.5 79.5t71.5 190.5q0 98 -68 160q-18 17 -46 34.5t-49.5 28t-68.5 31.5l-122 57q-3 1 -20 9t-23 11l-22 11t-24 13t-22.5 14t-25 16.5t-23 17.5t-23.5 21q-47 45 -70.5 97.5t-23.5 125.5q0 157 108 255t275 98q125 0 219 -62
q83 -56 133 -151z" />
    <glyph glyph-name="afii10055" unicode="&#x406;" horiz-adv-x="503" 
d="M176 1366h152v-1366h-152v1366z" />
    <glyph glyph-name="afii10056" unicode="&#x407;" horiz-adv-x="503" 
d="M176 1366h152v-1366h-152v1366zM31 1606q0 43 26.5 73.5t65.5 30.5t65.5 -31t26.5 -73t-26.5 -73.5t-65.5 -31.5t-65.5 31t-26.5 74zM289 1606q0 42 26.5 73t65.5 31t65.5 -30.5t26.5 -73.5t-26.5 -74t-65.5 -31t-65.5 31.5t-26.5 73.5z" />
    <glyph glyph-name="afii10057" unicode="&#x408;" horiz-adv-x="626" 
d="M299 1366h152v-983q0 -73 -3 -117t-23 -104.5t-58 -100.5q-79 -86 -217 -86q-156 0 -244 101l84 119q70 -76 155 -76q64 0 103 39q24 24 36 64.5t13.5 70.5t1.5 86v987z" />
    <glyph glyph-name="afii10058" unicode="&#x409;" horiz-adv-x="1888" 
d="M315 1366h832v-567h184q42 0 79.5 -3t87 -12.5t90 -25.5t81.5 -45.5t69.5 -69t46 -98.5t17.5 -131q0 -193 -119.5 -303.5t-322.5 -110.5h-365v1223h-528v-734q0 -148 -14 -217q-26 -127 -109 -202q-91 -82 -233 -82q-33 0 -82 12v143q40 -12 75 -12q81 0 134 53
q19 19 33 43t22.5 59t13 57.5t6.5 70.5t2 65v72v815zM1147 655v-512h176q34 0 56.5 1.5t61 7.5t73 23t61.5 44q72 68 72 195q0 147 -111 207q-29 16 -72 24t-71 9t-86 1h-160z" />
    <glyph glyph-name="afii10059" unicode="&#x40a;" horiz-adv-x="1921" 
d="M328 1366v-567h700v567h152v-567h184q42 0 79.5 -3t87 -12.5t90 -25.5t81.5 -45.5t69.5 -69t46 -98.5t17.5 -131q0 -193 -119.5 -303.5t-322.5 -110.5h-365v655h-700v-655h-152v1366h152zM1180 655v-512h176q34 0 56.5 1.5t61 7.5t73 23t61.5 44q71 67 71 195
q0 147 -110 207q-29 16 -72.5 24t-71 9t-86.5 1h-159z" />
    <glyph glyph-name="afii10060" unicode="&#x40b;" horiz-adv-x="1388" 
d="M922 1223h-414v-402q205 15 283 15q241 0 337 -74q41 -31 68 -72t38 -87t15 -81t4 -78v-444h-151v424q0 30 -1.5 51t-8.5 57t-25 66t-47 51q-34 26 -91 34.5t-147 8.5q-120 0 -274 -14v-678h-152v1223h-327v143h893v-143z" />
    <glyph glyph-name="afii10061" unicode="&#x40c;" horiz-adv-x="1163" 
d="M328 1366v-586l581 586h205l-639 -637l660 -729h-209l-559 627l-39 -39v-588h-152v1366h152zM750 1806l143 -92l-313 -239l-88 65z" />
    <glyph glyph-name="afii10062" unicode="&#x40e;" horiz-adv-x="1163" 
d="M16 1366h185l426 -805l356 805h164l-617 -1366h-163l174 381zM276 1675l144 47q9 -32 29.5 -55t41 -34t45.5 -17t36.5 -7t21.5 -1t21.5 1t36.5 7t45.5 17t41 34t29.5 55l143 -47q-5 -16 -15 -34.5t-35 -49.5t-58 -55t-88 -41.5t-121 -17.5t-121.5 17.5t-88 41.5t-58 55
t-35.5 49.5t-15 34.5z" />
    <glyph glyph-name="afii10145" unicode="&#x40f;" horiz-adv-x="1347" 
d="M176 0v1366h152v-1223h692v1223h151v-1366h-426v-328h-143v328h-426z" />
    <glyph glyph-name="afii10017" unicode="&#x410;" horiz-adv-x="1273" 
d="M1090 0l-160 385h-582l-164 -385h-168l629 1432l612 -1432h-167zM408 528h462l-229 547z" />
    <glyph glyph-name="afii10018" unicode="&#x411;" horiz-adv-x="1085" 
d="M176 0v1366h678v-143h-526v-424h184q42 0 79.5 -3t87 -12.5t90 -25.5t81.5 -45.5t69.5 -69t46 -98.5t17.5 -131q0 -193 -119.5 -303.5t-322.5 -110.5h-365zM328 655v-512h176q34 0 56.5 1.5t61 7.5t73 23t61.5 44q71 67 71 195q0 147 -110 207q-29 16 -72.5 24t-71 9
t-86.5 1h-159z" />
    <glyph glyph-name="afii10019" unicode="&#x412;" horiz-adv-x="1085" 
d="M176 1366h246q206 0 313 -86q47 -36 85 -105t38 -178q0 -177 -135 -268q68 -17 120 -54.5t81.5 -86.5t44 -100t14.5 -103q0 -93 -39.5 -171t-99.5 -124q-39 -31 -82 -50.5t-89.5 -27t-79 -10t-77.5 -2.5h-340v1366zM328 1223v-457h114q31 0 59.5 3t69 16.5t69.5 36t50 67
t21 104.5q0 46 -13 83.5t-32 61t-46.5 40.5t-51 25.5t-51.5 13t-42.5 5.5t-28.5 1h-118zM328 631v-488h174q79 0 136.5 11.5t102.5 46.5q41 30 65.5 79t24.5 109q0 74 -34 124.5t-82 76.5q-72 41 -232 41h-155z" />
    <glyph glyph-name="afii10020" unicode="&#x413;" horiz-adv-x="827" 
d="M176 0v1366h623v-143h-471v-1223h-152z" />
    <glyph glyph-name="afii10021" unicode="&#x414;" horiz-adv-x="1310" 
d="M295 1366h831v-1223h156v-430h-143v287h-967v-287h-143v430q70 -3 127 50t90 135q49 123 49 358v680zM446 1223v-537q0 -253 -49 -381q-35 -93 -104 -162h682v1080h-529z" />
    <glyph glyph-name="afii10022" unicode="&#x415;" horiz-adv-x="987" 
d="M885 1366v-143h-557v-406h540v-143h-540v-531h557v-143h-709v1366h709z" />
    <glyph glyph-name="afii10024" unicode="&#x416;" horiz-adv-x="1658" 
d="M754 1366h151v-586l520 586h189l-574 -637l590 -729h-192l-500 625l-33 -37v-588h-151v588l-33 37l-500 -625h-192l589 729l-573 637h188l521 -586v586z" />
    <glyph glyph-name="afii10025" unicode="&#x417;" horiz-adv-x="1179" 
d="M322 1098l-117 92q135 199 391 199q183 0 289 -97q106 -95 106 -252q0 -100 -52 -174.5t-136 -113.5q132 -30 203 -126.5t71 -226.5q0 -214 -170 -333q-133 -91 -311 -91q-97 0 -180 28t-143 76.5t-101.5 104t-69.5 119.5l148 66q41 -116 135 -183t217 -67q126 0 209 57
q111 77 111 219q0 60 -17 106.5t-48.5 74.5t-66 47t-80 27t-79.5 11t-74 3h-123v143h123q136 0 207.5 65.5t71.5 165.5q0 88 -56 144q-61 63 -184 63q-82 0 -149.5 -32t-124.5 -115z" />
    <glyph glyph-name="afii10026" unicode="&#x418;" horiz-adv-x="1454" 
d="M1126 0v1042l-950 -1103v1427h152v-1047l950 1104v-1423h-152z" />
    <glyph glyph-name="afii10027" unicode="&#x419;" horiz-adv-x="1454" 
d="M1126 0v1042l-950 -1103v1427h152v-1047l950 1104v-1423h-152zM410 1675l143 47q9 -32 29.5 -55t41 -34t45.5 -17t36.5 -7t21.5 -1t21.5 1t36.5 7t45.5 17t41 34t29.5 55l143 -47q-5 -16 -15 -34.5t-35 -49.5t-58 -55t-88 -41.5t-121 -17.5t-121 17.5t-88 41.5t-58 55
t-35 49.5t-15 34.5z" />
    <glyph glyph-name="afii10028" unicode="&#x41a;" horiz-adv-x="1163" 
d="M328 1366v-586l581 586h205l-639 -637l660 -729h-209l-559 627l-39 -39v-588h-152v1366h152z" />
    <glyph glyph-name="afii10029" unicode="&#x41b;" horiz-adv-x="1323" 
d="M315 1366h832v-1366h-152v1223h-528v-734q0 -148 -14 -217q-26 -127 -109 -202q-91 -82 -233 -82q-33 0 -82 12v143q40 -12 75 -12q81 0 134 53q19 19 33 43t22.5 59t13 57.5t6.5 70.5t2 65v72v815z" />
    <glyph glyph-name="afii10030" unicode="&#x41c;" horiz-adv-x="1767" 
d="M285 0h-156l227 1442l525 -1153l534 1155l213 -1444h-155l-130 950l-464 -1007l-459 1007z" />
    <glyph glyph-name="afii10031" unicode="&#x41d;" horiz-adv-x="1355" 
d="M328 1366v-555h700v555h152v-1366h-152v668h-700v-668h-152v1366h152z" />
    <glyph glyph-name="afii10032" unicode="&#x41e;" horiz-adv-x="1626" 
d="M813 -25q-146 0 -277.5 54t-226.5 147t-151 225t-56 281q0 150 56 282t151.5 225t226.5 146.5t277 53.5t277 -53.5t226.5 -146.5t151.5 -225t56 -282q0 -149 -56 -281t-151 -225t-226.5 -147t-277.5 -54zM813 1245q-151 0 -279 -75t-202 -204.5t-74 -283.5t74 -283.5
t202 -204.5t279 -75t279 75t202 204.5t74 283.5t-74 283.5t-202 204.5t-279 75z" />
    <glyph glyph-name="afii10033" unicode="&#x41f;" horiz-adv-x="1355" 
d="M176 1366h1004v-1366h-152v1223h-700v-1223h-152v1366z" />
    <glyph glyph-name="afii10034" unicode="&#x420;" horiz-adv-x="933" 
d="M176 1366h248q115 0 197.5 -20t146.5 -76q125 -108 125 -293q0 -60 -14.5 -114t-48 -104t-82.5 -86t-123 -57.5t-164 -21.5h-133v-594h-152v1366zM328 1223v-486h125q136 0 212 65t76 183q0 62 -22.5 108t-54.5 70t-76.5 38.5t-78 18t-69.5 3.5h-112z" />
    <glyph glyph-name="afii10035" unicode="&#x421;" horiz-adv-x="1323" 
d="M1221 1253v-188q-81 81 -179 127q-116 53 -235 53q-154 0 -280.5 -76t-197.5 -206.5t-71 -286.5q0 -107 33.5 -199.5t88.5 -157t127 -110.5t149 -68t153 -22q131 0 254 63q86 43 158 115v-188q-187 -134 -412 -134q-200 0 -362 93t-253.5 254t-91.5 356q0 151 54.5 283
t149 226t227.5 148t284 54q226 0 404 -136z" />
    <glyph glyph-name="afii10036" unicode="&#x422;" horiz-adv-x="872" 
d="M844 1223h-332v-1223h-152v1223h-331v143h815v-143z" />
    <glyph glyph-name="afii10037" unicode="&#x423;" horiz-adv-x="1163" 
d="M16 1366h185l426 -805l356 805h164l-617 -1366h-163l174 381z" />
    <glyph glyph-name="afii10038" unicode="&#x424;" horiz-adv-x="1683" 
d="M766 0v193h-37q-106 0 -194.5 18t-152 48.5t-113.5 73.5t-80.5 89.5t-50.5 100.5t-28 103t-8 99t8 99t28 103t50.5 100.5t80.5 89.5t113.5 73.5t152 48.5t194.5 18h37v164h152v-164h36q106 0 194.5 -18t152 -48.5t113.5 -73.5t80.5 -89.5t50.5 -100.5t28 -103t8 -99
t-8 -99t-28 -103t-50.5 -100.5t-80.5 -89.5t-113.5 -73.5t-152 -48.5t-194.5 -18h-36v-193h-152zM766 336v778h-41q-108 0 -191.5 -24t-134.5 -62.5t-83.5 -91t-45 -104t-12.5 -107.5t12.5 -107.5t45 -104t83.5 -91t134.5 -62.5t191.5 -24h41zM918 1114v-778h40
q108 0 191.5 24t134.5 62.5t83.5 91t45 104t12.5 107.5t-12.5 107.5t-45 104t-83.5 91t-134.5 62.5t-191.5 24h-40z" />
    <glyph glyph-name="afii10039" unicode="&#x425;" horiz-adv-x="1032" 
d="M29 0l403 707l-366 659h172l282 -514l291 514h172l-375 -659l396 -707h-173l-313 561l-317 -561h-172z" />
    <glyph glyph-name="afii10040" unicode="&#x426;" horiz-adv-x="1355" 
d="M176 0v1366h152v-1223h692v1223h151v-1223h156v-430h-143v287h-1008z" />
    <glyph glyph-name="afii10041" unicode="&#x427;" horiz-adv-x="1208" 
d="M881 0v586q-205 -15 -283 -15q-242 0 -338 74q-41 31 -68 72t-38 87t-15 81t-4 78v403h152v-383q0 -30 1.5 -51t8.5 -57t25 -66t47 -51q34 -26 90.5 -34.5t146.5 -8.5q121 0 275 14v637h151v-1366h-151z" />
    <glyph glyph-name="afii10042" unicode="&#x428;" horiz-adv-x="1888" 
d="M176 0v1366h152v-1223h540v1223h152v-1223h541v1223h151v-1366h-1536z" />
    <glyph glyph-name="afii10043" unicode="&#x429;" horiz-adv-x="1896" 
d="M176 0v1366h152v-1223h540v1223h152v-1223h541v1223h151v-1223h156v-430h-144v287h-1548z" />
    <glyph glyph-name="afii10044" unicode="&#x42a;" horiz-adv-x="1249" 
d="M356 0v1223h-327v143h479v-567h184q42 0 79.5 -3t87 -12.5t90 -25.5t81.5 -45.5t69.5 -69t46 -98.5t17.5 -131q0 -193 -119.5 -303.5t-322.5 -110.5h-365zM508 655v-512h176q34 0 56.5 1.5t61 7.5t73 23t61.5 44q72 68 72 195q0 147 -111 207q-29 16 -72 24t-71 9t-86 1
h-160z" />
    <glyph glyph-name="afii10045" unicode="&#x42b;" horiz-adv-x="1454" 
d="M176 0v1366h152v-567h184q42 0 79.5 -3t87 -12.5t90 -25.5t81.5 -45.5t69.5 -69t46 -98.5t17.5 -131q0 -193 -119.5 -303.5t-322.5 -110.5h-365zM328 655v-512h176q34 0 56.5 1.5t61 7.5t73 23t61.5 44q71 67 71 195q0 147 -110 207q-29 16 -72.5 24t-71 9t-86.5 1h-159z
M1126 1366h152v-1366h-152v1366z" />
    <glyph glyph-name="afii10046" unicode="&#x42c;" horiz-adv-x="1069" 
d="M176 0v1366h152v-567h184q42 0 79.5 -3t87 -12.5t90 -25.5t81.5 -45.5t69.5 -69t46 -98.5t17.5 -131q0 -193 -119.5 -303.5t-322.5 -110.5h-365zM328 655v-512h176q34 0 56.5 1.5t61 7.5t73 23t61.5 44q71 67 71 195q0 147 -110 207q-29 16 -72.5 24t-71 9t-86.5 1h-159z
" />
    <glyph glyph-name="afii10047" unicode="&#x42d;" horiz-adv-x="1320" 
d="M102 1065v188q197 136 445 136q152 0 279 -54t212.5 -148.5t133 -225.5t47.5 -283q0 -149 -46.5 -278t-130.5 -223t-210 -148t-277 -54q-246 0 -453 134v188q60 -63 158 -111q140 -67 295 -67q134 0 249.5 63.5t187.5 183t71 269.5h-797v143h791q-15 198 -154.5 332.5
t-345.5 134.5q-147 0 -276 -57q-103 -47 -179 -123z" />
    <glyph glyph-name="afii10048" unicode="&#x42e;" horiz-adv-x="2027" 
d="M328 797h209q24 168 117.5 302t243 212t329.5 78q149 0 278 -52.5t221.5 -145t145.5 -224.5t53 -285q0 -200 -90.5 -362t-250 -253.5t-357.5 -91.5q-149 0 -278.5 55t-218.5 148t-142 216.5t-58 258.5h-202v-653h-152v1366h152v-569zM1227 1245q-149 0 -273 -73
t-196 -202.5t-72 -287.5t72 -287.5t196 -202.5t273 -73t273 73t196.5 202.5t72.5 287.5t-72.5 287.5t-196.5 202.5t-273 73z" />
    <glyph glyph-name="afii10049" unicode="&#x42f;" horiz-adv-x="1044" 
d="M61 0l402 606q-139 14 -230 86q-118 96 -118 279q0 168 94 272q37 42 84 69t97.5 37.5t83.5 13.5t75 3h319v-1366h-151v598h-82l-389 -598h-185zM717 1223h-148q-47 0 -79.5 -3t-77.5 -20t-76 -49q-66 -70 -66 -176q0 -121 78 -184q73 -58 209 -58h160v490z" />
    <glyph glyph-name="afii10065" unicode="&#x430;" horiz-adv-x="1077" 
d="M791 729v121h147v-850h-147v119q-112 -144 -291 -144q-82 0 -155.5 29t-132 83.5t-92.5 142t-34 196.5q0 106 34 192t92 140.5t131.5 83t156.5 28.5q183 0 291 -141zM516 739q-116 0 -197 -82.5t-81 -230.5q0 -140 74.5 -230t203.5 -90q130 0 206.5 93t76.5 225
q0 79 -25.5 141t-67 99t-90.5 56t-100 19z" />
    <glyph glyph-name="afii10066" unicode="&#x431;" horiz-adv-x="1073" 
d="M795 1434h163q-17 -58 -49.5 -101t-76 -68.5t-76.5 -38.5t-76 -24q-5 -1 -48.5 -11.5t-60 -15.5t-51.5 -16t-61 -24.5t-49 -30.5q-79 -59 -126.5 -165t-52.5 -224h5q91 155 309 155q190 0 316 -128.5t126 -319.5q0 -193 -129 -320t-336 -127q-178 0 -293 107
q-46 43 -76.5 96t-44 113.5t-18 111.5t-4.5 117q0 535 242 701q22 15 48.5 28t46 21.5t53 18t48 13t53.5 12.5t48 11q81 19 118 45t52 64zM537 739q-124 0 -211.5 -84.5t-87.5 -232.5q0 -100 43.5 -173.5t110.5 -108t145 -34.5q123 0 211 84t88 232q0 149 -87 233t-212 84z
" />
    <glyph glyph-name="afii10067" unicode="&#x432;" horiz-adv-x="880" 
d="M139 850h322q116 0 178 -49q74 -60 74 -160q0 -110 -92 -170q62 -15 106 -57q68 -65 68 -164q0 -124 -88 -193q-75 -57 -201 -57h-367v850zM287 504h155q61 0 95 24q41 31 41 88q0 53 -41 82q-5 3 -11 6t-10.5 5t-11.5 3.5t-11 2.5t-12 2t-11.5 1.5t-13 0.5h-12h-13.5
h-13h-131v-215zM287 131h182q93 0 133 29q49 36 49 94q0 62 -43 96q-40 31 -133 31h-188v-250z" />
    <glyph glyph-name="afii10068" unicode="&#x433;" horiz-adv-x="651" 
d="M139 0v850h504v-135h-356v-715h-148z" />
    <glyph glyph-name="afii10069" unicode="&#x434;" horiz-adv-x="942" 
d="M201 850h598v-715h127v-360h-135v225h-648v-225h-135v360q53 1 94 32t64 79q35 71 35 225v379zM651 135v580h-303v-320q0 -171 -102 -260h405z" />
    <glyph glyph-name="afii10070" unicode="&#x435;" horiz-adv-x="985" 
d="M770 285l123 -68q-43 -81 -105 -137q-117 -105 -282 -105q-80 0 -152.5 26t-133.5 77.5t-97.5 140t-36.5 201.5q0 195 112 322.5t300 127.5q114 0 195 -45t126 -110q39 -56 61 -145t19 -175h-661q1 -129 79 -209t191 -80q100 0 174 62q58 49 88 117zM248 518h500
q-19 100 -87.5 160.5t-162.5 60.5q-93 0 -163 -62.5t-87 -158.5z" />
    <glyph glyph-name="afii10072" unicode="&#x436;" horiz-adv-x="1220" 
d="M537 850h147v-348l320 348h172l-369 -393l405 -457h-184l-315 358l-29 -28v-330h-147v330l-29 28l-315 -358h-185l406 457l-369 393h172l320 -348v348z" />
    <glyph glyph-name="afii10073" unicode="&#x437;" horiz-adv-x="864" 
d="M250 633l-103 84q49 70 109 106q80 47 186 47q62 0 110 -11.5t91 -47.5q74 -63 74 -162q0 -118 -96 -178q63 -15 98 -55q59 -62 59 -156q0 -66 -29 -123.5t-81 -95.5q-89 -66 -242 -66q-133 0 -227 72q-69 52 -113 146l127 53q22 -56 76 -96q59 -44 139 -44q95 0 143 33
q25 15 42.5 46t17.5 73q0 66 -51 98q-43 29 -140 29h-86v135h72q76 0 111 23q45 27 45 78q0 59 -37 88q-34 30 -109 30q-66 0 -117 -32q-43 -26 -69 -74z" />
    <glyph glyph-name="afii10074" unicode="&#x438;" horiz-adv-x="1007" 
d="M139 850h148v-561l581 626v-915h-147v567l-582 -626v909z" />
    <glyph glyph-name="afii10075" unicode="&#x439;" horiz-adv-x="1007" 
d="M139 850h148v-561l581 626v-915h-147v567l-582 -626v909zM213 1217l123 47q16 -55 60.5 -89t113.5 -34t113.5 34t60.5 89l123 -47q-33 -92 -112 -145.5t-185 -53.5t-185 53.5t-112 145.5z" />
    <glyph glyph-name="afii10076" unicode="&#x43a;" horiz-adv-x="864" 
d="M139 850h148v-348l344 348h180l-369 -379l414 -471h-192l-332 373l-45 -43v-330h-148v850z" />
    <glyph glyph-name="afii10077" unicode="&#x43b;" horiz-adv-x="921" 
d="M782 850v-850h-147v715h-303v-383q0 -50 -2 -80.5t-17.5 -79.5t-46.5 -86q-74 -90 -205 -90q-17 0 -45 4v135q20 -4 33 -4q74 0 107 55q28 43 28 146v518h598z" />
    <glyph glyph-name="afii10078" unicode="&#x43c;" horiz-adv-x="1187" 
d="M41 0l205 915l352 -692l344 692l205 -915h-152l-112 526l-289 -585l-293 585l-108 -526h-152z" />
    <glyph glyph-name="afii10079" unicode="&#x43d;" horiz-adv-x="974" 
d="M139 0v850h148v-348h401v348h148v-850h-148v367h-401v-367h-148z" />
    <glyph glyph-name="afii10080" unicode="&#x43e;" horiz-adv-x="1073" 
d="M537 -25q-194 0 -322.5 127t-128.5 320q0 194 128 321t323 127t322.5 -127t127.5 -321q0 -193 -128 -320t-322 -127zM537 739q-124 0 -211.5 -84.5t-87.5 -232.5q0 -100 43.5 -173.5t110.5 -108t145 -34.5q123 0 211 84t88 232q0 149 -87 233t-212 84z" />
    <glyph glyph-name="afii10081" unicode="&#x43f;" horiz-adv-x="962" 
d="M139 850h684v-850h-147v715h-389v-715h-148v850z" />
    <glyph glyph-name="afii10082" unicode="&#x440;" horiz-adv-x="1077" 
d="M287 119v-590h-148v1321h148v-119q111 139 291 139q128 0 224 -65.5t142.5 -166.5t46.5 -218q0 -118 -47 -218.5t-141.5 -163.5t-218.5 -63q-186 0 -297 144zM563 106q125 0 201 91t76 223q0 148 -84 233.5t-195 85.5t-196.5 -86t-85.5 -231q0 -134 78.5 -225t205.5 -91z
" />
    <glyph glyph-name="afii10083" unicode="&#x441;" horiz-adv-x="897" 
d="M805 788v-176q-53 67 -126 97t-140 30q-126 0 -213.5 -84.5t-87.5 -232.5q0 -147 88.5 -231.5t210.5 -84.5q71 0 145 33.5t129 100.5v-177q-119 -88 -270 -88q-198 0 -326.5 126.5t-128.5 318.5q0 195 129 322.5t326 127.5q148 0 264 -82z" />
    <glyph glyph-name="afii10084" unicode="&#x442;" horiz-adv-x="712" 
d="M696 715h-266v-715h-147v715h-267v135h680v-135z" />
    <glyph glyph-name="afii10085" unicode="&#x443;" horiz-adv-x="942" 
d="M137 -471l271 551l-392 770h168l301 -608l277 608h164l-625 -1321h-164z" />
    <glyph glyph-name="afii10086" unicode="&#x444;" horiz-adv-x="1331" 
d="M592 -471v457q-223 0 -359 110q-147 120 -147 330q0 208 145 328q130 110 361 110v502h147v-502q231 0 361 -110q145 -120 145 -328q0 -210 -147 -330q-136 -110 -359 -110v-457h-147zM592 117v616q-145 0 -227 -53q-52 -33 -89.5 -95.5t-37.5 -158.5q0 -165 118 -248
q85 -61 236 -61zM739 733v-616q151 0 236 61q119 84 119 248q0 96 -37.5 158.5t-89.5 95.5q-82 53 -228 53z" />
    <glyph glyph-name="afii10087" unicode="&#x445;" horiz-adv-x="929" 
d="M16 0l363 455l-309 395h180l219 -289l223 289h180l-311 -397l352 -453h-180l-268 346l-268 -346h-181z" />
    <glyph glyph-name="afii10088" unicode="&#x446;" horiz-adv-x="970" 
d="M139 0v850h148v-715h381v715h147v-715h139v-360h-135v225h-680z" />
    <glyph glyph-name="afii10089" unicode="&#x447;" horiz-adv-x="880" 
d="M594 0v334q-126 -19 -201 -19q-138 0 -207 62q-71 64 -71 209v264h147v-244q0 -66 19 -100q29 -55 129 -55q90 0 184 18v381h147v-850h-147z" />
    <glyph glyph-name="afii10090" unicode="&#x448;" horiz-adv-x="1376" 
d="M139 0v850h148v-715h327v715h148v-715h328v715h147v-850h-1098z" />
    <glyph glyph-name="afii10091" unicode="&#x449;" horiz-adv-x="1392" 
d="M139 0v850h148v-715h327v715h148v-715h328v715h147v-715h139v-360h-135v225h-1102z" />
    <glyph glyph-name="afii10092" unicode="&#x44a;" horiz-adv-x="880" 
d="M201 0v715h-185v135h332v-326h152q77 0 142 -16t116 -68q65 -65 65 -178q0 -119 -75 -190q-34 -33 -81 -49.5t-80.5 -19.5t-88.5 -3h-297zM348 131h137q91 0 131 23q56 37 56 108q0 73 -54 107q-17 12 -42 17.5t-40 6t-49 0.5h-139v-262z" />
    <glyph glyph-name="afii10093" unicode="&#x44b;" horiz-adv-x="1150" 
d="M139 0v850h148v-326h151q77 0 142 -16t116 -68q66 -66 66 -178q0 -118 -76 -190q-34 -33 -81 -49.5t-80.5 -19.5t-88.5 -3h-297zM287 131h137q91 0 131 23q55 37 55 108q0 74 -53 107q-17 12 -42 17.5t-40 6t-49 0.5h-139v-262zM864 0v850h148v-850h-148z" />
    <glyph glyph-name="afii10094" unicode="&#x44c;" horiz-adv-x="819" 
d="M139 0v850h148v-326h151q77 0 142 -16t116 -68q66 -66 66 -178q0 -118 -76 -190q-34 -33 -81 -49.5t-80.5 -19.5t-88.5 -3h-297zM287 131h137q91 0 131 23q55 37 55 108q0 74 -53 107q-17 12 -42 17.5t-40 6t-49 0.5h-139v-262z" />
    <glyph glyph-name="afii10095" unicode="&#x44d;" horiz-adv-x="866" 
d="M86 684v143q106 43 231 43q216 0 339.5 -124.5t123.5 -325.5q0 -194 -125.5 -319.5t-326.5 -125.5q-122 0 -242 48v143q114 -60 240 -60q118 0 204.5 72.5t98.5 190.5h-449v131h449q-24 114 -108 176.5t-197 62.5q-119 0 -238 -55z" />
    <glyph glyph-name="afii10096" unicode="&#x44e;" horiz-adv-x="1413" 
d="M287 502h153q19 142 115 241q57 60 140 93.5t182 33.5q196 0 323 -127t127 -321t-127.5 -320.5t-322.5 -126.5q-225 0 -351 160q-81 101 -94 232h-145v-367h-148v850h148v-348zM877 739q-124 0 -208.5 -85t-84.5 -232q0 -149 86 -232.5t207 -83.5q123 0 211 84t88 232
t-87.5 232.5t-211.5 84.5z" />
    <glyph glyph-name="afii10097" unicode="&#x44f;" horiz-adv-x="835" 
d="M41 0l264 350q-11 0 -33.5 4t-63 21t-67.5 43q-67 63 -67 170q0 120 76 190q35 33 81.5 49.5t79.5 19.5t88 3h297v-850h-147v342h-90l-242 -342h-176zM549 465v254h-137q-93 0 -133 -23q-54 -35 -54 -104t54 -103q8 -5 17 -9t16.5 -6.5t18 -4t16.5 -2.5t18 -1.5
t15.5 -0.5h16h13.5h139z" />
    <glyph glyph-name="afii10071" unicode="&#x451;" horiz-adv-x="985" 
d="M770 285l123 -68q-43 -81 -105 -137q-117 -105 -282 -105q-80 0 -152.5 26t-133.5 77.5t-97.5 140t-36.5 201.5q0 195 112 322.5t300 127.5q114 0 195 -45t126 -110q39 -56 61 -145t19 -175h-661q1 -129 79 -209t191 -80q100 0 174 62q58 49 88 117zM248 518h500
q-19 100 -87.5 160.5t-162.5 60.5q-93 0 -163 -62.5t-87 -158.5zM225 1126q0 41 31 72t72 31t71.5 -31t30.5 -72t-30.5 -71.5t-71.5 -30.5t-72 30.5t-31 71.5zM582 1126q0 41 30.5 72t71.5 31t71.5 -31t30.5 -72t-30.5 -71.5t-71.5 -30.5t-71.5 30.5t-30.5 71.5z" />
    <glyph glyph-name="afii10099" unicode="&#x452;" horiz-adv-x="962" 
d="M139 0v1053h-139v123h139v317h148v-317h409v-123h-409v-383q91 118 243 118q77 0 141.5 -30t102.5 -86q30 -44 39.5 -96t9.5 -132v-620q0 -76 -13 -128.5t-52 -94.5q-69 -72 -187 -72q-55 0 -104 18v144q55 -19 96 -19q67 0 94 45q19 32 19 123v600q0 106 -39 156
q-48 61 -139 61q-95 0 -150 -65q-61 -73 -61 -230v-362h-148z" />
    <glyph glyph-name="afii10100" unicode="&#x453;" horiz-adv-x="651" 
d="M139 0v850h504v-135h-356v-715h-148zM516 1364l152 -70l-275 -276l-92 49z" />
    <glyph glyph-name="afii10101" unicode="&#x454;" horiz-adv-x="897" 
d="M805 788v-176q-55 65 -126 96t-140 31q-105 0 -189.5 -64t-105.5 -175h444v-131h-446q13 -117 98 -190t197 -73q71 0 145 33.5t129 100.5v-177q-119 -88 -270 -88q-198 0 -326.5 126.5t-128.5 318.5q0 195 129 322.5t326 127.5q148 0 264 -82z" />
    <glyph glyph-name="afii10102" unicode="&#x455;" horiz-adv-x="720" 
d="M610 717l-121 -64q-16 38 -47 62t-71 24q-43 0 -73 -24.5t-30 -71.5q0 -42 28 -64t110 -57q160 -66 212 -131q46 -56 46 -137q0 -130 -83 -204.5t-210 -74.5q-18 0 -38 2t-60.5 14t-74 33t-69 65t-55.5 104l127 53q7 -21 19 -41.5t32.5 -44.5t52 -39t68.5 -15
q67 0 103 41.5t36 94.5q0 29 -9 50t-31 38t-40.5 26.5t-56.5 26.5q-86 38 -133 65t-74 60q-39 48 -39 125q0 110 69 173.5t179 63.5q161 0 233 -153z" />
    <glyph glyph-name="afii10103" unicode="&#x456;" horiz-adv-x="425" 
d="M139 850h148v-850h-148v850zM109 1171q0 43 30.5 74t73.5 31t73.5 -31t30.5 -74t-30.5 -73.5t-73.5 -30.5t-73.5 30.5t-30.5 73.5z" />
    <glyph glyph-name="afii10104" unicode="&#x457;" horiz-adv-x="425" 
d="M139 850h148v-850h-148v850zM18 1174q0 41 25.5 71.5t60.5 30.5t60.5 -30.5t25.5 -71.5t-25.5 -72t-60.5 -31t-60.5 31t-25.5 72zM236 1174q0 41 25.5 71.5t60.5 30.5t60.5 -30.5t25.5 -71.5t-25.5 -72t-60.5 -31t-60.5 31t-25.5 72z" />
    <glyph glyph-name="afii10105" unicode="&#x458;" horiz-adv-x="425" 
d="M139 850h148v-1321h-148v1321zM109 1171q0 43 30.5 74t73.5 31t73.5 -31t30.5 -74t-30.5 -73.5t-73.5 -30.5t-73.5 30.5t-30.5 73.5z" />
    <glyph glyph-name="afii10106" unicode="&#x459;" horiz-adv-x="1314" 
d="M782 850v-326h152q77 0 142 -16t116 -68q65 -65 65 -178q0 -119 -75 -190q-34 -33 -81 -49.5t-80.5 -19.5t-88.5 -3h-297v715h-303v-383q0 -50 -2 -80.5t-17.5 -79.5t-46.5 -86q-74 -90 -205 -90q-17 0 -45 4v135q20 -4 33 -4q74 0 107 55q28 43 28 146v518h598zM782 131
h138q91 0 131 23q55 37 55 108q0 74 -53 107q-17 12 -42 17.5t-40 6t-49 0.5h-140v-262z" />
    <glyph glyph-name="afii10107" unicode="&#x45a;" horiz-adv-x="1368" 
d="M139 0v850h148v-322h401v322h148v-326h151q77 0 142 -16t116 -68q66 -66 66 -178q0 -118 -76 -190q-34 -33 -81 -49.5t-80.5 -19.5t-88.5 -3h-297v393h-401v-393h-148zM836 131h137q91 0 131 23q55 37 55 108q0 74 -53 107q-17 12 -42 17.5t-40 6t-49 0.5h-139v-262z" />
    <glyph glyph-name="afii10108" unicode="&#x45b;" horiz-adv-x="962" 
d="M139 0v1053h-139v123h139v317h148v-317h409v-123h-409v-383q91 118 243 118q77 0 141.5 -30t102.5 -86q30 -44 39.5 -96t9.5 -132v-444h-147v440q0 106 -39 156q-48 61 -139 61q-95 0 -150 -65q-61 -73 -61 -230v-362h-148z" />
    <glyph glyph-name="afii10109" unicode="&#x45c;" horiz-adv-x="864" 
d="M139 850h148v-348l344 348h180l-369 -379l414 -471h-192l-332 373l-45 -43v-330h-148v850zM559 1364l152 -70l-275 -276l-92 49z" />
    <glyph glyph-name="afii10110" unicode="&#x45e;" horiz-adv-x="942" 
d="M137 -471l271 551l-392 770h168l301 -608l277 608h164l-625 -1321h-164zM195 1217l122 47q16 -55 61 -89t114 -34t113.5 34t60.5 89l122 -47q-33 -92 -111.5 -145.5t-184.5 -53.5t-185 53.5t-112 145.5z" />
    <glyph glyph-name="afii10193" unicode="&#x45f;" horiz-adv-x="954" 
d="M139 0v850h148v-715h381v715h147v-850h-270v-246h-135v246h-271z" />
    <glyph glyph-name="afii10146" unicode="&#x462;" horiz-adv-x="1249" 
d="M356 0v1059h-327v143h327v219h152v-219h369v-143h-369v-260h184q42 0 79.5 -3t87 -12.5t90 -25.5t81.5 -45.5t69.5 -69t46 -98.5t17.5 -131q0 -193 -119.5 -303.5t-322.5 -110.5h-365zM508 655v-512h176q34 0 56.5 1.5t61 7.5t73 23t61.5 44q72 68 72 195q0 147 -111 207
q-29 16 -72 24t-71 9t-86 1h-160z" />
    <glyph glyph-name="afii10194" unicode="&#x463;" horiz-adv-x="880" 
d="M16 850h185v516h147v-516h246v-135h-246v-191h152q77 0 142 -16t116 -68q65 -65 65 -178q0 -119 -75 -190q-34 -33 -81 -49.5t-80.5 -19.5t-88.5 -3h-297v715h-185v135zM348 131h137q91 0 131 23q56 37 56 108q0 73 -54 107q-17 12 -42 17.5t-40 6t-49 0.5h-139v-262z
" />
    <glyph glyph-name="afii10147" unicode="&#x472;" horiz-adv-x="1622" 
d="M811 -25q-145 0 -276 54t-226 147t-151 225t-56 281q0 150 56 282t151 225t225.5 146.5t276.5 53.5t276.5 -53.5t225.5 -146.5t151 -225t56 -282q0 -149 -56 -281t-151 -225t-226 -147t-276 -54zM264 778h1094q-18 110 -73 200t-130.5 147.5t-164.5 88.5t-179 31
t-179 -31t-164.5 -88.5t-130.5 -147.5t-73 -200zM1364 635h-1106q14 -152 95 -271.5t201 -182t257 -62.5t257 62.5t201 182t95 271.5z" />
    <glyph glyph-name="afii10195" unicode="&#x473;" horiz-adv-x="1073" 
d="M537 -25q-194 0 -322.5 127t-128.5 320q0 194 128 321t323 127t322.5 -127t127.5 -321q0 -193 -128 -320t-322 -127zM246 500h581q-21 113 -103.5 176t-186.5 63t-187 -63t-104 -176zM831 369h-589q10 -117 96.5 -190t198.5 -73q113 0 197.5 73t96.5 190z" />
    <glyph glyph-name="afii10148" unicode="&#x474;" horiz-adv-x="1138" 
d="M16 1366h168l385 -1042l385 1042h168l-553 -1448z" />
    <glyph glyph-name="afii10196" unicode="&#x475;" horiz-adv-x="868" 
d="M16 850h164l254 -574l254 574h164l-418 -905z" />
    <glyph glyph-name="afii10050" unicode="&#x490;" horiz-adv-x="827" 
d="M176 0v1366h479v287h144v-430h-471v-1223h-152z" />
    <glyph glyph-name="afii10098" unicode="&#x491;" horiz-adv-x="671" 
d="M139 0v850h369v225h135v-360h-356v-715h-148z" />
    <glyph glyph-name="uni0492" unicode="&#x492;" horiz-adv-x="827" 
d="M176 0v684h-176v135h176v547h623v-143h-471v-404h278v-135h-278v-684h-152z" />
    <glyph glyph-name="uni0493" unicode="&#x493;" horiz-adv-x="651" 
d="M139 0v385h-139v123h139v342h504v-135h-356v-207h205v-123h-205v-385h-148z" />
    <glyph glyph-name="uni0494" unicode="&#x494;" horiz-adv-x="1142" 
d="M823 1223h-495v-435q146 48 280 48q245 0 359 -138q90 -111 90 -301q0 -123 -42 -207t-102 -127q-101 -75 -274 -75q-57 0 -139 12v143q56 -12 129 -12q126 0 190 55q82 68 82 213q0 130 -57 199q-36 42 -100.5 68t-149.5 26q-133 0 -266 -47v-645h-152v1366h647v-143z
" />
    <glyph glyph-name="uni0495" unicode="&#x495;" horiz-adv-x="880" 
d="M139 0v850h504v-135h-356v-232h61q226 0 342 -116q105 -110 105 -285q0 -103 -40 -200t-122 -173q-126 -118 -299 -135v143q109 15 196 99q109 104 109 268q0 135 -80 203q-68 61 -211 61h-61v-348h-148z" />
    <glyph glyph-name="uni0496" unicode="&#x496;" horiz-adv-x="1658" 
d="M754 1366h151v-586l520 586h189l-574 -637l473 -586h117v-430h-143v287h-49l-500 625l-33 -37v-588h-151v588l-33 37l-500 -625h-192l589 729l-573 637h188l521 -586v586z" />
    <glyph glyph-name="uni0497" unicode="&#x497;" horiz-adv-x="1220" 
d="M537 850h147v-348l320 348h172l-369 -393l287 -322h118v-360h-135v225h-49l-315 358l-29 -28v-330h-147v330l-29 28l-315 -358h-185l406 457l-369 393h172l320 -348v348z" />
    <glyph glyph-name="uni0498" unicode="&#x498;" horiz-adv-x="1179" 
d="M322 1098l-117 92q66 98 160 147q96 52 223 52q196 0 305 -105q98 -94 98 -242q0 -106 -55 -182q-54 -73 -133 -108q106 -25 178 -97q96 -96 96 -249q0 -172 -114 -293q-116 -120 -291 -133v-308h-144v308q-158 13 -276 116q-99 84 -150 207l148 66q35 -97 96 -150
q103 -100 262 -100q150 0 236 82q78 78 78 202q0 112 -74 181q-53 49 -125.5 64.5t-165.5 15.5h-123v143h123q134 0 207 63q72 60 72 168q0 88 -56 144q-63 63 -184 63q-107 0 -180 -51q-57 -40 -94 -96z" />
    <glyph glyph-name="uni0499" unicode="&#x499;" horiz-adv-x="864" 
d="M250 633l-103 84q49 70 109 106q76 47 195 47q121 0 192 -59q74 -63 74 -166q0 -64 -29 -110q-23 -41 -67 -64q57 -14 98 -55q59 -59 59 -158q0 -107 -78 -188q-81 -84 -194 -90v-226h-135v226q-96 7 -172 67q-64 51 -113 146l127 53q27 -59 76 -96q58 -44 139 -44
q89 0 139 31q64 39 64 121q0 64 -51 98q-44 29 -140 29h-86v135h72q73 0 111 23q20 13 32.5 35.5t12.5 44.5q0 53 -37 86q-37 30 -115 30q-38 0 -60.5 -6t-50.5 -26q-46 -32 -69 -74z" />
    <glyph glyph-name="uni049A" unicode="&#x49a;" horiz-adv-x="1163" 
d="M176 1366h152v-586l581 586h205l-639 -637l531 -586h129v-430h-144v287h-65l-559 627l-39 -39v-588h-152v1366z" />
    <glyph glyph-name="uni049B" unicode="&#x49b;" horiz-adv-x="864" 
d="M139 850h148v-348l344 348h180l-369 -379l295 -336h119v-360h-135v225h-57l-332 373l-45 -43v-330h-148v850z" />
    <glyph glyph-name="uni049C" unicode="&#x49c;" horiz-adv-x="1318" 
d="M176 1366h152v-596h164v287h135v-287l477 596h168l-522 -645l540 -721h-180l-483 635v-307h-135v307h-164v-635h-152v1366z" />
    <glyph glyph-name="uni049D" unicode="&#x49d;" horiz-adv-x="921" 
d="M139 850h148v-348h102v205h123v-205l223 348h160l-268 -408l286 -442h-163l-238 379v-225h-123v225h-102v-379h-148v850z" />
    <glyph glyph-name="uni04A0" unicode="&#x4a0;" horiz-adv-x="1343" 
d="M356 0v1223h-327v143h479v-586l582 586h204l-639 -637l660 -729h-209l-559 627l-39 -39v-588h-152z" />
    <glyph glyph-name="uni04A1" unicode="&#x4a1;" horiz-adv-x="925" 
d="M201 0v715h-185v135h332v-348l344 348h180l-368 -379l414 -471h-193l-332 373l-45 -43v-330h-147z" />
    <glyph glyph-name="uni04A2" unicode="&#x4a2;" horiz-adv-x="1363" 
d="M176 0v1366h152v-555h700v555h152v-1223h155v-430h-143v287h-164v668h-700v-668h-152z" />
    <glyph glyph-name="uni04A3" unicode="&#x4a3;" horiz-adv-x="991" 
d="M139 0v850h148v-348h401v348h148v-715h139v-360h-135v225h-152v367h-401v-367h-148z" />
    <glyph glyph-name="uni04A4" unicode="&#x4a4;" horiz-adv-x="1679" 
d="M176 0v1366h152v-555h700v555h623v-143h-471v-1223h-152v668h-700v-668h-152z" />
    <glyph glyph-name="uni04A5" unicode="&#x4a5;" horiz-adv-x="1200" 
d="M139 0v850h148v-348h401v348h504v-135h-356v-715h-148v367h-401v-367h-148z" />
    <glyph glyph-name="uni04AA" unicode="&#x4aa;" horiz-adv-x="1323" 
d="M1221 1253v-188q-81 81 -179 127q-112 53 -235 53q-110 0 -212.5 -43t-176.5 -117q-71 -73 -115.5 -177t-44.5 -232q0 -239 156 -395q78 -78 182 -120t213 -42q122 0 233 53q94 45 179 125v-188q-130 -99 -334 -129v-308h-144v308q-260 16 -444 202q-197 200 -197 496
q0 294 193 500q93 98 225.5 154.5t296.5 56.5q237 0 404 -136z" />
    <glyph glyph-name="uni04AB" unicode="&#x4ab;" horiz-adv-x="897" 
d="M805 788v-176q-54 66 -127 96.5t-139 30.5q-57 0 -115.5 -22.5t-101.5 -65.5q-84 -84 -84 -229q0 -134 73 -215q88 -101 232 -101q73 0 144 35.5t124 98.5v-177q-81 -70 -193 -81v-228h-135v226q-165 13 -276 124q-121 121 -121 314q0 196 125 321q60 60 150 95.5
t186 35.5q142 0 258 -82z" />
    <glyph glyph-name="uni04AE" unicode="&#x4ae;" horiz-adv-x="1085" 
d="M465 0v588l-449 778h177l348 -610l352 610h176l-453 -778v-588h-151z" />
    <glyph glyph-name="uni04AF" unicode="&#x4af;" horiz-adv-x="868" 
d="M16 850h164l254 -574l254 574h164l-344 -746v-575h-148v575z" />
    <glyph glyph-name="uni04B0" unicode="&#x4b0;" horiz-adv-x="1085" 
d="M465 0v453h-389v135h389l-449 778h177l348 -610l352 610h176l-453 -778h390v-135h-390v-453h-151z" />
    <glyph glyph-name="uni04B1" unicode="&#x4b1;" horiz-adv-x="868" 
d="M16 850h164l254 -574l254 574h164l-344 -746v-104h246v-135h-246v-336h-148v336h-245v135h245v104z" />
    <glyph glyph-name="uni04B2" unicode="&#x4b2;" horiz-adv-x="1064" 
d="M29 0l403 707l-366 659h172l282 -514l291 514h172l-375 -659l316 -564h112v-430h-143v287h-62l-313 561l-317 -561h-172z" />
    <glyph glyph-name="uni04B3" unicode="&#x4b3;" horiz-adv-x="929" 
d="M16 0l363 455l-309 395h180l219 -289l223 289h180l-311 -397l248 -318h104v-360h-135v225h-45l-268 346l-268 -346h-181z" />
    <glyph glyph-name="uni04B6" unicode="&#x4b6;" horiz-adv-x="1216" 
d="M881 0v586q-205 -15 -283 -15q-242 0 -338 74q-41 31 -68 72t-38 87t-15 81t-4 78v403h152v-383q0 -30 1.5 -51t8.5 -57t25 -66t47 -51q34 -26 90.5 -34.5t146.5 -8.5q121 0 275 14v637h151v-1223h156v-430h-144v287h-163z" />
    <glyph glyph-name="uni04B7" unicode="&#x4b7;" horiz-adv-x="897" 
d="M594 0v334q-126 -19 -201 -19q-138 0 -207 62q-71 64 -71 209v264h147v-244q0 -66 19 -100q29 -55 129 -55q90 0 184 18v381h147v-715h140v-360h-136v225h-151z" />
    <glyph glyph-name="uni04B8" unicode="&#x4b8;" horiz-adv-x="1269" 
d="M942 0v586q-189 -11 -237 -13v-286h-136v284q-213 0 -309 74q-125 93 -125 318v403h152v-383q0 -166 82 -225q34 -26 93.5 -35.5t106.5 -7.5v301h136v-299q132 4 237 12v637h152v-1366h-152z" />
    <glyph glyph-name="uni04B9" unicode="&#x4b9;" horiz-adv-x="942" 
d="M655 0v334q-61 -12 -131 -12v-209h-123v202q-52 -3 -115 13t-100 49q-71 61 -71 209v264h147v-244q0 -69 19 -100q14 -24 46.5 -39t73.5 -14v213h123v-211q59 0 131 14v381h148v-850h-148z" />
    <glyph glyph-name="uni04BA" unicode="&#x4ba;" horiz-adv-x="1208" 
d="M328 1366v-545q205 15 282 15q242 0 338 -74q41 -31 68 -72t38 -87t15 -81t4 -78v-444h-151v424q0 30 -1.5 51t-8.5 57t-25 66t-47 51q-34 26 -91 34.5t-147 8.5q-120 0 -274 -14v-678h-152v1366h152z" />
    <glyph glyph-name="uni04BB" unicode="&#x4bb;" horiz-adv-x="962" 
d="M139 0v1493h148v-741q91 118 243 118q77 0 141.5 -30t102.5 -86q30 -44 39.5 -96t9.5 -132v-526h-147v522q0 106 -39 156q-48 61 -139 61q-95 0 -150 -65q-61 -73 -61 -230v-444h-148z" />
    <glyph glyph-name="uni04C0" unicode="&#x4c0;" horiz-adv-x="503" 
d="M176 1366h152v-1366h-152v1366z" />
    <glyph glyph-name="uni04C1" unicode="&#x4c1;" horiz-adv-x="1658" 
d="M754 1366h151v-586l520 586h189l-574 -637l590 -729h-192l-500 625l-33 -37v-588h-151v588l-33 37l-500 -625h-192l589 729l-573 637h188l521 -586v586zM512 1675l143 47q9 -32 29.5 -55t41 -34t45.5 -17t36.5 -7t21.5 -1q14 0 31 2.5t48.5 11.5t58 35t37.5 65l143 -47
q-5 -16 -15 -34.5t-35.5 -49.5t-58 -55t-88 -41.5t-121.5 -17.5t-121 17.5t-88 41.5t-58 55t-35 49.5t-15 34.5z" />
    <glyph glyph-name="uni04C2" unicode="&#x4c2;" horiz-adv-x="1220" 
d="M537 850h147v-348l320 348h172l-369 -393l405 -457h-184l-315 358l-29 -28v-330h-147v330l-29 28l-315 -358h-185l406 457l-369 393h172l320 -348v348zM313 1217l123 47q16 -55 60.5 -89t113.5 -34t113.5 34t60.5 89l123 -47q-33 -92 -112 -145.5t-185 -53.5t-185 53.5
t-112 145.5z" />
    <glyph glyph-name="uni04C3" unicode="&#x4c3;" horiz-adv-x="1196" 
d="M176 1366h152v-627l581 627h205l-532 -557q247 0 372 -125q87 -86 121.5 -211.5t34.5 -251.5q0 -115 -30 -234.5t-107 -199.5q-110 -115 -309 -115q-120 0 -228 43l43 146q78 -45 176 -45q125 0 197 67q48 47 76 131.5t28 192.5q0 43 -4.5 86t-17.5 103.5t-44 115
t-77 90.5q-95 74 -252 74q-106 0 -233 -27v-649h-152v1366z" />
    <glyph glyph-name="uni04C4" unicode="&#x4c4;" horiz-adv-x="847" 
d="M139 850h148v-348l344 348h180l-373 -379q70 -5 138.5 -32t113.5 -72q105 -105 105 -277q0 -108 -40.5 -207.5t-121.5 -173.5q-126 -118 -299 -135v143q109 15 196 99q109 106 109 262q0 138 -80 209q-70 61 -211 61h-61v-348h-148v850z" />
    <glyph glyph-name="uni04C7" unicode="&#x4c7;" horiz-adv-x="1355" 
d="M176 0v1366h152v-555h700v555h152v-1542q0 -162 -70 -232q-63 -63 -182 -63q-61 0 -109 18v148q42 -19 86 -19q60 0 90 27q33 31 33 113v852h-700v-668h-152z" />
    <glyph glyph-name="uni04C8" unicode="&#x4c8;" horiz-adv-x="974" 
d="M139 0v850h148v-348h401v348h148v-1026q0 -76 -13.5 -128.5t-52.5 -94.5q-69 -72 -186 -72q-56 0 -105 18v144q55 -19 96 -19q68 0 95 45q18 30 18 123v527h-401v-367h-148z" />
    <glyph glyph-name="uni04D0" unicode="&#x4d0;" horiz-adv-x="1273" 
d="M1090 0l-160 385h-582l-164 -385h-168l629 1432l612 -1432h-167zM408 528h462l-229 547zM328 1675l143 47q9 -32 29.5 -55t41 -34t45.5 -17t36.5 -7t21.5 -1t21.5 1t36.5 7t45.5 17t41 34t29.5 55l144 -47q-5 -16 -15 -34.5t-35.5 -49.5t-58 -55t-88 -41.5t-121.5 -17.5
t-121 17.5t-88 41.5t-58 55t-35 49.5t-15 34.5z" />
    <glyph glyph-name="uni04D1" unicode="&#x4d1;" horiz-adv-x="1077" 
d="M791 729v121h147v-850h-147v119q-112 -144 -291 -144q-82 0 -155.5 29t-132 83.5t-92.5 142t-34 196.5q0 106 34 192t92 140.5t131.5 83t156.5 28.5q183 0 291 -141zM516 739q-116 0 -197 -82.5t-81 -230.5q0 -140 74.5 -230t203.5 -90q130 0 206.5 93t76.5 225
q0 79 -25.5 141t-67 99t-90.5 56t-100 19zM223 1217l123 47q16 -55 60.5 -89t113.5 -34t113.5 34t60.5 89l123 -47q-33 -92 -112 -145.5t-185 -53.5t-185 53.5t-112 145.5z" />
    <glyph glyph-name="uni04D2" unicode="&#x4d2;" horiz-adv-x="1273" 
d="M1090 0l-160 385h-582l-164 -385h-168l629 1432l612 -1432h-167zM408 528h462l-229 547zM346 1606q0 43 31 73.5t74 30.5t73.5 -30.5t30.5 -73.5t-30.5 -74t-73.5 -31t-74 31t-31 74zM735 1606q0 43 31 73.5t74 30.5t73.5 -30.5t30.5 -73.5t-30.5 -74t-73.5 -31t-74 31
t-31 74z" />
    <glyph glyph-name="uni04D3" unicode="&#x4d3;" horiz-adv-x="1077" 
d="M791 729v121h147v-850h-147v119q-112 -144 -291 -144q-82 0 -155.5 29t-132 83.5t-92.5 142t-34 196.5q0 106 34 192t92 140.5t131.5 83t156.5 28.5q183 0 291 -141zM516 739q-116 0 -197 -82.5t-81 -230.5q0 -140 74.5 -230t203.5 -90q130 0 206.5 93t76.5 225
q0 79 -25.5 141t-67 99t-90.5 56t-100 19zM211 1126q0 41 30.5 72t71.5 31t72 -31t31 -72t-31 -71.5t-72 -30.5t-71.5 30.5t-30.5 71.5zM567 1126q0 41 31 72t72 31t71.5 -31t30.5 -72t-30.5 -71.5t-71.5 -30.5t-72 30.5t-31 71.5z" />
    <glyph glyph-name="uni04D4" unicode="&#x4d4;" horiz-adv-x="1843" 
d="M1102 0l-162 383h-582l-161 -383h-168l608 1366h600l59 -143h-551l170 -406h541l60 -143h-537l221 -531h555l60 -143h-713zM424 526h457l-226 535z" />
    <glyph glyph-name="uni04D5" unicode="&#x4d5;" horiz-adv-x="1585" 
d="M1366 287l123 -74q-24 -45 -55 -83.5t-77 -75.5t-110.5 -58t-140.5 -21q-218 0 -334 170q-96 -170 -319 -170q-158 0 -262.5 72t-104.5 205q0 132 100 206t254 74q144 0 244 -71q4 110 -39 180q-57 98 -203 98q-112 0 -262 -53v139q137 45 264 45q240 0 322 -172
q52 84 138 128t190 44q186 0 295.5 -125t109.5 -335v-15h-663q4 -125 81 -207t187 -82q85 0 154 51t108 130zM846 518h502q-13 102 -83.5 161.5t-168.5 59.5q-95 0 -164 -59t-86 -162zM453 401q-105 0 -162.5 -42t-57.5 -107q0 -25 10.5 -49t33.5 -46.5t67.5 -36.5
t104.5 -14q116 0 171.5 46.5t55.5 105.5q0 54 -54.5 98.5t-168.5 44.5z" />
    <glyph glyph-name="uni04D6" unicode="&#x4d6;" horiz-adv-x="987" 
d="M885 1366v-143h-557v-406h540v-143h-540v-531h557v-143h-709v1366h709zM215 1675l143 47q9 -32 29.5 -55t41 -34t45.5 -17t36.5 -7t21.5 -1q14 0 31 2.5t48.5 11.5t58 35t37.5 65l143 -47q-5 -16 -15 -34.5t-35.5 -49.5t-58 -55t-88 -41.5t-121.5 -17.5t-121 17.5
t-88 41.5t-58 55t-35 49.5t-15 34.5z" />
    <glyph glyph-name="uni04D7" unicode="&#x4d7;" horiz-adv-x="985" 
d="M770 285l123 -68q-43 -81 -105 -137q-117 -105 -282 -105q-80 0 -152.5 26t-133.5 77.5t-97.5 140t-36.5 201.5q0 195 112 322.5t300 127.5q114 0 195 -45t126 -110q39 -56 61 -145t19 -175h-661q1 -129 79 -209t191 -80q100 0 174 62q58 49 88 117zM248 518h500
q-19 100 -87.5 160.5t-162.5 60.5q-93 0 -163 -62.5t-87 -158.5zM197 1217l122 47q16 -55 61 -89t114 -34t113.5 34t60.5 89l123 -47q-33 -92 -112 -145.5t-185 -53.5t-185 53.5t-112 145.5z" />
    <glyph glyph-name="uni04D8" unicode="&#x4d8;" horiz-adv-x="1548" 
d="M270 989l-112 103q68 92 157 161q177 136 418 136q201 0 364.5 -93.5t256 -255.5t92.5 -358t-91.5 -358t-253.5 -255.5t-360 -93.5q-170 0 -300 69.5t-208 176.5q-63 86 -97 200.5t-34 231.5v33h1188q0 152 -69.5 279.5t-198.5 203.5t-291 76q-194 0 -332 -115
q-70 -57 -129 -141zM1276 543h-1018q5 -109 55 -195q59 -105 171 -167t247 -62q198 0 351 119.5t194 304.5z" />
    <glyph glyph-name="afii10846" unicode="&#x4d9;" horiz-adv-x="987" 
d="M215 561l-123 68q43 81 105 137q114 104 282 104q63 0 122.5 -15.5t114.5 -50.5t95.5 -85.5t65 -126t24.5 -166.5q0 -195 -112.5 -323t-301.5 -128q-114 0 -195 45t-128 111q-43 61 -63.5 148.5t-14.5 171.5h664q-1 129 -79.5 208.5t-193.5 79.5q-104 0 -174 -61
q-58 -49 -88 -117zM737 328h-499q15 -99 83 -160.5t166 -61.5q93 0 163 63t87 159z" />
    <glyph glyph-name="uni04DA" unicode="&#x4da;" horiz-adv-x="1548" 
d="M270 989l-112 103q68 92 157 161q177 136 418 136q201 0 364.5 -93.5t256 -255.5t92.5 -358t-91.5 -358t-253.5 -255.5t-360 -93.5q-170 0 -300 69.5t-208 176.5q-63 86 -97 200.5t-34 231.5v33h1188q0 152 -69.5 279.5t-198.5 203.5t-291 76q-194 0 -332 -115
q-70 -57 -129 -141zM1276 543h-1018q5 -109 55 -195q59 -105 171 -167t247 -62q198 0 351 119.5t194 304.5zM438 1606q0 43 31 73.5t74 30.5t73.5 -30.5t30.5 -73.5t-30.5 -74t-73.5 -31t-74 31t-31 74zM827 1606q0 43 31 73.5t74 30.5t73.5 -30.5t30.5 -73.5t-30.5 -74
t-73.5 -31t-74 31t-31 74z" />
    <glyph glyph-name="uni04DB" unicode="&#x4db;" horiz-adv-x="987" 
d="M215 561l-123 68q43 81 105 137q114 104 282 104q63 0 122.5 -15.5t114.5 -50.5t95.5 -85.5t65 -126t24.5 -166.5q0 -195 -112.5 -323t-301.5 -128q-114 0 -195 45t-128 111q-43 61 -63.5 148.5t-14.5 171.5h664q-1 129 -79.5 208.5t-193.5 79.5q-104 0 -174 -61
q-58 -49 -88 -117zM737 328h-499q15 -99 83 -160.5t166 -61.5q93 0 163 63t87 159zM215 1126q0 41 30.5 72t71.5 31t72 -31t31 -72t-31 -71.5t-72 -30.5t-71.5 30.5t-30.5 71.5zM571 1126q0 41 31 72t72 31t71.5 -31t30.5 -72t-30.5 -71.5t-71.5 -30.5t-72 30.5t-31 71.5z
" />
    <glyph glyph-name="uni04DC" unicode="&#x4dc;" horiz-adv-x="1658" 
d="M754 1366h151v-586l520 586h189l-574 -637l590 -729h-192l-500 625l-33 -37v-588h-151v588l-33 37l-500 -625h-192l589 729l-573 637h188l521 -586v586zM530 1606q0 43 31 73.5t74 30.5t73.5 -30.5t30.5 -73.5t-30.5 -74t-73.5 -31t-74 31t-31 74zM920 1606
q0 43 30.5 73.5t73.5 30.5t73.5 -30.5t30.5 -73.5t-30.5 -74t-73.5 -31t-73.5 31t-30.5 74z" />
    <glyph glyph-name="uni04DD" unicode="&#x4dd;" horiz-adv-x="1220" 
d="M537 850h147v-348l320 348h172l-369 -393l405 -457h-184l-315 358l-29 -28v-330h-147v330l-29 28l-315 -358h-185l406 457l-369 393h172l320 -348v348zM330 1126q0 41 30.5 72t71.5 31t72 -31t31 -72t-31 -71.5t-72 -30.5t-71.5 30.5t-30.5 71.5zM686 1126q0 41 30.5 72
t71.5 31t72 -31t31 -72t-31 -71.5t-72 -30.5t-71.5 30.5t-30.5 71.5z" />
    <glyph glyph-name="uni04DE" unicode="&#x4de;" horiz-adv-x="1179" 
d="M322 1098l-117 92q135 199 391 199q183 0 289 -97q106 -95 106 -252q0 -100 -52 -174.5t-136 -113.5q132 -30 203 -126.5t71 -226.5q0 -214 -170 -333q-133 -91 -311 -91q-97 0 -180 28t-143 76.5t-101.5 104t-69.5 119.5l148 66q41 -116 135 -183t217 -67q126 0 209 57
q111 77 111 219q0 60 -17 106.5t-48.5 74.5t-66 47t-80 27t-79.5 11t-74 3h-123v143h123q136 0 207.5 65.5t71.5 165.5q0 88 -56 144q-61 63 -184 63q-82 0 -149.5 -32t-124.5 -115zM295 1606q0 43 30.5 73.5t73.5 30.5t74 -30.5t31 -73.5t-31 -74t-74 -31t-73.5 31
t-30.5 74zM684 1606q0 43 30.5 73.5t73.5 30.5t74 -30.5t31 -73.5t-31 -74t-74 -31t-73.5 31t-30.5 74z" />
    <glyph glyph-name="uni04DF" unicode="&#x4df;" horiz-adv-x="864" 
d="M250 633l-103 84q49 70 109 106q80 47 186 47q62 0 110 -11.5t91 -47.5q74 -63 74 -162q0 -118 -96 -178q63 -15 98 -55q59 -62 59 -156q0 -66 -29 -123.5t-81 -95.5q-89 -66 -242 -66q-133 0 -227 72q-69 52 -113 146l127 53q22 -56 76 -96q59 -44 139 -44q95 0 143 33
q25 15 42.5 46t17.5 73q0 66 -51 98q-43 29 -140 29h-86v135h72q76 0 111 23q45 27 45 78q0 59 -37 88q-34 30 -109 30q-66 0 -117 -32q-43 -26 -69 -74zM170 1126q0 41 30.5 72t71.5 31t72 -31t31 -72t-31 -71.5t-72 -30.5t-71.5 30.5t-30.5 71.5zM526 1126q0 41 31 72
t72 31t71.5 -31t30.5 -72t-30.5 -71.5t-71.5 -30.5t-72 30.5t-31 71.5z" />
    <glyph glyph-name="uni04E2" unicode="&#x4e2;" horiz-adv-x="1454" 
d="M1126 0v1042l-950 -1103v1427h152v-1047l950 1104v-1423h-152zM410 1501v131h655v-131h-655z" />
    <glyph glyph-name="uni04E3" unicode="&#x4e3;" horiz-adv-x="1007" 
d="M139 850h148v-561l581 626v-915h-147v567l-582 -626v909zM195 1051v123h618v-123h-618z" />
    <glyph glyph-name="uni04E4" unicode="&#x4e4;" horiz-adv-x="1454" 
d="M1126 0v1042l-950 -1103v1427h152v-1047l950 1104v-1423h-152zM438 1606q0 43 31 73.5t74 30.5t73.5 -30.5t30.5 -73.5t-30.5 -74t-73.5 -31t-74 31t-31 74zM827 1606q0 43 31 73.5t74 30.5t73.5 -30.5t30.5 -73.5t-30.5 -74t-73.5 -31t-74 31t-31 74z" />
    <glyph glyph-name="uni04E5" unicode="&#x4e5;" horiz-adv-x="1007" 
d="M139 850h148v-561l581 626v-915h-147v567l-582 -626v909zM223 1126q0 41 31 72t72 31t71.5 -31t30.5 -72t-30.5 -71.5t-71.5 -30.5t-72 30.5t-31 71.5zM580 1126q0 41 30.5 72t71.5 31t71.5 -31t30.5 -72t-30.5 -71.5t-71.5 -30.5t-71.5 30.5t-30.5 71.5z" />
    <glyph glyph-name="uni04E6" unicode="&#x4e6;" horiz-adv-x="1626" 
d="M813 -25q-146 0 -277.5 54t-226.5 147t-151 225t-56 281q0 150 56 282t151.5 225t226.5 146.5t277 53.5t277 -53.5t226.5 -146.5t151.5 -225t56 -282q0 -149 -56 -281t-151 -225t-226.5 -147t-277.5 -54zM813 1245q-151 0 -279 -75t-202 -204.5t-74 -283.5t74 -283.5
t202 -204.5t279 -75t279 75t202 204.5t74 283.5t-74 283.5t-202 204.5t-279 75zM514 1606q0 43 30.5 73.5t73.5 30.5t74 -30.5t31 -73.5t-31 -74t-74 -31t-73.5 31t-30.5 74zM903 1606q0 43 31 73.5t74 30.5t73.5 -30.5t30.5 -73.5t-30.5 -74t-73.5 -31t-74 31t-31 74z" />
    <glyph glyph-name="uni04E7" unicode="&#x4e7;" horiz-adv-x="1073" 
d="M537 -25q-194 0 -322.5 127t-128.5 320q0 194 128 321t323 127t322.5 -127t127.5 -321q0 -193 -128 -320t-322 -127zM537 739q-124 0 -211.5 -84.5t-87.5 -232.5q0 -100 43.5 -173.5t110.5 -108t145 -34.5q123 0 211 84t88 232q0 149 -87 233t-212 84zM256 1126
q0 41 30.5 72t71.5 31t72 -31t31 -72t-31 -71.5t-72 -30.5t-71.5 30.5t-30.5 71.5zM612 1126q0 41 31 72t72 31t71.5 -31t30.5 -72t-30.5 -71.5t-71.5 -30.5t-72 30.5t-31 71.5z" />
    <glyph glyph-name="uni04E8" unicode="&#x4e8;" horiz-adv-x="1622" 
d="M811 -25q-145 0 -276 54t-226 147t-151 225t-56 281q0 150 56 282t151 225t225.5 146.5t276.5 53.5t276.5 -53.5t225.5 -146.5t151 -225t56 -282q0 -149 -56 -281t-151 -225t-226 -147t-276 -54zM264 778h1094q-18 110 -73 200t-130.5 147.5t-164.5 88.5t-179 31
t-179 -31t-164.5 -88.5t-130.5 -147.5t-73 -200zM1364 635h-1106q14 -152 95 -271.5t201 -182t257 -62.5t257 62.5t201 182t95 271.5z" />
    <glyph glyph-name="uni04E9" unicode="&#x4e9;" horiz-adv-x="1073" 
d="M537 -25q-194 0 -322.5 127t-128.5 320q0 194 128 321t323 127t322.5 -127t127.5 -321q0 -193 -128 -320t-322 -127zM246 500h581q-21 113 -103.5 176t-186.5 63t-187 -63t-104 -176zM831 369h-589q10 -117 96.5 -190t198.5 -73q113 0 197.5 73t96.5 190z" />
    <glyph glyph-name="uni04EA" unicode="&#x4ea;" horiz-adv-x="1622" 
d="M811 -25q-145 0 -276 54t-226 147t-151 225t-56 281q0 150 56 282t151 225t225.5 146.5t276.5 53.5t276.5 -53.5t225.5 -146.5t151 -225t56 -282q0 -149 -56 -281t-151 -225t-226 -147t-276 -54zM264 778h1094q-18 110 -73 200t-130.5 147.5t-164.5 88.5t-179 31
t-179 -31t-164.5 -88.5t-130.5 -147.5t-73 -200zM1364 635h-1106q14 -152 95 -271.5t201 -182t257 -62.5t257 62.5t201 182t95 271.5zM514 1606q0 43 30.5 73.5t73.5 30.5t74 -30.5t31 -73.5t-31 -74t-74 -31t-73.5 31t-30.5 74zM903 1606q0 43 31 73.5t74 30.5t73.5 -30.5
t30.5 -73.5t-30.5 -74t-73.5 -31t-74 31t-31 74z" />
    <glyph glyph-name="uni04EB" unicode="&#x4eb;" horiz-adv-x="1073" 
d="M537 -25q-194 0 -322.5 127t-128.5 320q0 194 128 321t323 127t322.5 -127t127.5 -321q0 -193 -128 -320t-322 -127zM246 500h581q-21 113 -103.5 176t-186.5 63t-187 -63t-104 -176zM831 369h-589q10 -117 96.5 -190t198.5 -73q113 0 197.5 73t96.5 190zM256 1126
q0 41 30.5 72t71.5 31t72 -31t31 -72t-31 -71.5t-72 -30.5t-71.5 30.5t-30.5 71.5zM612 1126q0 41 31 72t72 31t71.5 -31t30.5 -72t-30.5 -71.5t-71.5 -30.5t-72 30.5t-31 71.5z" />
    <glyph glyph-name="uni04EE" unicode="&#x4ee;" horiz-adv-x="1163" 
d="M16 1366h185l426 -805l356 805h164l-617 -1366h-163l174 381zM276 1501v131h656v-131h-656z" />
    <glyph glyph-name="uni04EF" unicode="&#x4ef;" horiz-adv-x="942" 
d="M137 -471l271 551l-392 770h168l301 -608l277 608h164l-625 -1321h-164zM162 1051v123h618v-123h-618z" />
    <glyph glyph-name="uni04F0" unicode="&#x4f0;" horiz-adv-x="1163" 
d="M16 1366h185l426 -805l356 805h164l-617 -1366h-163l174 381zM305 1606q0 43 31 73.5t74 30.5t73.5 -30.5t30.5 -73.5t-30.5 -74t-73.5 -31t-74 31t-31 74zM694 1606q0 43 31 73.5t74 30.5t73.5 -30.5t30.5 -73.5t-30.5 -74t-73.5 -31t-74 31t-31 74z" />
    <glyph glyph-name="uni04F1" unicode="&#x4f1;" horiz-adv-x="942" 
d="M137 -471l271 551l-392 770h168l301 -608l277 608h164l-625 -1321h-164zM211 1126q0 41 30.5 72t71.5 31t72 -31t31 -72t-31 -71.5t-72 -30.5t-71.5 30.5t-30.5 71.5zM567 1126q0 41 31 72t72 31t71.5 -31t30.5 -72t-30.5 -71.5t-71.5 -30.5t-72 30.5t-31 71.5z" />
    <glyph glyph-name="uni04F2" unicode="&#x4f2;" horiz-adv-x="1163" 
d="M16 1366h185l426 -805l356 805h164l-617 -1366h-163l174 381zM590 1806l143 -82l-301 -249l-88 53zM897 1806l143 -82l-301 -249l-88 53z" />
    <glyph glyph-name="uni04F3" unicode="&#x4f3;" horiz-adv-x="942" 
d="M137 -471l271 551l-392 770h168l301 -608l277 608h164l-625 -1321h-164zM471 1364l147 -66l-280 -278l-84 47zM745 1364l144 -66l-277 -278l-84 47z" />
    <glyph glyph-name="uni04F4" unicode="&#x4f4;" horiz-adv-x="1208" 
d="M881 0v586q-205 -15 -283 -15q-242 0 -338 74q-41 31 -68 72t-38 87t-15 81t-4 78v403h152v-383q0 -30 1.5 -51t8.5 -57t25 -66t47 -51q34 -26 90.5 -34.5t146.5 -8.5q121 0 275 14v637h151v-1366h-151zM295 1606q0 43 30.5 73.5t73.5 30.5t74 -30.5t31 -73.5t-31 -74
t-74 -31t-73.5 31t-30.5 74zM684 1606q0 43 30.5 73.5t73.5 30.5t74 -30.5t31 -73.5t-31 -74t-74 -31t-73.5 31t-30.5 74z" />
    <glyph glyph-name="uni04F5" unicode="&#x4f5;" horiz-adv-x="880" 
d="M594 0v334q-126 -19 -201 -19q-138 0 -207 62q-71 64 -71 209v264h147v-244q0 -66 19 -100q29 -55 129 -55q90 0 184 18v381h147v-850h-147zM150 1126q0 41 30.5 72t71.5 31t71.5 -31t30.5 -72t-30.5 -71.5t-71.5 -30.5t-71.5 30.5t-30.5 71.5zM506 1126q0 41 30.5 72
t71.5 31t72 -31t31 -72t-31 -71.5t-72 -30.5t-71.5 30.5t-30.5 71.5z" />
    <glyph glyph-name="uni04F8" unicode="&#x4f8;" horiz-adv-x="1454" 
d="M176 0v1366h152v-567h184q42 0 79.5 -3t87 -12.5t90 -25.5t81.5 -45.5t69.5 -69t46 -98.5t17.5 -131q0 -193 -119.5 -303.5t-322.5 -110.5h-365zM328 655v-512h176q34 0 56.5 1.5t61 7.5t73 23t61.5 44q71 67 71 195q0 147 -110 207q-29 16 -72.5 24t-71 9t-86.5 1h-159z
M1126 1366h152v-1366h-152v1366zM428 1606q0 43 30.5 73.5t73.5 30.5t74 -30.5t31 -73.5t-31 -74t-74 -31t-73.5 31t-30.5 74zM817 1606q0 43 31 73.5t74 30.5t73.5 -30.5t30.5 -73.5t-30.5 -74t-73.5 -31t-74 31t-31 74z" />
    <glyph glyph-name="uni04F9" unicode="&#x4f9;" horiz-adv-x="1150" 
d="M139 0v850h148v-326h151q77 0 142 -16t116 -68q66 -66 66 -178q0 -118 -76 -190q-34 -33 -81 -49.5t-80.5 -19.5t-88.5 -3h-297zM287 131h137q91 0 131 23q55 37 55 108q0 74 -53 107q-17 12 -42 17.5t-40 6t-49 0.5h-139v-262zM864 0v850h148v-850h-148zM295 1126
q0 41 30.5 72t71.5 31t72 -31t31 -72t-31 -71.5t-72 -30.5t-71.5 30.5t-30.5 71.5zM651 1126q0 41 31 72t72 31t71.5 -31t30.5 -72t-30.5 -71.5t-71.5 -30.5t-72 30.5t-31 71.5z" />
    <glyph glyph-name="uni1E9E" unicode="&#x1e9e;" horiz-adv-x="1181" 
d="M176 0v983q0 186 121 297q119 109 291 109q47 0 79 -3t82 -18.5t95 -44.5q74 -49 118 -136t42 -167l-293 -250q138 -21 233 -94q135 -107 135 -275q0 -207 -196 -333q-65 -40 -155 -64t-173 -29v144q149 12 242 69q58 35 92.5 87.5t34.5 115.5q0 139 -131 219
q-92 55 -238 64v123l291 262q-41 186 -254 186q-125 0 -199 -80q-65 -72 -65 -211v-954h-152z" />
    <glyph glyph-name="uni2010" unicode="&#x2010;" horiz-adv-x="655" 
d="M102 360v152h451v-152h-451z" />
    <glyph glyph-name="uni2011" unicode="&#x2011;" horiz-adv-x="655" 
d="M102 360v152h451v-152h-451z" />
    <glyph glyph-name="figuredash" unicode="&#x2012;" horiz-adv-x="1187" 
d="M143 629v131h901v-131h-901z" />
    <glyph glyph-name="endash" unicode="&#x2013;" horiz-adv-x="1187" 
d="M143 371v131h901v-131h-901z" />
    <glyph glyph-name="emdash" unicode="&#x2014;" horiz-adv-x="1638" 
d="M143 371v131h1352v-131h-1352z" />
    <glyph glyph-name="afii00208" unicode="&#x2015;" horiz-adv-x="1638" 
d="M143 371v131h1352v-131h-1352z" />
    <glyph glyph-name="quoteleft" unicode="&#x2018;" horiz-adv-x="540" 
d="M422 1366l-170 -473l-133 49l207 463z" />
    <glyph glyph-name="quoteright" unicode="&#x2019;" horiz-adv-x="540" 
d="M119 942l166 473l137 -49l-207 -463z" />
    <glyph glyph-name="quotesinglbase" unicode="&#x201a;" horiz-adv-x="630" 
d="M119 -272l166 473l137 -49l-207 -463z" />
    <glyph glyph-name="quotedblleft" unicode="&#x201c;" horiz-adv-x="839" 
d="M422 1366l-170 -473l-133 49l207 463zM721 1366l-166 -473l-137 49l207 463z" />
    <glyph glyph-name="quotedblright" unicode="&#x201d;" horiz-adv-x="839" 
d="M119 942l166 473l137 -49l-207 -463zM418 942l170 473l133 -49l-207 -463z" />
    <glyph glyph-name="quotedblbase" unicode="&#x201e;" horiz-adv-x="929" 
d="M119 -272l166 473l137 -49l-207 -463zM418 -272l170 473l133 -49l-207 -463z" />
    <glyph glyph-name="dagger" unicode="&#x2020;" horiz-adv-x="1163" 
d="M508 1030v463h147v-463h303v-139h-303v-1239h-147v1239h-303v139h303z" />
    <glyph glyph-name="daggerdbl" unicode="&#x2021;" horiz-adv-x="1163" 
d="M508 1030v463h147v-463h303v-139h-303v-567h303v-140h-303v-544h-147v544h-303v140h303v567h-303v139h303z" />
    <glyph glyph-name="bullet" unicode="&#x2022;" horiz-adv-x="2048" 
d="M737 696q0 118 84.5 202.5t202.5 84.5t202.5 -84.5t84.5 -202.5t-84 -202t-203 -84t-203 84t-84 202z" />
    <glyph glyph-name="ellipsis" unicode="&#x2026;" horiz-adv-x="1527" 
d="M154 82q0 41 30.5 71.5t71.5 30.5t71.5 -30.5t30.5 -71.5t-30.5 -71.5t-71.5 -30.5t-71.5 30.5t-30.5 71.5zM662 82q0 41 30.5 71.5t71.5 30.5t71.5 -30.5t30.5 -71.5t-30.5 -71.5t-71.5 -30.5t-71.5 30.5t-30.5 71.5zM1169 82q0 41 31 71.5t72 30.5t71.5 -30.5
t30.5 -71.5t-30.5 -71.5t-71.5 -30.5t-72 30.5t-31 71.5z" />
    <glyph glyph-name="perthousand" unicode="&#x2030;" horiz-adv-x="2170" 
d="M365 1378q125 0 211 -86t86 -211t-86 -211t-211 -86t-211 86t-86 211t86 211t211 86zM365 897q74 0 124 54t50 130t-50 130.5t-124 54.5q-72 0 -123.5 -54.5t-51.5 -130.5t51.5 -130t123.5 -54zM289 20l796 1373l80 -45l-796 -1375zM1090 580q124 0 210 -86t86 -211
t-86 -211t-210 -86t-210.5 86t-86.5 211t86.5 211t210.5 86zM1090 98q74 0 124 54.5t50 130.5t-50 130t-124 54q-72 0 -123.5 -54t-51.5 -130t51.5 -130.5t123.5 -54.5zM1806 580q124 0 210.5 -86t86.5 -211t-86.5 -211t-210.5 -86t-210.5 86t-86.5 211t86.5 211t210.5 86z
M1806 98q74 0 124 54.5t50 130.5t-50 130t-124 54q-72 0 -123 -54t-51 -130q0 -77 51 -131t123 -54z" />
    <glyph glyph-name="guilsinglleft" unicode="&#x2039;" horiz-adv-x="577" 
d="M229 434l246 -299l-94 -74l-307 373l307 385l94 -76z" />
    <glyph glyph-name="guilsinglright" unicode="&#x203a;" horiz-adv-x="577" 
d="M348 446l-246 299l95 74l307 -373l-307 -385l-95 76z" />
    <glyph glyph-name="fraction" unicode="&#x2044;" horiz-adv-x="258" 
d="M-307 20l794 1373l78 -45l-794 -1375z" />
    <glyph glyph-name="uni2080" unicode="&#x2080;" horiz-adv-x="716" 
d="M358 -14q-56 0 -114.5 30.5t-102.5 92.5q-84 113 -84 301q0 185 84 301q44 63 102 91.5t115 28.5t115 -28.5t102 -91.5q84 -116 84 -301q0 -188 -84 -301q-44 -62 -102.5 -92.5t-114.5 -30.5zM358 737q-82 0 -137 -84q-57 -89 -57 -243q0 -151 57 -242q29 -44 66 -66
t71 -22t71.5 22t66.5 66q57 89 57 242q0 157 -57 243q-55 84 -138 84z" />
    <glyph glyph-name="uni2081" unicode="&#x2081;" horiz-adv-x="716" 
d="M340 0v725h-160l49 94h217v-819h-106z" />
    <glyph glyph-name="uni2082" unicode="&#x2082;" horiz-adv-x="716" 
d="M608 0h-542l299 346q67 79 94 119q45 67 45 125q0 62 -42.5 104.5t-113.5 42.5q-91 0 -133 -69q-25 -45 -25 -99h-102q6 111 62 179q71 83 196 83q116 0 190 -67.5t74 -175.5q0 -80 -65 -174q-34 -49 -113 -138l-158 -182h334v-94z" />
    <glyph glyph-name="uni2083" unicode="&#x2083;" horiz-adv-x="716" 
d="M209 606h-103q4 76 39 131q60 94 199 94q66 0 115 -21.5t74.5 -56.5t37 -70t11.5 -71q0 -26 -5.5 -54t-31.5 -68t-70 -60q43 -17 70.5 -50.5t38 -70t10.5 -78.5q0 -105 -70.5 -175t-189.5 -70q-93 0 -152 40.5t-84 100.5q-16 42 -20 96h102q3 -44 29 -82q45 -61 121 -61
q70 0 113.5 44.5t43.5 111.5q0 50 -22 84.5t-57 48.5q-40 18 -95 14v94q53 -3 95 17q29 15 48 45.5t19 70.5q0 53 -32.5 90t-98.5 37q-70 0 -104 -43q-27 -35 -31 -88z" />
    <glyph glyph-name="uni2084" unicode="&#x2084;" horiz-adv-x="716" 
d="M551 864v-637h100v-94h-100v-133h-102v133h-420zM213 227h236v336z" />
    <glyph glyph-name="uni2085" unicode="&#x2085;" horiz-adv-x="716" 
d="M608 819v-94h-274l-45 -166q32 4 51 4q128 0 201 -79t73 -199q0 -140 -93 -219.5t-220 -79.5q-104 0 -184 63q-49 40 -72 84l80 62q21 -41 53 -66q57 -49 127 -49q84 0 143.5 58.5t59.5 140.5q0 83 -57.5 136.5t-145.5 53.5q-81 0 -158 -57l119 407h342z" />
    <glyph glyph-name="uni2086" unicode="&#x2086;" horiz-adv-x="716" 
d="M414 846l86 -64l-189 -252q32 11 64 11q123 0 198.5 -77.5t75.5 -197.5q0 -122 -81 -201t-208 -79q-126 0 -209 78t-83 200q0 93 67 189zM358 80q87 0 136 56.5t49 127.5q0 78 -54.5 130t-132.5 52t-130 -52.5t-52 -129.5q0 -72 47.5 -128t136.5 -56z" />
    <glyph glyph-name="uni2087" unicode="&#x2087;" horiz-adv-x="716" 
d="M66 37l454 688h-438v94h614l-546 -839z" />
    <glyph glyph-name="uni2088" unicode="&#x2088;" horiz-adv-x="716" 
d="M223 426q-98 61 -98 180q0 94 62 159.5t171 65.5t171.5 -65.5t62.5 -159.5q0 -119 -98 -180q62 -27 93 -80.5t31 -120.5q0 -102 -70 -170.5t-190 -68.5t-190 68.5t-70 170.5q0 66 31.5 120t93.5 81zM358 469q60 0 97 38.5t37 96.5q0 62 -38 97.5t-96 35.5t-95.5 -35.5
t-37.5 -97.5q0 -58 36.5 -96.5t96.5 -38.5zM358 379q-67 0 -110 -43t-43 -107q0 -66 42.5 -107.5t110.5 -41.5t111 41.5t43 107.5q0 64 -43.5 107t-110.5 43z" />
    <glyph glyph-name="uni2089" unicode="&#x2089;" horiz-adv-x="716" 
d="M303 -29l-86 64l189 252q-32 -11 -64 -11q-123 0 -198.5 77.5t-75.5 197.5q0 122 80.5 201t207.5 79q126 0 209.5 -78t83.5 -200q0 -92 -67 -188zM358 737q-87 0 -135.5 -56.5t-48.5 -127.5q0 -78 54 -130t132 -52t130.5 52.5t52.5 129.5q0 45 -18.5 85.5t-62 69.5
t-104.5 29z" />
    <glyph glyph-name="Euro" unicode="&#x20ac;" horiz-adv-x="1163" 
d="M1081 1274l-67 -137q-127 108 -309 108q-81 0 -149 -25.5t-111 -62t-77.5 -86.5t-51 -89.5t-27.5 -80.5h653l-53 -135h-625q-12 -79 -2 -160h576l-54 -135h-499q30 -157 143 -254.5t281 -97.5q205 0 372 157v-188q-169 -113 -381 -113q-128 0 -233 40t-175.5 110
t-113.5 157.5t-57 188.5h-137l53 135h69q-9 80 3 160h-125l53 135h88q21 96 67.5 181.5t118 155t176 110.5t228.5 41q200 0 366 -115z" />
    <glyph glyph-name="uni20B4" unicode="&#x20b4;" horiz-adv-x="1163" 
d="M324 1096l-121 80q70 90 162 145q113 68 260 68q144 0 229 -74q86 -72 86 -182q0 -128 -100 -232h190v-115h-282l-183 -180h465v-114h-569q-92 -85 -92 -205q0 -70 51 -117q55 -51 151 -51q115 0 199 78q63 60 100 151l140 -61q-42 -114 -121 -189q-69 -68 -146 -95.5
t-180 -27.5q-150 0 -241 68q-48 38 -78.5 98t-30.5 135q0 117 80 216h-158v114h250l182 180h-432v115h537q116 101 116 195q0 60 -45 102q-49 47 -145 47q-52 0 -86.5 -10.5t-71.5 -34.5q-67 -42 -116 -104z" />
    <glyph glyph-name="uni20B6" unicode="&#x20b6;" horiz-adv-x="1163" 
d="M539 1366q113 0 202.5 -22.5t159.5 -92.5q49 -49 78 -120.5t29 -153.5q0 -161 -103 -260q-118 -115 -330 -115h-133v-180h336v-115h-336v-307h-151v307h-156v115h156v180h-156v135h156v629h248zM442 1223v-486h125q154 0 230 80q59 66 59 172q0 99 -57 156
q-76 78 -244 78h-113z" />
    <glyph glyph-name="uni20B6" unicode="&#x20cf;" horiz-adv-x="1163" 
d="M539 1366q113 0 202.5 -22.5t159.5 -92.5q49 -49 78 -120.5t29 -153.5q0 -161 -103 -260q-118 -115 -330 -115h-133v-180h336v-115h-336v-307h-151v307h-156v115h156v180h-156v135h156v629h248zM442 1223v-486h125q154 0 230 80q59 66 59 172q0 99 -57 156
q-76 78 -244 78h-113z" />
    <glyph glyph-name="uni20B6" unicode="&#x20ce;" horiz-adv-x="1163" 
d="M539 1366q113 0 202.5 -22.5t159.5 -92.5q49 -49 78 -120.5t29 -153.5q0 -161 -103 -260q-118 -115 -330 -115h-133v-180h336v-115h-336v-307h-151v307h-156v115h156v180h-156v135h156v629h248zM442 1223v-486h125q154 0 230 80q59 66 59 172q0 99 -57 156
q-76 78 -244 78h-113z" />
    <glyph glyph-name="uni20B6" unicode="&#x20cd;" horiz-adv-x="1163" 
d="M539 1366q113 0 202.5 -22.5t159.5 -92.5q49 -49 78 -120.5t29 -153.5q0 -161 -103 -260q-118 -115 -330 -115h-133v-180h336v-115h-336v-307h-151v307h-156v115h156v180h-156v135h156v629h248zM442 1223v-486h125q154 0 230 80q59 66 59 172q0 99 -57 156
q-76 78 -244 78h-113z" />
    <glyph glyph-name="uni20B6" unicode="&#x20cc;" horiz-adv-x="1163" 
d="M539 1366q113 0 202.5 -22.5t159.5 -92.5q49 -49 78 -120.5t29 -153.5q0 -161 -103 -260q-118 -115 -330 -115h-133v-180h336v-115h-336v-307h-151v307h-156v115h156v180h-156v135h156v629h248zM442 1223v-486h125q154 0 230 80q59 66 59 172q0 99 -57 156
q-76 78 -244 78h-113z" />
    <glyph glyph-name="uni20B6" unicode="&#x20cb;" horiz-adv-x="1163" 
d="M539 1366q113 0 202.5 -22.5t159.5 -92.5q49 -49 78 -120.5t29 -153.5q0 -161 -103 -260q-118 -115 -330 -115h-133v-180h336v-115h-336v-307h-151v307h-156v115h156v180h-156v135h156v629h248zM442 1223v-486h125q154 0 230 80q59 66 59 172q0 99 -57 156
q-76 78 -244 78h-113z" />
    <glyph glyph-name="uni20B6" unicode="&#x20ca;" horiz-adv-x="1163" 
d="M539 1366q113 0 202.5 -22.5t159.5 -92.5q49 -49 78 -120.5t29 -153.5q0 -161 -103 -260q-118 -115 -330 -115h-133v-180h336v-115h-336v-307h-151v307h-156v115h156v180h-156v135h156v629h248zM442 1223v-486h125q154 0 230 80q59 66 59 172q0 99 -57 156
q-76 78 -244 78h-113z" />
    <glyph glyph-name="uni20B6" unicode="&#x20c9;" horiz-adv-x="1163" 
d="M539 1366q113 0 202.5 -22.5t159.5 -92.5q49 -49 78 -120.5t29 -153.5q0 -161 -103 -260q-118 -115 -330 -115h-133v-180h336v-115h-336v-307h-151v307h-156v115h156v180h-156v135h156v629h248zM442 1223v-486h125q154 0 230 80q59 66 59 172q0 99 -57 156
q-76 78 -244 78h-113z" />
    <glyph glyph-name="uni20B6" unicode="&#x20c8;" horiz-adv-x="1163" 
d="M539 1366q113 0 202.5 -22.5t159.5 -92.5q49 -49 78 -120.5t29 -153.5q0 -161 -103 -260q-118 -115 -330 -115h-133v-180h336v-115h-336v-307h-151v307h-156v115h156v180h-156v135h156v629h248zM442 1223v-486h125q154 0 230 80q59 66 59 172q0 99 -57 156
q-76 78 -244 78h-113z" />
    <glyph glyph-name="uni20B6" unicode="&#x20c7;" horiz-adv-x="1163" 
d="M539 1366q113 0 202.5 -22.5t159.5 -92.5q49 -49 78 -120.5t29 -153.5q0 -161 -103 -260q-118 -115 -330 -115h-133v-180h336v-115h-336v-307h-151v307h-156v115h156v180h-156v135h156v629h248zM442 1223v-486h125q154 0 230 80q59 66 59 172q0 99 -57 156
q-76 78 -244 78h-113z" />
    <glyph glyph-name="uni20B6" unicode="&#x20c6;" horiz-adv-x="1163" 
d="M539 1366q113 0 202.5 -22.5t159.5 -92.5q49 -49 78 -120.5t29 -153.5q0 -161 -103 -260q-118 -115 -330 -115h-133v-180h336v-115h-336v-307h-151v307h-156v115h156v180h-156v135h156v629h248zM442 1223v-486h125q154 0 230 80q59 66 59 172q0 99 -57 156
q-76 78 -244 78h-113z" />
    <glyph glyph-name="uni20B6" unicode="&#x20c5;" horiz-adv-x="1163" 
d="M539 1366q113 0 202.5 -22.5t159.5 -92.5q49 -49 78 -120.5t29 -153.5q0 -161 -103 -260q-118 -115 -330 -115h-133v-180h336v-115h-336v-307h-151v307h-156v115h156v180h-156v135h156v629h248zM442 1223v-486h125q154 0 230 80q59 66 59 172q0 99 -57 156
q-76 78 -244 78h-113z" />
    <glyph glyph-name="uni20B6" unicode="&#x20c4;" horiz-adv-x="1163" 
d="M539 1366q113 0 202.5 -22.5t159.5 -92.5q49 -49 78 -120.5t29 -153.5q0 -161 -103 -260q-118 -115 -330 -115h-133v-180h336v-115h-336v-307h-151v307h-156v115h156v180h-156v135h156v629h248zM442 1223v-486h125q154 0 230 80q59 66 59 172q0 99 -57 156
q-76 78 -244 78h-113z" />
    <glyph glyph-name="uni20B6" unicode="&#x20c3;" horiz-adv-x="1163" 
d="M539 1366q113 0 202.5 -22.5t159.5 -92.5q49 -49 78 -120.5t29 -153.5q0 -161 -103 -260q-118 -115 -330 -115h-133v-180h336v-115h-336v-307h-151v307h-156v115h156v180h-156v135h156v629h248zM442 1223v-486h125q154 0 230 80q59 66 59 172q0 99 -57 156
q-76 78 -244 78h-113z" />
    <glyph glyph-name="uni20B6" unicode="&#x20c2;" horiz-adv-x="1163" 
d="M539 1366q113 0 202.5 -22.5t159.5 -92.5q49 -49 78 -120.5t29 -153.5q0 -161 -103 -260q-118 -115 -330 -115h-133v-180h336v-115h-336v-307h-151v307h-156v115h156v180h-156v135h156v629h248zM442 1223v-486h125q154 0 230 80q59 66 59 172q0 99 -57 156
q-76 78 -244 78h-113z" />
    <glyph glyph-name="uni20B6" unicode="&#x20c1;" horiz-adv-x="1163" 
d="M539 1366q113 0 202.5 -22.5t159.5 -92.5q49 -49 78 -120.5t29 -153.5q0 -161 -103 -260q-118 -115 -330 -115h-133v-180h336v-115h-336v-307h-151v307h-156v115h156v180h-156v135h156v629h248zM442 1223v-486h125q154 0 230 80q59 66 59 172q0 99 -57 156
q-76 78 -244 78h-113z" />
    <glyph glyph-name="uni20B6" unicode="&#x20c0;" horiz-adv-x="1163" 
d="M539 1366q113 0 202.5 -22.5t159.5 -92.5q49 -49 78 -120.5t29 -153.5q0 -161 -103 -260q-118 -115 -330 -115h-133v-180h336v-115h-336v-307h-151v307h-156v115h156v180h-156v135h156v629h248zM442 1223v-486h125q154 0 230 80q59 66 59 172q0 99 -57 156
q-76 78 -244 78h-113z" />
    <glyph glyph-name="uni20B6" unicode="&#x20bf;" horiz-adv-x="1163" 
d="M539 1366q113 0 202.5 -22.5t159.5 -92.5q49 -49 78 -120.5t29 -153.5q0 -161 -103 -260q-118 -115 -330 -115h-133v-180h336v-115h-336v-307h-151v307h-156v115h156v180h-156v135h156v629h248zM442 1223v-486h125q154 0 230 80q59 66 59 172q0 99 -57 156
q-76 78 -244 78h-113z" />
    <glyph glyph-name="uni20B6" unicode="&#x20be;" horiz-adv-x="1163" 
d="M539 1366q113 0 202.5 -22.5t159.5 -92.5q49 -49 78 -120.5t29 -153.5q0 -161 -103 -260q-118 -115 -330 -115h-133v-180h336v-115h-336v-307h-151v307h-156v115h156v180h-156v135h156v629h248zM442 1223v-486h125q154 0 230 80q59 66 59 172q0 99 -57 156
q-76 78 -244 78h-113z" />
    <glyph glyph-name="uni20B6" unicode="&#x20bd;" horiz-adv-x="1163" 
d="M539 1366q113 0 202.5 -22.5t159.5 -92.5q49 -49 78 -120.5t29 -153.5q0 -161 -103 -260q-118 -115 -330 -115h-133v-180h336v-115h-336v-307h-151v307h-156v115h156v180h-156v135h156v629h248zM442 1223v-486h125q154 0 230 80q59 66 59 172q0 99 -57 156
q-76 78 -244 78h-113z" />
    <glyph glyph-name="uni20B6" unicode="&#x20bc;" horiz-adv-x="1163" 
d="M539 1366q113 0 202.5 -22.5t159.5 -92.5q49 -49 78 -120.5t29 -153.5q0 -161 -103 -260q-118 -115 -330 -115h-133v-180h336v-115h-336v-307h-151v307h-156v115h156v180h-156v135h156v629h248zM442 1223v-486h125q154 0 230 80q59 66 59 172q0 99 -57 156
q-76 78 -244 78h-113z" />
    <glyph glyph-name="uni20B6" unicode="&#x20bb;" horiz-adv-x="1163" 
d="M539 1366q113 0 202.5 -22.5t159.5 -92.5q49 -49 78 -120.5t29 -153.5q0 -161 -103 -260q-118 -115 -330 -115h-133v-180h336v-115h-336v-307h-151v307h-156v115h156v180h-156v135h156v629h248zM442 1223v-486h125q154 0 230 80q59 66 59 172q0 99 -57 156
q-76 78 -244 78h-113z" />
    <glyph glyph-name="uni20B6" unicode="&#x20ba;" horiz-adv-x="1163" 
d="M539 1366q113 0 202.5 -22.5t159.5 -92.5q49 -49 78 -120.5t29 -153.5q0 -161 -103 -260q-118 -115 -330 -115h-133v-180h336v-115h-336v-307h-151v307h-156v115h156v180h-156v135h156v629h248zM442 1223v-486h125q154 0 230 80q59 66 59 172q0 99 -57 156
q-76 78 -244 78h-113z" />
    <glyph glyph-name="uni20B6" unicode="&#x20b9;" horiz-adv-x="1163" 
d="M539 1366q113 0 202.5 -22.5t159.5 -92.5q49 -49 78 -120.5t29 -153.5q0 -161 -103 -260q-118 -115 -330 -115h-133v-180h336v-115h-336v-307h-151v307h-156v115h156v180h-156v135h156v629h248zM442 1223v-486h125q154 0 230 80q59 66 59 172q0 99 -57 156
q-76 78 -244 78h-113z" />
    <glyph glyph-name="uni20B6" unicode="&#x20b7;" horiz-adv-x="1163" 
d="M539 1366q113 0 202.5 -22.5t159.5 -92.5q49 -49 78 -120.5t29 -153.5q0 -161 -103 -260q-118 -115 -330 -115h-133v-180h336v-115h-336v-307h-151v307h-156v115h156v180h-156v135h156v629h248zM442 1223v-486h125q154 0 230 80q59 66 59 172q0 99 -57 156
q-76 78 -244 78h-113z" />
    <glyph glyph-name="uni20B8" unicode="&#x20b8;" horiz-adv-x="1163" 
d="M989 997h-332v-997h-151v997h-332v144h815v-144zM989 1243h-815v123h815v-123z" />
    <glyph glyph-name="afii61352" unicode="&#x2116;" horiz-adv-x="2088" 
d="M328 0h-152v1423l954 -1083v1026h152v-1427l-954 1083v-1022zM1731 1366q125 0 211 -86t86 -211t-86 -211t-211 -86t-211 86t-86 211t86 211t211 86zM1731 885q74 0 124 54t50 130t-50 130t-124 54q-72 0 -123.5 -54t-51.5 -130t51.5 -130t123.5 -54zM1475 465v143h512
v-143h-512z" />
    <glyph glyph-name="uni2117" unicode="&#x2117;" horiz-adv-x="1515" 
d="M539 1063h151q76 0 131.5 -12t93.5 -52q58 -58 58 -157q0 -100 -58 -158q-63 -63 -202 -63h-64v-324h-110v766zM649 965v-246h45q96 0 133 35q35 30 35 90q0 54 -26 82q-35 39 -146 39h-41zM1464 680q0 -282 -192 -487q-90 -96 -219.5 -158t-294.5 -62t-294.5 62
t-219.5 158q-193 206 -193 487q0 279 193 485q90 96 219.5 157.5t294.5 61.5t294.5 -61.5t219.5 -157.5q192 -205 192 -485zM758 1270q-111 0 -224 -45.5t-192 -122.5q-84 -81 -130 -194t-46 -228q0 -117 45.5 -229.5t130.5 -194.5q79 -77 192 -122.5t224 -45.5t224 45.5
t192 122.5q85 82 130.5 194.5t45.5 229.5q0 115 -46 228t-130 194q-79 77 -192 122.5t-224 45.5z" />
    <glyph glyph-name="trademark" unicode="&#x2122;" horiz-adv-x="1478" 
d="M479 1272h-184v-684h-102v684h-185v94h471v-94zM647 588h-94l133 827l293 -645l301 645l125 -827h-94l-72 526l-260 -565l-256 565z" />
    <glyph glyph-name="partialdiff" unicode="&#x2202;" horiz-adv-x="1073" 
d="M170 1237l35 141q119 -11 238.5 -52t209.5 -105q72 -51 139 -128t103 -147q92 -177 92 -436q0 -208 -84 -338q-36 -57 -82.5 -97t-96 -61t-95 -30t-92.5 -9q-200 0 -325.5 132t-125.5 327q0 128 53.5 232.5t154 166.5t230.5 62q175 0 273 -98h4q-19 61 -52 116t-71 94.5
t-69 65.5t-62 45q-71 45 -174 78.5t-203 40.5zM836 446q0 134 -80.5 226t-212.5 92q-135 0 -220 -93.5t-85 -240.5q0 -102 45 -177.5t112 -111t142 -35.5q132 0 215.5 99.5t83.5 240.5z" />
    <glyph glyph-name="product" unicode="&#x220f;" horiz-adv-x="1429" 
d="M74 1401v135h1282v-135h-160v-1778h160v-135h-479v135h167v1778h-659v-1778h166v-135h-477v135h159v1778h-159z" />
    <glyph glyph-name="summation" unicode="&#x2211;" horiz-adv-x="1404" 
d="M66 1536h1175v-440h-151v305h-824l488 -846l-496 -932h848v301h151v-436h-1191v94l516 975l-516 885v94z" />
    <glyph glyph-name="minus" unicode="&#x2212;" 
d="M68 614v136h888v-136h-888z" />
    <glyph glyph-name="uni2215" unicode="&#x2215;" horiz-adv-x="1212" 
d="M0 -348l1053 1902l118 -61l-1052 -1899z" />
    <glyph glyph-name="uni2219" unicode="&#x2219;" horiz-adv-x="409" 
d="M74 696q0 52 39 91.5t92 39.5t92 -39.5t39 -91.5t-39 -91.5t-92 -39.5t-92 39.5t-39 91.5z" />
    <glyph glyph-name="radical" unicode="&#x221a;" horiz-adv-x="1368" 
d="M838 1694h530v-135h-407l-441 -1559h-182l-168 614h-170v136h289l143 -549h4z" />
    <glyph glyph-name="infinity" unicode="&#x221e;" horiz-adv-x="1368" 
d="M688 598q-52 -86 -139.5 -150.5t-198.5 -64.5q-136 0 -223.5 88.5t-87.5 226.5q0 135 87.5 223.5t223.5 88.5q105 0 191.5 -62.5t140.5 -152.5q52 85 139 150t201 65q134 0 220.5 -88.5t86.5 -227.5q0 -137 -86 -224t-221 -87q-60 0 -115 20t-96 53.5t-71 68.5t-52 73z
M1001 879q-75 0 -138.5 -56.5t-104.5 -126.5q42 -77 110 -129.5t136 -52.5q72 0 123 50t51 132q0 76 -49.5 129.5t-127.5 53.5zM367 514q41 0 81 18t70.5 48t52.5 58t39 58q-39 75 -105.5 129t-139.5 54q-78 0 -126.5 -54t-48.5 -131q0 -86 54.5 -133t122.5 -47z" />
    <glyph glyph-name="integral" unicode="&#x222b;" 
d="M827 1513l-32 -131q-45 23 -97 23q-55 0 -82 -31q-14 -15 -20 -44t-7 -52.5t-1 -81.5v-1368q0 -64 -1.5 -96.5t-14.5 -81.5t-40 -82q-29 -34 -80 -57t-118 -23t-137 23l32 131q45 -23 97 -23q55 0 82 31q14 15 20 44t7 52.5t1 81.5v1368q0 64 1.5 96.5t14.5 81.5t40 82
q29 34 80 57t118 23t137 -23z" />
    <glyph glyph-name="approxequal" unicode="&#x2248;" 
d="M913 999l91 -53q-40 -89 -103 -149q-80 -80 -196 -80q-15 0 -30.5 2t-27 4t-29.5 7.5t-26 8t-29 11.5t-25.5 11t-28 13t-26.5 12q-57 27 -82 37.5t-56 19.5t-56 9q-60 0 -107 -41q-40 -35 -71 -106l-91 53q49 103 99 160q69 77 178 77q53 0 105 -17t126 -52
q2 -1 22.5 -11t25.5 -12t23.5 -10.5t26 -11t23.5 -8t26 -7.5t23.5 -4t24.5 -2q76 0 125 49q39 36 65 90zM913 659l91 -53q-40 -89 -103 -149q-80 -80 -196 -80q-15 0 -30.5 2t-27 4t-29.5 7.5t-26 8t-29 11.5t-25.5 11t-28 13t-26.5 12q-57 27 -82 37.5t-56 19.5t-56 9
q-60 0 -107 -41q-40 -35 -71 -106l-91 53q49 103 99 160q69 77 178 77q53 0 105 -17t126 -52q2 -1 22.5 -11t25.5 -12t23.5 -10.5t26 -11t23.5 -8t26 -7.5t23.5 -4t24.5 -2q76 0 125 49q39 36 65 90z" />
    <glyph glyph-name="notequal" unicode="&#x2260;" 
d="M68 786v136h491l113 233h121l-111 -233h274v-136h-340l-86 -180h426v-135h-491l-111 -233h-123l113 233h-276v135h340l88 180h-428z" />
    <glyph glyph-name="lessequal" unicode="&#x2264;" 
d="M225 772l731 -326v-139l-888 402v127l888 401v-139zM956 113h-888v135h888v-135z" />
    <glyph glyph-name="greaterequal" unicode="&#x2265;" 
d="M799 772l-731 326v139l888 -401v-127l-888 -402v139zM956 113h-888v135h888v-135z" />
    <glyph glyph-name="dotmath" unicode="&#x22c5;" horiz-adv-x="409" 
d="M74 696q0 52 39 91.5t92 39.5t92 -39.5t39 -91.5t-39 -91.5t-92 -39.5t-92 39.5t-39 91.5z" />
    <glyph glyph-name="lozenge" unicode="&#x25ca;" horiz-adv-x="1392" 
d="M152 684l532 737l533 -737l-533 -737zM1044 684l-360 498l-360 -498l360 -498z" />
    <glyph glyph-name="openbullet" unicode="&#x25e6;" horiz-adv-x="1009" 
d="M221 1087q0 121 80.5 202t202.5 81q121 0 201.5 -80.5t80.5 -202.5q0 -121 -80 -201.5t-202 -80.5t-202.5 80.5t-80.5 201.5zM324 1087q0 -88 56 -138t124 -50t124 50t56 138t-56 138.5t-124 50.5t-124 -50.5t-56 -138.5z" />
    <glyph glyph-name="uniF400" unicode="&#xf400;" horiz-adv-x="4" 
d="M-381 1364l152 -70l-275 -276l-92 49z" />
    <glyph glyph-name="uniF401" unicode="&#xf401;" horiz-adv-x="4" 
d="M-483 1806l143 -92l-313 -239l-88 65z" />
    <glyph glyph-name="uniF406" unicode="&#xf406;" 
d="M694 1722h135q-15 -80 -63 -137q-94 -108 -254 -108t-254 108q-48 57 -63 137h135q14 -44 51 -73q52 -41 131 -41t131 41q37 29 51 73z" />
    <glyph glyph-name="uniF407" unicode="&#xf407;" 
d="M541 -106l143 -62l-213 -262l-102 53z" />
    <glyph glyph-name="uniF408" unicode="&#xf408;" 
d="M512 1632l-180 -155l-107 84l287 243l287 -243l-107 -84z" />
    <glyph glyph-name="uniF409" unicode="&#xf409;" 
d="M344 -430l115 328l131 -50l-144 -319z" />
    <glyph glyph-name="uniF40A" unicode="&#xf40a;" 
d="M389 1065l107 328l131 -50l-144 -319z" />
    <glyph glyph-name="uniF40B" unicode="&#xf40b;" 
d="M399 1606q0 49 31.5 80.5t81.5 31.5t81.5 -31.5t31.5 -80.5q0 -50 -31.5 -81.5t-81.5 -31.5t-81.5 31.5t-31.5 81.5z" />
    <glyph glyph-name="uniF40C" unicode="&#xf40c;" 
d="M332 1675q0 73 53 126.5t127 53.5t127 -53.5t53 -126.5t-53 -126.5t-127 -53.5t-127 53.5t-53 126.5zM426 1677q0 -34 26 -60t60 -26t60 26t26 60t-26 60t-60 26t-60 -26t-26 -60z" />
    <glyph glyph-name="uniF40D" unicode="&#xf40d;" 
d="M741 1724l88 -71q-18 -49 -53 -84q-61 -64 -143 -64q-23 0 -47 6.5t-40 14t-50 24.5q-84 41 -115 41q-36 0 -62 -26q-26 -29 -34 -64l-90 74q19 53 61 92q55 55 129 55q51 0 139 -43q84 -43 115 -43q37 0 66 29q24 24 36 59z" />
    <glyph glyph-name="uniF40E" unicode="&#xf40e;" 
d="M750 -240l-17 -120q-57 -29 -121 -29q-79 0 -138.5 48t-59.5 130q0 69 49 131q39 47 98 80h127q-61 -39 -96 -80q-47 -56 -47 -104q0 -35 24.5 -58.5t81.5 -23.5q56 0 99 26z" />
    <glyph glyph-name="uniF4C6" unicode="&#xf4c6;" horiz-adv-x="1208" 
d="M881 1366h151v-1542q0 -163 -69 -232q-63 -63 -179 -63q-64 0 -112 18v148q42 -19 86 -19q60 0 90 27q33 31 33 117v766q-205 -15 -283 -15q-242 0 -338 74q-41 31 -68 72t-38 87t-15 81t-4 78v403h152v-383q0 -30 1.5 -51t8.5 -57t25 -66t47 -51q34 -26 90.5 -34.5
t146.5 -8.5q121 0 275 14v637z" />
    <glyph glyph-name="uniF4C7" unicode="&#xf4c7;" horiz-adv-x="880" 
d="M594 850h147v-997q0 -59 -2 -90t-17 -79.5t-46 -82.5q-64 -72 -187 -72q-55 0 -104 18v144q55 -19 96 -19q67 0 94 45q19 32 19 123v494q-126 -19 -201 -19q-138 0 -207 62q-71 64 -71 209v264h147v-244q0 -66 19 -100q29 -55 129 -55q90 0 184 18v381z" />
    <glyph glyph-name="uniF4CC" unicode="&#xf4cc;" horiz-adv-x="1163" 
d="M16 1366h185l426 -805l356 805h164l-617 -1366h-163l174 381zM750 1806l143 -92l-313 -239l-88 65z" />
    <glyph glyph-name="uniF4CD" unicode="&#xf4cd;" horiz-adv-x="942" 
d="M137 -471l271 551l-392 770h168l301 -608l277 608h164l-625 -1321h-164zM598 1364l152 -70l-275 -276l-92 49z" />
    <glyph glyph-name="dollar.fitted" unicode="&#xf5f5;" horiz-adv-x="905" 
d="M823 1176l-121 -80q-30 61 -77 102q-39 34 -88 43v-455q162 -63 239 -143q96 -99 96 -248q0 -147 -89.5 -266.5t-245.5 -144.5v-191h-123v182q-153 5 -262 111q-46 46 -79.5 111.5t-47.5 130.5l147 41q15 -107 82 -174q69 -72 160 -76v561q-153 64 -226 133
q-52 49 -73 102t-21 121q0 143 92 239.5t228 108.5v179h123v-179q87 -9 155 -57q82 -57 131 -151zM537 623v-496q83 22 131.5 98t48.5 164q0 96 -66 162q-45 45 -114 72zM414 842v399q-80 -13 -124 -70t-44 -133q0 -72 51 -123q45 -45 117 -73z" />
    <glyph glyph-name="Euro.fitted" unicode="&#xf5f6;" horiz-adv-x="1202" 
d="M1135 1274l-68 -137q-127 108 -309 108q-81 0 -149 -25.5t-111 -62t-77.5 -86.5t-51 -89.5t-27.5 -80.5h653l-53 -135h-625q-12 -79 -2 -160h576l-53 -135h-500q30 -157 143 -254.5t281 -97.5q206 0 373 157v-188q-169 -113 -381 -113q-128 0 -233.5 40.5t-175.5 110
t-113.5 157t-57.5 188.5h-137l53 135h70q-9 84 2 160h-125l53 135h88q21 96 67.5 181.5t118 155t176 110.5t228.5 41q201 0 367 -115z" />
    <glyph glyph-name="cent.fitted" unicode="&#xf5f7;" horiz-adv-x="784" 
d="M528 1341v-198q118 -15 215 -80v-176q-93 111 -215 125v-627q69 8 126.5 45.5t95.5 83.5v-176q-97 -72 -222 -86v-223h-122v227q-156 23 -261 125q-120 116 -120 313t127 324q101 101 254 121v202h122zM406 387v619q-82 -10 -142 -70q-88 -88 -88 -240q0 -145 90 -235
q57 -57 140 -74z" />
    <glyph glyph-name="sterling.fitted" unicode="&#xf5f8;" horiz-adv-x="1077" 
d="M958 938h-149v20q0 144 -74 218q-65 65 -174 65q-107 0 -170 -63q-34 -32 -55 -80t-21 -101q0 -29 5 -57t19 -63t22 -53t32 -64.5t31 -61.5l29 -57h258v-115h-207q22 -59 22 -125q0 -100 -59 -192l121 -45q108 -43 143 -43q61 0 109 45q41 41 63 96l125 -74
q-37 -86 -100 -139q-84 -72 -183 -72q-84 0 -176 37l-80 31q-102 39 -153 39q-62 0 -109 -37q-45 -35 -61 -74l-117 80q50 76 96 113q73 61 168 61q58 86 58 176q0 62 -27 123h-229v115h176l-41 76q-46 84 -68 147t-22 137q0 167 108 275t295 108q171 0 273 -102
q54 -52 88 -137.5t34 -188.5v-18z" />
    <glyph glyph-name="yen.fitted" unicode="&#xf5f9;" horiz-adv-x="1118" 
d="M1038 786h-288l-105 -180h393v-114h-405v-492h-152v492h-399v114h387l-104 180h-283v115h217l-268 465h178l348 -610l352 610h178l-272 -465h223v-115z" />
    <glyph glyph-name="florin.fitted" unicode="&#xf5fa;" horiz-adv-x="985" 
d="M850 727h-221l-125 -674q-19 -107 -44.5 -178.5t-82.5 -126.5q-99 -96 -285 -96q-36 0 -86 8l29 131q28 -4 51 -4q121 0 182 59q63 63 99 263l112 618h-147l18 123h152l67 367q29 159 101 231q68 68 188 68q65 0 131 -21l-26 -137q-53 22 -95 22q-53 0 -90 -32
q-42 -42 -65 -172l-62 -326h217z" />
    <glyph glyph-name="uni20B4.fitted" unicode="&#xf5fb;" horiz-adv-x="976" 
d="M229 1096l-120 80q71 91 161 145q113 68 260 68q145 0 230 -74q86 -72 86 -182q0 -127 -101 -232h191v-115h-283l-182 -180h465v-114h-569q-93 -86 -93 -205q0 -69 52 -117q55 -51 151 -51q115 0 199 78q63 60 100 151l139 -61q-42 -115 -120 -189q-69 -68 -146 -95.5
t-180 -27.5q-151 0 -242 68q-48 38 -78 98t-30 135q0 117 80 216h-158v114h250l182 180h-432v115h537q116 101 116 195q0 60 -45 102q-49 47 -145 47q-52 0 -86.5 -10.5t-71.5 -34.5q-69 -44 -117 -104z" />
    <glyph glyph-name="uni20B6.fitted" unicode="&#xf5fc;" horiz-adv-x="927" 
d="M440 1366q113 0 203 -22.5t160 -92.5q49 -49 77.5 -120.5t28.5 -153.5q0 -162 -102 -260q-118 -115 -330 -115h-133v-180h336v-115h-336v-307h-151v307h-156v115h156v180h-156v135h156v629h247zM344 1223v-486h125q153 0 229 80q60 67 60 172q0 98 -58 156
q-76 78 -243 78h-113z" />
    <glyph glyph-name="uni20B8.fitted" unicode="&#xf5fd;" horiz-adv-x="835" 
d="M825 997h-331v-997h-152v997h-332v144h815v-144zM825 1243h-815v123h815v-123z" />
    <glyph glyph-name="uniF639" unicode="&#xf639;" horiz-adv-x="1085" 
d="M543 -25q-91 0 -184 49.5t-166 155.5q-138 201 -138 502t138 502q73 106 166 155.5t184 49.5t184 -49.5t166 -155.5q137 -199 137 -502t-137 -502q-73 -106 -166 -155.5t-184 -49.5zM543 1249q-60 0 -123 -35.5t-113 -115.5q-100 -158 -100 -416t100 -416
q50 -80 113 -115.5t123 -35.5t122.5 35.5t112.5 115.5q101 160 101 416t-101 416q-50 80 -112.5 115.5t-122.5 35.5z" />
    <glyph glyph-name="uniF63A" unicode="&#xf63a;" horiz-adv-x="983" 
d="M930 0h-883l498 575q123 144 160 199q75 108 75 209q0 116 -75.5 191t-196.5 75q-148 0 -227 -121q-42 -64 -45 -161h-152q8 173 102 282q121 140 324 140q182 0 302 -115.5t120 -292.5q0 -71 -24.5 -139.5t-84.5 -153.5q-54 -76 -186 -227l-285 -322h578v-139z" />
    <glyph glyph-name="uniF63B" unicode="&#xf63b;" horiz-adv-x="935" 
d="M242 1028h-152q6 109 64 201q102 160 317 160q93 0 168 -31t121.5 -83.5t71 -117.5t24.5 -137q0 -88 -40.5 -171.5t-135.5 -131.5q19 -7 39 -18t50 -38t52.5 -61t39 -90t16.5 -123q0 -187 -120 -299.5t-300 -112.5q-76 0 -145.5 21t-135 76.5t-100.5 138.5
q-28 69 -31 143h152q10 -84 49 -137q33 -49 89 -75.5t122 -26.5q113 0 190.5 80.5t77.5 195.5q0 69 -32 133.5t-103 96.5q-67 31 -156 28v135q89 -7 156 29q115 62 115 203q0 100 -58 166.5t-176 66.5q-115 0 -176 -78q-47 -61 -53 -143z" />
    <glyph glyph-name="uniF63C" unicode="&#xf63c;" horiz-adv-x="1064" 
d="M854 1442v-1045h168v-139h-168v-258h-152v258h-700zM270 397h432v604z" />
    <glyph glyph-name="uniF63D" unicode="&#xf63d;" horiz-adv-x="1003" 
d="M940 1366v-139h-438l-88 -295q36 8 86 8q202 0 326 -135t124 -338q0 -148 -68.5 -261.5t-181 -172t-247.5 -58.5q-176 0 -306 107q-72 62 -118 139l121 86q31 -61 92 -110q99 -82 221 -82q143 0 239.5 102t96.5 248q0 147 -94.5 241.5t-241.5 94.5q-130 0 -264 -94
l198 659h543z" />
    <glyph glyph-name="uniF63E" unicode="&#xf63e;" horiz-adv-x="1015" 
d="M610 1399l115 -86l-313 -436q58 18 120 18q194 0 318.5 -129t124.5 -322q0 -204 -132.5 -336.5t-336.5 -132.5q-116 0 -209 42t-149 110.5t-85.5 149t-29.5 163.5q0 157 112 314zM504 115q140 0 229.5 93t89.5 232q0 137 -91 226.5t-230 89.5q-138 0 -228 -90.5
t-90 -225.5q0 -138 89.5 -231.5t230.5 -93.5z" />
    <glyph glyph-name="uniF63F" unicode="&#xf63f;" horiz-adv-x="1081" 
d="M45 47l776 1180h-747v139h1003l-913 -1399z" />
    <glyph glyph-name="uniF640" unicode="&#xf640;" horiz-adv-x="950" 
d="M686 711q102 -45 154.5 -133t52.5 -201q0 -170 -109.5 -286t-308.5 -116t-308.5 116t-109.5 286q0 113 52.5 201t154.5 133q-81 47 -123.5 125t-42.5 174q0 74 25 141.5t71 121t119 85t162 31.5t162 -31.5t119 -85t71 -121t25 -141.5q0 -96 -42.5 -174t-123.5 -125z
M475 772q100 0 167 67.5t67 168.5q0 109 -68.5 175t-165.5 66t-165 -66t-68 -175q0 -101 66.5 -168.5t166.5 -67.5zM475 115q118 0 192 74.5t74 191.5q0 115 -74.5 187.5t-191.5 72.5t-191.5 -72.5t-74.5 -187.5q0 -117 74 -191.5t192 -74.5z" />
    <glyph glyph-name="uniF641" unicode="&#xf641;" horiz-adv-x="1015" 
d="M406 -33l-115 84l313 436q-58 -18 -121 -18q-194 0 -318 129t-124 322q0 204 132.5 336.5t336.5 132.5q116 0 209 -42t149 -110.5t85.5 -149t29.5 -163.5q0 -158 -113 -314zM512 1249q-140 0 -229.5 -93t-89.5 -232q0 -137 91 -226.5t230 -89.5q138 0 227.5 90.5
t89.5 225.5q0 139 -89 232t-230 93z" />
    <glyph glyph-name="uniF6BA" unicode="&#xf6ba;" horiz-adv-x="655" 
d="M102 618v152h451v-152h-451z" />
    <glyph glyph-name="uniF6BB" unicode="&#xf6bb;" horiz-adv-x="1187" 
d="M143 629v131h901v-131h-901z" />
    <glyph glyph-name="uniF6BC" unicode="&#xf6bc;" horiz-adv-x="1638" 
d="M143 629v131h1352v-131h-1352z" />
    <glyph glyph-name="uniF6C3" unicode="&#xf6c3;" 
d="M348 -430l115 328l131 -50l-143 -319z" />
    <glyph glyph-name="uniF6C9" unicode="&#xf6c9;" 
d="M680 1806l143 -92l-313 -239l-88 65z" />
    <glyph glyph-name="uniF6CA" unicode="&#xf6ca;" 
d="M512 1649l180 155l107 -84l-287 -243l-287 243l107 84z" />
    <glyph glyph-name="uniF6CB" unicode="&#xf6cb;" 
d="M213 1606q0 43 30.5 73.5t73.5 30.5t74 -30.5t31 -73.5t-31 -74t-74 -31t-73.5 31t-30.5 74zM602 1606q0 43 31 73.5t74 30.5t73.5 -30.5t30.5 -73.5t-30.5 -74t-73.5 -31t-74 31t-31 74z" />
    <glyph glyph-name="uniF6CE" unicode="&#xf6ce;" 
d="M514 1475l-313 239l143 92l258 -266z" />
    <glyph glyph-name="uniF6CF" unicode="&#xf6cf;" 
d="M520 1806l144 -82l-302 -249l-88 53zM827 1806l144 -82l-301 -249l-88 53z" />
    <glyph glyph-name="uniF6D0" unicode="&#xf6d0;" 
d="M184 1501v131h656v-131h-656z" />
    <glyph glyph-name="uniF6D1" unicode="&#xf6d1;" 
d="M195 1675l143 47q9 -32 29.5 -55t41 -34t45.5 -17t36.5 -7t21.5 -1t21.5 1t36.5 7t45.5 17t41 34t29.5 55l143 -47q-5 -16 -15 -34.5t-35 -49.5t-58 -55t-88 -41.5t-121 -17.5t-121 17.5t-88 41.5t-58 55t-35 49.5t-15 34.5z" />
    <glyph glyph-name="uniF6D4" unicode="&#xf6d4;" 
d="M215 1217l123 47q16 -55 60.5 -89t113.5 -34t113.5 34t60.5 89l123 -47q-33 -92 -112 -145.5t-185 -53.5t-185 53.5t-112 145.5z" />
    <glyph glyph-name="uniF6DC" unicode="&#xf6dc;" horiz-adv-x="468" 
d="M233 0v1223h-229l80 143h301v-1366h-152z" />
    <glyph glyph-name="uniF6DE" unicode="&#xf6de;" horiz-adv-x="1228" 
d="M106 371v131h1014v-131h-1014z" />
    <glyph glyph-name="nbspace" horiz-adv-x="477" 
 />
    <glyph glyph-name="hyphenminus" horiz-adv-x="655" 
d="M102 360v152h451v-152h-451z" />
    <glyph glyph-name="dotlessi1" horiz-adv-x="425" 
d="M139 850h148v-850h-148v850z" />
    </font>
</defs>
</svg>
